<svg width="120" height="120" viewBox="0 0 120 120" fill="none" xmlns="http://www.w3.org/2000/svg">
<circle cx="60" cy="60" r="60" fill="#F4F6F8"/>
<g clip-path="url(#clip0_124_1217)">
<path d="M72.4072 88.1292L68.0786 89.2903L72.4385 86.6093C72.3447 82.3352 70.8529 77.9033 70.8529 77.9033C70.8529 77.9033 61.5354 80.6026 59.09 85.2769C56.6445 89.9511 58.5695 93.0369 61.9973 94.8303C65.425 96.6235 69.0576 96.4452 71.503 91.771C72.0473 90.7306 72.3166 89.4661 72.4072 88.1292Z" fill="#F2F2F2"/>
<path d="M67.2512 89.0428L67.1306 89.2732C65.7158 91.9442 64.171 93.7974 62.515 94.8051C62.4911 94.8203 62.4667 94.8336 62.4428 94.8487L62.3752 94.7364L62.3115 94.6275C64.126 93.553 65.6488 91.4892 66.8834 89.1598C66.9239 89.0852 66.9651 89.0093 67.0039 88.9323C67.5178 87.9416 67.9807 86.9097 68.3922 85.8872C68.4247 85.8083 68.4567 85.7277 68.4887 85.6471C69.0248 84.2947 69.4718 82.9682 69.8301 81.8002C69.8558 81.7178 69.8803 81.6348 69.9043 81.5529C70.5026 79.5734 70.8345 78.0865 70.9056 77.7561C70.915 77.716 70.9194 77.6936 70.9207 77.6885L71.0452 77.7144L71.0469 77.7138L71.1725 77.7403C71.1713 77.7455 71.1566 77.8206 71.1253 77.9582C71.0111 78.4738 70.6867 79.8658 70.1519 81.6461C70.1274 81.7262 70.1028 81.8093 70.0772 81.8917C69.7874 82.8399 69.4411 83.8878 69.0367 84.9663C68.9356 85.2373 68.8328 85.5032 68.7284 85.7638C68.6975 85.845 68.6655 85.9256 68.633 86.0045C68.1884 87.1098 67.7278 88.1226 67.2512 89.0428Z" fill="white"/>
<path d="M70.152 81.6454C70.0702 81.6157 69.9872 81.5853 69.9044 81.5521C69.6791 81.4623 69.4586 81.361 69.2438 81.2487C68.3275 80.7708 67.53 80.0935 66.9103 79.2666C66.8307 79.302 66.7512 79.3374 66.6699 79.3733C67.3171 80.2523 68.1567 80.9718 69.1244 81.4768C69.3538 81.5967 69.5894 81.7045 69.8301 81.7995C69.9119 81.8321 69.9948 81.8624 70.0772 81.891C70.7553 82.1305 71.4659 82.2657 72.1847 82.2919C72.1684 82.2035 72.1528 82.1168 72.1376 82.0319C71.4603 82.0015 70.7912 81.8713 70.152 81.6454Z" fill="white"/>
<path d="M68.7285 85.7633C68.6474 85.7267 68.5675 85.6878 68.4888 85.6466C68.4643 85.6353 68.4392 85.6221 68.4152 85.6096C67.423 85.0905 66.5711 84.3393 65.932 83.4198C65.2929 82.5003 64.8856 81.44 64.7449 80.3291C64.664 80.3725 64.5832 80.4159 64.5029 80.4611C64.6626 81.5942 65.0899 82.6729 65.7495 83.6079C66.4091 84.5429 67.282 85.3072 68.2959 85.8377C68.3278 85.8544 68.3597 85.8711 68.3923 85.8867C68.4727 85.9273 68.5526 85.9662 68.6331 86.004C69.8836 86.5787 71.2731 86.7811 72.6356 86.587C72.6343 86.5006 72.633 86.4143 72.6305 86.3273C71.3027 86.523 69.9466 86.327 68.7285 85.7633Z" fill="white"/>
<path d="M67.2514 89.0424C67.168 89.0075 67.0858 88.9703 67.0041 88.9319C66.9168 88.8906 66.83 88.8481 66.7445 88.8033C65.4121 88.1043 64.3419 86.9925 63.6943 85.6344C63.0466 84.2763 62.8563 82.7449 63.1518 81.2695C63.0521 81.3351 62.9531 81.3995 62.8557 81.4662C62.6092 82.9634 62.8407 84.5002 63.5173 85.8582C64.194 87.2163 65.2814 88.3267 66.6252 89.0315C66.7107 89.0762 66.7968 89.1198 66.8836 89.1594C66.9658 89.1995 67.048 89.2367 67.1309 89.2728C68.8096 89.9903 70.6982 90.0431 72.4144 89.4205C72.4346 89.3236 72.4508 89.226 72.4675 89.1272C70.7839 89.7783 68.9129 89.7479 67.2514 89.0424Z" fill="white"/>
<path d="M15.5655 88.5345L19.894 89.6956L15.5342 87.0146C15.628 82.7405 17.1198 78.3086 17.1198 78.3086C17.1198 78.3086 26.4373 81.0079 28.8827 85.6821C31.3281 90.3564 29.4032 93.4422 25.9754 95.2355C22.5477 97.0288 18.9151 96.8505 16.4696 92.1763C15.9253 91.1359 15.656 89.8714 15.5655 88.5345Z" fill="#F2F2F2"/>
<path d="M20.7211 89.4481L20.8417 89.6785C22.2565 92.3494 23.8013 94.2027 25.4574 95.2104C25.4812 95.2255 25.5057 95.2389 25.5296 95.254L25.5972 95.1416L25.6608 95.0328C23.8464 93.9583 22.3235 91.8945 21.0889 89.5651C21.0484 89.4904 21.0073 89.4146 20.9684 89.3376C20.4545 88.3469 19.9916 87.315 19.5801 86.2924C19.5476 86.2136 19.5156 86.133 19.4836 86.0524C18.9475 84.7 18.5005 83.3735 18.1422 82.2055C18.1165 82.1231 18.092 82.04 18.068 81.9581C17.4697 79.9787 17.1378 78.4918 17.0667 78.1614C17.0573 78.1213 17.0529 78.0989 17.0516 78.0938L16.9272 78.1196L16.9254 78.1191L16.7998 78.1456C16.8011 78.1507 16.8157 78.2259 16.847 78.3635C16.9613 78.879 17.2856 80.2711 17.8204 82.0513C17.8449 82.1315 17.8695 82.2145 17.8952 82.297C18.1849 83.2451 18.5312 84.293 18.9356 85.3715C19.0368 85.6426 19.1395 85.9084 19.2439 86.1691C19.2748 86.2503 19.3068 86.3309 19.3393 86.4097C19.784 87.5151 20.2446 88.5279 20.7211 89.4481Z" fill="white"/>
<path d="M15.8351 82.4381C15.82 82.5231 15.8043 82.6097 15.7881 82.6981C16.5068 82.6719 17.2174 82.5368 17.8956 82.2972C17.9779 82.2687 18.0609 82.2384 18.1426 82.2058C18.3834 82.1107 18.619 82.003 18.8483 81.883C19.8161 81.378 20.6556 80.6586 21.3028 79.7796C21.2216 79.7436 21.142 79.7082 21.0625 79.6729C20.4427 80.4998 19.6453 81.1771 18.729 81.6549C18.5141 81.7673 18.2936 81.8686 18.0684 81.9584C17.9855 81.9916 17.9026 82.0219 17.8208 82.0516C17.1816 82.2775 16.5124 82.4078 15.8351 82.4381Z" fill="white"/>
<path d="M15.3419 86.7325C15.3395 86.8195 15.3382 86.9059 15.3369 86.9923C16.6994 87.1864 18.0889 86.984 19.3394 86.4092C19.4199 86.3715 19.4998 86.3326 19.5802 86.292C19.6127 86.2764 19.6447 86.2597 19.6766 86.243C20.6905 85.7125 21.5633 84.9481 22.2229 84.0131C22.8825 83.0781 23.3099 81.9994 23.4696 80.8664C23.3893 80.8212 23.3084 80.7778 23.2276 80.7344C23.0869 81.8452 22.6796 82.9056 22.0405 83.8251C21.4014 84.7445 20.5494 85.4958 19.5573 86.0149C19.5333 86.0274 19.5082 86.0405 19.4837 86.0519C19.405 86.0931 19.3251 86.132 19.244 86.1686C18.0259 86.7323 16.6698 86.9283 15.3419 86.7325Z" fill="white"/>
<path d="M15.5049 89.5325C15.5217 89.6312 15.5379 89.7288 15.5581 89.8258C17.2742 90.4484 19.1629 90.3956 20.8416 89.6781C20.9244 89.642 21.0066 89.6048 21.0888 89.5647C21.1756 89.5251 21.2617 89.4815 21.3473 89.4367C22.691 88.7319 23.7784 87.6216 24.4551 86.2635C25.1318 84.9054 25.3633 83.3686 25.1167 81.8715C25.0193 81.8047 24.9203 81.7403 24.8206 81.6748C25.1161 83.1502 24.9258 84.6815 24.2781 86.0397C23.6305 87.3978 22.5603 88.5096 21.2279 89.2086C21.1424 89.2534 21.0556 89.2958 20.9683 89.3372C20.8867 89.3755 20.8044 89.4127 20.721 89.4477C19.0595 90.1531 17.1885 90.1836 15.5049 89.5325Z" fill="white"/>
<path d="M35.8585 91.8075L38.4354 92.4987L35.8398 90.9026C35.8957 88.3582 36.7838 85.7197 36.7838 85.7197C36.7838 85.7197 42.3307 87.3267 43.7866 90.1094C45.2424 92.8921 44.0964 94.7292 42.0558 95.7968C40.0151 96.8644 37.8526 96.7582 36.3967 93.9755C36.0727 93.3561 35.9124 92.6034 35.8585 91.8075Z" fill="#F2F2F2"/>
<path d="M38.9282 92.3513L39 92.4885C39.8422 94.0786 40.7619 95.1819 41.7478 95.7818C41.762 95.7908 41.7766 95.7987 41.7908 95.8077L41.831 95.7408L41.8689 95.6761C40.7888 95.0364 39.8822 93.8077 39.1472 92.421C39.123 92.3765 39.0986 92.3314 39.0754 92.2855C38.7695 91.6958 38.4939 91.0814 38.249 90.4727C38.2296 90.4258 38.2105 90.3778 38.1915 90.3298C37.8723 89.5246 37.6062 88.735 37.3929 88.0396C37.3776 87.9906 37.363 87.9411 37.3487 87.8924C36.9926 86.7139 36.795 85.8287 36.7526 85.6321C36.747 85.6082 36.7444 85.5949 36.7437 85.5918L36.6696 85.6072L36.6685 85.6069L36.5938 85.6227C36.5945 85.6257 36.6032 85.6705 36.6218 85.7524C36.6899 86.0593 36.883 86.888 37.2013 87.9479C37.2159 87.9956 37.2306 88.045 37.2458 88.0941C37.4183 88.6586 37.6245 89.2824 37.8653 89.9245C37.9255 90.0858 37.9867 90.2441 38.0488 90.3993C38.0672 90.4476 38.0862 90.4956 38.1056 90.5425C38.3703 91.2006 38.6445 91.8035 38.9282 92.3513Z" fill="white"/>
<path d="M36.0192 88.1775C36.0102 88.2281 36.0009 88.2797 35.9912 88.3323C36.4191 88.3167 36.8421 88.2362 37.2458 88.0936C37.2949 88.0766 37.3443 88.0586 37.3929 88.0392C37.5363 87.9826 37.6765 87.9184 37.8131 87.847C38.3892 87.5464 38.889 87.1181 39.2743 86.5948C39.2259 86.5734 39.1786 86.5523 39.1312 86.5312C38.7622 87.0235 38.2875 87.4268 37.742 87.7112C37.6141 87.7781 37.4828 87.8384 37.3487 87.8919C37.2994 87.9117 37.25 87.9297 37.2013 87.9474C36.8208 88.0819 36.4224 88.1594 36.0192 88.1775Z" fill="white"/>
<path d="M35.7256 90.7349C35.7242 90.7867 35.7234 90.8381 35.7227 90.8896C36.5338 91.0051 37.361 90.8846 38.1054 90.5425C38.1533 90.52 38.2009 90.4968 38.2488 90.4726C38.2682 90.4634 38.2872 90.4534 38.3062 90.4435C38.9098 90.1277 39.4294 89.6726 39.8221 89.116C40.2148 88.5594 40.4692 87.9172 40.5642 87.2427C40.5164 87.2158 40.4683 87.1899 40.4202 87.1641C40.3364 87.8254 40.0939 88.4567 39.7135 89.004C39.333 89.5514 38.8258 89.9987 38.2351 90.3077C38.2209 90.3151 38.2059 90.323 38.1913 90.3297C38.1445 90.3543 38.0969 90.3774 38.0486 90.3992C37.3235 90.7348 36.5161 90.8514 35.7256 90.7349Z" fill="white"/>
<path d="M35.8232 92.4015C35.8332 92.4603 35.8429 92.5184 35.8549 92.5761C36.8766 92.9468 38.0009 92.9154 39.0003 92.4882C39.0496 92.4667 39.0986 92.4446 39.1475 92.4207C39.1992 92.3971 39.2504 92.3712 39.3014 92.3445C40.1013 91.9249 40.7487 91.2639 41.1515 90.4554C41.5544 89.6469 41.6922 88.732 41.5454 87.8407C41.4874 87.801 41.4285 87.7627 41.3691 87.7236C41.5451 88.6019 41.4318 89.5136 41.0462 90.3221C40.6606 91.1307 40.0235 91.7926 39.2303 92.2087C39.1794 92.2354 39.1277 92.2606 39.0758 92.2852C39.0272 92.3081 38.9782 92.3302 38.9285 92.351C37.9394 92.771 36.8255 92.7891 35.8232 92.4015Z" fill="white"/>
<path d="M87.3291 68.4127L87.3181 68.4118C85.2685 68.0734 82.9917 68.0735 80.3575 68.4122H80.3565C80.2908 68.413 80.2256 68.4007 80.1646 68.3762C80.1036 68.3516 80.0481 68.3153 80.0013 68.2692C79.9544 68.2231 79.9172 68.1682 79.8916 68.1076C79.8661 68.047 79.8528 67.982 79.8525 67.9163V65.5307C79.8527 65.3991 79.905 65.2729 79.9981 65.1799C80.0912 65.0868 80.2173 65.0345 80.3489 65.0343C82.6686 64.7319 85.0178 64.732 87.3374 65.0349H87.3384C87.4685 65.0368 87.5926 65.0899 87.6838 65.1827C87.775 65.2756 87.8259 65.4006 87.8255 65.5307V67.9163C87.8254 68.0479 87.773 68.1741 87.68 68.2671C87.5869 68.3602 87.4607 68.4126 87.3291 68.4127Z" fill="white"/>
<path d="M87.3291 68.4127L87.3181 68.4118C85.2685 68.0734 82.9917 68.0735 80.3575 68.4122H80.3565C80.2908 68.413 80.2256 68.4007 80.1646 68.3762C80.1036 68.3516 80.0481 68.3153 80.0013 68.2692C79.9544 68.2231 79.9172 68.1682 79.8916 68.1076C79.8661 68.047 79.8528 67.982 79.8525 67.9163V65.5307C79.8527 65.3991 79.905 65.2729 79.9981 65.1799C80.0912 65.0868 80.2173 65.0345 80.3489 65.0343C82.6686 64.7319 85.0178 64.732 87.3374 65.0349H87.3384C87.4685 65.0368 87.5926 65.0899 87.6838 65.1827C87.775 65.2756 87.8259 65.4006 87.8255 65.5307V67.9163C87.8254 68.0479 87.773 68.1741 87.68 68.2671C87.5869 68.3602 87.4607 68.4126 87.3291 68.4127ZM83.7504 64.9431C82.6158 64.941 81.4824 65.0165 80.3581 65.1688C80.31 65.168 80.2622 65.1768 80.2174 65.1946C80.1727 65.2124 80.132 65.2389 80.0975 65.2726C80.0631 65.3062 80.0356 65.3464 80.0168 65.3907C79.9979 65.435 79.988 65.4826 79.9877 65.5307V67.9163C79.9878 68.0121 80.0259 68.1039 80.0936 68.1716C80.1613 68.2394 80.2532 68.2775 80.3489 68.2776C82.9854 67.938 85.2732 67.938 87.3344 68.2775C87.4293 68.276 87.5197 68.2373 87.5863 68.1697C87.6529 68.1022 87.6903 68.0112 87.6904 67.9163V65.5307C87.6903 65.4349 87.6522 65.3431 87.5844 65.2754C87.5167 65.2077 87.4249 65.1696 87.3291 65.1695C86.142 65.0206 84.9468 64.945 83.7504 64.9431Z" fill="#DBC22A"/>
<path d="M83.8395 67.556C84.3619 67.556 84.7854 67.1324 84.7854 66.61C84.7854 66.0876 84.3619 65.6641 83.8395 65.6641C83.3171 65.6641 82.8936 66.0876 82.8936 66.61C82.8936 67.1324 83.3171 67.556 83.8395 67.556Z" fill="#DBC22A"/>
<path d="M81.4071 66.1161H80.5963C80.5425 66.116 80.491 66.0947 80.453 66.0567C80.415 66.0187 80.3936 65.9671 80.3936 65.9134V65.6431C80.3936 65.5894 80.415 65.5379 80.453 65.4999C80.491 65.4619 80.5425 65.4405 80.5963 65.4404H81.4071C81.4608 65.4405 81.5123 65.4619 81.5503 65.4999C81.5883 65.5379 81.6097 65.5894 81.6098 65.6431V65.9134C81.6097 65.9671 81.5883 66.0187 81.5503 66.0567C81.5123 66.0947 81.4608 66.116 81.4071 66.1161Z" fill="#DBC22A"/>
<path d="M87.0819 68.0077H86.2711C86.2173 68.0076 86.1658 67.9863 86.1278 67.9483C86.0898 67.9103 86.0684 67.8587 86.0684 67.805V67.5347C86.0684 67.481 86.0898 67.4295 86.1278 67.3915C86.1658 67.3535 86.2173 67.3321 86.2711 67.332H87.0819C87.1356 67.3321 87.1871 67.3535 87.2251 67.3915C87.2631 67.4295 87.2845 67.481 87.2846 67.5347V67.805C87.2845 67.8587 87.2631 67.9103 87.2251 67.9483C87.1871 67.9863 87.1356 68.0076 87.0819 68.0077Z" fill="#DBC22A"/>
<path d="M86.1758 67.4264L86.166 67.4213C84.4094 66.3124 82.3117 65.4271 79.7532 64.7148L79.7522 64.7143C79.6913 64.6895 79.636 64.6529 79.5894 64.6065C79.5428 64.5602 79.5058 64.5051 79.4806 64.4445C79.4553 64.3838 79.4423 64.3187 79.4424 64.253C79.4424 64.1872 79.4555 64.1222 79.4808 64.0615L80.4085 61.8637C80.4598 61.7425 80.5571 61.6467 80.679 61.5971C80.8009 61.5476 80.9375 61.5484 81.0588 61.5994C83.3136 62.2229 85.4777 63.1366 87.497 64.3177L87.4979 64.318C87.617 64.3704 87.7107 64.4676 87.7586 64.5886C87.8065 64.7096 87.8048 64.8446 87.7539 64.9643L86.8261 67.1621C86.7748 67.2833 86.6775 67.3792 86.5556 67.4287C86.4337 67.4783 86.2971 67.4774 86.1758 67.4264Z" fill="white"/>
<path d="M86.1758 67.4264L86.166 67.4213C84.4094 66.3124 82.3117 65.4271 79.7532 64.7148L79.7522 64.7143C79.6913 64.6895 79.636 64.6529 79.5894 64.6065C79.5428 64.5602 79.5058 64.5051 79.4806 64.4445C79.4553 64.3838 79.4423 64.3187 79.4424 64.253C79.4424 64.1872 79.4555 64.1222 79.4808 64.0615L80.4085 61.8637C80.4598 61.7425 80.5571 61.6467 80.679 61.5971C80.8009 61.5476 80.9375 61.5484 81.0588 61.5994C83.3136 62.2229 85.4777 63.1366 87.497 64.3177L87.4979 64.318C87.617 64.3704 87.7107 64.4676 87.7586 64.5886C87.8065 64.7096 87.8048 64.8446 87.7539 64.9643L86.8261 67.1621C86.7748 67.2833 86.6775 67.3792 86.5556 67.4287C86.4337 67.4783 86.2971 67.4774 86.1758 67.4264ZM84.2281 62.8382C83.1836 62.3951 82.1101 62.0238 81.015 61.7269C80.971 61.7075 80.9235 61.697 80.8754 61.696C80.8272 61.695 80.7794 61.7036 80.7346 61.7212C80.6897 61.7388 80.6489 61.7651 80.6143 61.7986C80.5797 61.832 80.552 61.872 80.533 61.9163L79.6052 64.1141C79.5681 64.2023 79.5675 64.3018 79.6035 64.3905C79.6396 64.4792 79.7094 64.55 79.7976 64.5874C82.3585 65.2998 84.4663 66.1895 86.2332 67.3039C86.3212 67.3394 86.4196 67.3389 86.5072 67.3026C86.5948 67.2662 86.6646 67.1969 86.7016 67.1096L87.6294 64.9118C87.6665 64.8235 87.6671 64.7241 87.6311 64.6353C87.595 64.5466 87.5252 64.4758 87.437 64.4384C86.4013 63.8396 85.3296 63.3052 84.2281 62.8382Z" fill="#DBC22A"/>
<path d="M83.6618 65.3538C84.1842 65.3538 84.6077 64.9303 84.6077 64.4079C84.6077 63.8854 84.1842 63.4619 83.6618 63.4619C83.1393 63.4619 82.7158 63.8854 82.7158 64.4079C82.7158 64.9303 83.1393 65.3538 83.6618 65.3538Z" fill="#DBC22A"/>
<path d="M81.613 63.0064L80.866 62.6911C80.8165 62.6702 80.7773 62.6304 80.7571 62.5806C80.7369 62.5309 80.7372 62.4751 80.7581 62.4255L80.8632 62.1765C80.8841 62.1271 80.9239 62.0879 80.9737 62.0677C81.0234 62.0474 81.0792 62.0478 81.1288 62.0686L81.8757 62.3839C81.9252 62.4049 81.9644 62.4446 81.9846 62.4944C82.0048 62.5442 82.0045 62.6 81.9837 62.6495L81.8786 62.8985C81.8576 62.948 81.8179 62.9872 81.7681 63.0074C81.7183 63.0276 81.6625 63.0273 81.613 63.0064Z" fill="#DBC22A"/>
<path d="M86.1061 66.9566L85.3592 66.6413C85.3097 66.6204 85.2705 66.5806 85.2503 66.5308C85.23 66.481 85.2304 66.4253 85.2512 66.3757L85.3563 66.1267C85.3773 66.0772 85.417 66.0381 85.4668 66.0179C85.5166 65.9976 85.5724 65.998 85.6219 66.0188L86.3689 66.3341C86.4184 66.3551 86.4575 66.3948 86.4778 66.4446C86.498 66.4944 86.4977 66.5502 86.4768 66.5997L86.3717 66.8487C86.3508 66.8982 86.311 66.9373 86.2612 66.9576C86.2115 66.9778 86.1557 66.9775 86.1061 66.9566Z" fill="#DBC22A"/>
<path d="M88.0373 66.1202C88.2075 66.0177 88.3532 65.8792 88.4641 65.7144C88.575 65.5495 88.6484 65.3624 88.6791 65.1661C88.7099 64.9699 88.6972 64.7692 88.642 64.5784C88.5868 64.3876 88.4905 64.2111 88.3597 64.0616L90.7528 59.8672L88.2486 60.029L86.36 63.9872C86.1233 64.2235 85.9815 64.5384 85.9614 64.8723C85.9414 65.2062 86.0445 65.5358 86.2513 65.7987C86.458 66.0616 86.754 66.2396 87.0832 66.2988C87.4124 66.358 87.7519 66.2945 88.0373 66.1202Z" fill="#FFB6B6"/>
<path d="M106.459 94.7145H104.802L104.014 88.3242L106.459 88.3244L106.459 94.7145Z" fill="#FFB6B6"/>
<path d="M106.881 96.3198L101.539 96.3196V96.2521C101.539 95.7006 101.758 95.1718 102.148 94.7819C102.538 94.3919 103.067 94.1729 103.618 94.1729H103.618L106.881 94.173L106.881 96.3198Z" fill="#2F2E41"/>
<path d="M95.108 94.7145H93.4512L92.6631 88.3242L95.1082 88.3244L95.108 94.7145Z" fill="#FFB6B6"/>
<path d="M95.5305 96.3198L90.1885 96.3196V96.2521C90.1885 95.7006 90.4076 95.1718 90.7975 94.7819C91.1875 94.3919 91.7163 94.1729 92.2677 94.1729H92.2679L95.5306 94.173L95.5305 96.3198Z" fill="#2F2E41"/>
<path d="M90.8471 60.0479C90.8471 60.0479 90.3914 66.5372 91.2889 69.8054C92.1864 73.0737 92.3467 92.838 92.3467 92.838H95.355L97.9624 65.9346L103.974 92.9329L106.839 92.7358L105.268 60.922L90.8471 60.0479Z" fill="#2F2E41"/>
<path d="M104.025 38.1724L101.725 36.4941L97.8714 37.3333L96.8282 39.8119L95.0307 40.7032C94.4397 40.9962 93.9287 41.4284 93.5415 41.9625C93.1544 42.4967 92.9027 43.1168 92.8082 43.7697L90.2402 61.5028L105.268 60.9219L107.087 40.0377C107.106 39.8195 107.081 39.5998 107.014 39.3915C106.947 39.1831 106.838 38.9904 106.695 38.8248C106.552 38.6591 106.377 38.5239 106.18 38.4271C105.984 38.3302 105.77 38.2738 105.551 38.2611L104.025 38.1724Z" fill="#E4E4E4"/>
<path d="M94.0799 42.0879L92.6919 43.959L86.6465 62.3975L89.4803 63.5321L94.0177 54.9401L94.0799 42.0879Z" fill="#E4E4E4"/>
<path d="M99.0488 35.4102C101.589 35.4102 103.648 33.3509 103.648 30.8106C103.648 28.2703 101.589 26.2109 99.0488 26.2109C96.5085 26.2109 94.4492 28.2703 94.4492 30.8106C94.4492 33.3509 96.5085 35.4102 99.0488 35.4102Z" fill="#2F2E41"/>
<path d="M99.1114 35.6182C100.965 35.6182 102.468 34.1155 102.468 32.2618C102.468 30.408 100.965 28.9053 99.1114 28.9053C97.2576 28.9053 95.7549 30.408 95.7549 32.2618C95.7549 34.1155 97.2576 35.6182 99.1114 35.6182Z" fill="#FFB9B9"/>
<path d="M101.66 31.8265C99.5225 31.0556 98.7993 30.582 96.4386 31.8265L95.5684 28.3457H102.53L101.66 31.8265Z" fill="#2F2E41"/>
<path d="M98.676 28.8423C100.118 28.8423 101.287 27.6735 101.287 26.2317C101.287 24.7899 100.118 23.6211 98.676 23.6211C97.2342 23.6211 96.0654 24.7899 96.0654 26.2317C96.0654 27.6735 97.2342 28.8423 98.676 28.8423Z" fill="#2F2E41"/>
<path d="M95.568 25.6106C95.5683 24.9402 95.8267 24.2956 96.2897 23.8107C96.7526 23.3257 97.3845 23.0377 98.0542 23.0063C98.0128 23.0043 97.9719 23 97.9299 23C97.2376 23 96.5735 23.275 96.084 23.7646C95.5944 24.2542 95.3193 24.9182 95.3193 25.6106C95.3193 26.303 95.5944 26.967 96.084 27.4566C96.5735 27.9461 97.2376 28.2212 97.9299 28.2212C97.9719 28.2212 98.0128 28.2169 98.0542 28.2149C97.3845 28.1835 96.7526 27.8955 96.2897 27.4105C95.8267 26.9256 95.5683 26.281 95.568 25.6106Z" fill="#2F2E41"/>
<path opacity="0.1" d="M105.147 43.1504L104.211 52.4862L100.903 59.0044L105.147 43.1504Z" fill="black"/>
<path d="M6.1487 71.8838H5.33789V72.5595H6.1487V71.8838Z" fill="#F0F0F0"/>
<path d="M82.8414 72.5595H81.2437V71.8838H82.8414V72.5595ZM79.646 72.5595H78.0481V71.8838H79.646V72.5595ZM76.4504 72.5595H74.8526V71.8838H76.4504V72.5595ZM73.2549 72.5595H71.657V71.8838H73.2549V72.5595ZM70.0593 72.5595H68.4616V71.8838H70.0593V72.5595ZM66.8637 72.5595H65.266V71.8838H66.8637L66.8637 72.5595ZM63.6682 72.5595H62.0705V71.8838H63.6682V72.5595ZM60.4726 72.5595H58.8749V71.8838H60.4726V72.5595ZM57.2771 72.5595H55.6794V71.8838H57.2771V72.5595ZM54.0815 72.5595H52.4837V71.8838H54.0816L54.0815 72.5595ZM50.886 72.5595H49.2882V71.8838H50.886L50.886 72.5595ZM47.6905 72.5595H46.0927V71.8838H47.6905L47.6905 72.5595ZM44.4949 72.5595H42.8971V71.8838H44.4949L44.4949 72.5595ZM41.2993 72.5595H39.7016V71.8838H41.2993L41.2993 72.5595ZM38.1038 72.5595H36.5061V71.8838H38.1038L38.1038 72.5595ZM34.9082 72.5595H33.3105V71.8838H34.9083L34.9082 72.5595ZM31.7127 72.5595H30.1149V71.8838H31.7127L31.7127 72.5595ZM28.5172 72.5595H26.9194V71.8838H28.5172L28.5172 72.5595ZM25.3216 72.5595H23.7239V71.8838H25.3216L25.3216 72.5595ZM22.126 72.5595H20.5283V71.8838H22.126L22.126 72.5595ZM18.9305 72.5595H17.3328V71.8838H18.9305L18.9305 72.5595ZM15.7349 72.5595H14.1372V71.8838H15.735L15.7349 72.5595ZM12.5394 72.5595H10.9416V71.8838H12.5394L12.5394 72.5595ZM9.34385 72.5595H7.74609V71.8838H9.3439L9.34385 72.5595Z" fill="#F0F0F0"/>
<path d="M6.1487 54.7207H5.33789V55.3964H6.1487V54.7207Z" fill="#F0F0F0"/>
<path d="M82.8414 55.3964H81.2437V54.7207H82.8414V55.3964ZM79.646 55.3964H78.0481V54.7207H79.646V55.3964ZM76.4504 55.3964H74.8526V54.7207H76.4504V55.3964ZM73.2549 55.3964H71.657V54.7207H73.2549V55.3964ZM70.0593 55.3964H68.4616V54.7207H70.0593V55.3964ZM66.8637 55.3964H65.266V54.7207H66.8637L66.8637 55.3964ZM63.6682 55.3964H62.0705V54.7207H63.6682V55.3964ZM60.4726 55.3964H58.8749V54.7207H60.4726V55.3964ZM57.2771 55.3964H55.6794V54.7207H57.2771V55.3964ZM54.0815 55.3964H52.4837V54.7207H54.0816L54.0815 55.3964ZM50.886 55.3964H49.2882V54.7207H50.886L50.886 55.3964ZM47.6905 55.3964H46.0927V54.7207H47.6905L47.6905 55.3964ZM44.4949 55.3964H42.8971V54.7207H44.4949L44.4949 55.3964ZM41.2993 55.3964H39.7016V54.7207H41.2993L41.2993 55.3964ZM38.1038 55.3964H36.5061V54.7207H38.1038L38.1038 55.3964ZM34.9082 55.3964H33.3105V54.7207H34.9083L34.9082 55.3964ZM31.7127 55.3964H30.1149V54.7207H31.7127L31.7127 55.3964ZM28.5172 55.3964H26.9194V54.7207H28.5172L28.5172 55.3964ZM25.3216 55.3964H23.7239V54.7207H25.3216L25.3216 55.3964ZM22.126 55.3964H20.5283V54.7207H22.126L22.126 55.3964ZM18.9305 55.3964H17.3328V54.7207H18.9305L18.9305 55.3964ZM15.7349 55.3964H14.1372V54.7207H15.735L15.7349 55.3964ZM12.5394 55.3964H10.9416V54.7207H12.5394L12.5394 55.3964ZM9.34385 55.3964H7.74609V54.7207H9.3439L9.34385 55.3964Z" fill="#F0F0F0"/>
<path d="M6.1487 37.5586H5.33789V38.2343H6.1487V37.5586Z" fill="#F0F0F0"/>
<path d="M82.8414 38.2343H81.2437V37.5586H82.8414V38.2343ZM79.646 38.2343H78.0481V37.5586H79.646V38.2343ZM76.4504 38.2343H74.8526V37.5586H76.4504V38.2343ZM73.2549 38.2343H71.657V37.5586H73.2549V38.2343ZM70.0593 38.2343H68.4616V37.5586H70.0593V38.2343ZM66.8637 38.2343H65.266V37.5586H66.8637L66.8637 38.2343ZM63.6682 38.2343H62.0705V37.5586H63.6682V38.2343ZM60.4726 38.2343H58.8749V37.5586H60.4726V38.2343ZM57.2771 38.2343H55.6794V37.5586H57.2771V38.2343ZM54.0815 38.2343H52.4837V37.5586H54.0816L54.0815 38.2343ZM50.886 38.2343H49.2882V37.5586H50.886L50.886 38.2343ZM47.6905 38.2343H46.0927V37.5586H47.6905L47.6905 38.2343ZM44.4949 38.2343H42.8971V37.5586H44.4949L44.4949 38.2343ZM41.2993 38.2343H39.7016V37.5586H41.2993L41.2993 38.2343ZM38.1038 38.2343H36.5061V37.5586H38.1038L38.1038 38.2343ZM34.9082 38.2343H33.3105V37.5586H34.9083L34.9082 38.2343ZM31.7127 38.2343H30.1149V37.5586H31.7127L31.7127 38.2343ZM28.5172 38.2343H26.9194V37.5586H28.5172L28.5172 38.2343ZM25.3216 38.2343H23.7239V37.5586H25.3216L25.3216 38.2343ZM22.126 38.2343H20.5283V37.5586H22.126L22.126 38.2343ZM18.9305 38.2343H17.3328V37.5586H18.9305L18.9305 38.2343ZM15.7349 38.2343H14.1372V37.5586H15.735L15.7349 38.2343ZM12.5394 38.2343H10.9416V37.5586H12.5394L12.5394 38.2343ZM9.34385 38.2343H7.74609V37.5586H9.3439L9.34385 38.2343Z" fill="#F0F0F0"/>
<path d="M31.7564 72.0859H25.1348V96.4103H31.7564V72.0859Z" fill="#3F3D56"/>
<path d="M32.9732 72.0859H26.3516V96.4103H32.9732V72.0859Z" fill="#DBC22A"/>
<path d="M47.4322 54.9238H40.8105V96.4103H47.4322V54.9238Z" fill="#3F3D56"/>
<path d="M48.649 54.9238H42.0273V96.4103H48.649V54.9238Z" fill="#DBC22A"/>
<path d="M63.1079 37.7617H56.4863V96.4104H63.1079V37.7617Z" fill="#3F3D56"/>
<path d="M64.3247 37.7617H57.7031V96.4104H64.3247V37.7617Z" fill="#DBC22A"/>
<path d="M5.4058 39.5186C6.3014 39.5186 7.02742 38.7926 7.02742 37.897C7.02742 37.0014 6.3014 36.2754 5.4058 36.2754C4.5102 36.2754 3.78418 37.0014 3.78418 37.897C3.78418 38.7926 4.5102 39.5186 5.4058 39.5186Z" fill="#F0F0F0"/>
<path d="M5.4058 56.6807C6.3014 56.6807 7.02742 55.9547 7.02742 55.0591C7.02742 54.1635 6.3014 53.4375 5.4058 53.4375C4.5102 53.4375 3.78418 54.1635 3.78418 55.0591C3.78418 55.9547 4.5102 56.6807 5.4058 56.6807Z" fill="#F0F0F0"/>
<path d="M5.4058 73.8429C6.3014 73.8429 7.02742 73.1168 7.02742 72.2212C7.02742 71.3256 6.3014 70.5996 5.4058 70.5996C4.5102 70.5996 3.78418 71.3256 3.78418 72.2212C3.78418 73.1168 4.5102 73.8429 5.4058 73.8429Z" fill="#F0F0F0"/>
<path d="M120 96.2588H0V96.5616H120V96.2588Z" fill="#3F3D56"/>
<path d="M101.248 65.4401L101.237 65.4391C99.1875 65.1007 96.9107 65.1008 94.2765 65.4395H94.2754C94.2097 65.4403 94.1445 65.4281 94.0835 65.4035C94.0226 65.379 93.9671 65.3426 93.9202 65.2965C93.8734 65.2504 93.8361 65.1955 93.8106 65.135C93.7851 65.0744 93.7718 65.0094 93.7715 64.9437V62.5581C93.7716 62.4265 93.824 62.3003 93.917 62.2072C94.0101 62.1142 94.1363 62.0618 94.2679 62.0617C96.5876 61.7592 98.9367 61.7594 101.256 62.0622H101.257C101.387 62.0641 101.512 62.1173 101.603 62.2101C101.694 62.3029 101.745 62.4279 101.744 62.5581V64.9437C101.744 65.0753 101.692 65.2014 101.599 65.2945C101.506 65.3876 101.38 65.4399 101.248 65.4401Z" fill="white"/>
<path d="M101.248 65.4401L101.237 65.4391C99.1875 65.1007 96.9107 65.1008 94.2765 65.4395H94.2754C94.2097 65.4403 94.1445 65.4281 94.0835 65.4035C94.0226 65.379 93.9671 65.3426 93.9202 65.2965C93.8734 65.2504 93.8361 65.1955 93.8106 65.135C93.7851 65.0744 93.7718 65.0094 93.7715 64.9437V62.5581C93.7716 62.4265 93.824 62.3003 93.917 62.2072C94.0101 62.1142 94.1363 62.0618 94.2679 62.0617C96.5876 61.7592 98.9367 61.7594 101.256 62.0622H101.257C101.387 62.0641 101.512 62.1173 101.603 62.2101C101.694 62.3029 101.745 62.4279 101.744 62.5581V64.9437C101.744 65.0753 101.692 65.2014 101.599 65.2945C101.506 65.3876 101.38 65.4399 101.248 65.4401ZM97.6694 61.9704C96.5348 61.9684 95.4014 62.0438 94.2771 62.1961C94.2289 62.1954 94.1811 62.2042 94.1364 62.222C94.0917 62.2398 94.0509 62.2663 94.0165 62.2999C93.982 62.3336 93.9546 62.3737 93.9357 62.418C93.9169 62.4623 93.907 62.5099 93.9066 62.5581V64.9437C93.9067 65.0394 93.9448 65.1313 94.0125 65.199C94.0803 65.2667 94.1721 65.3048 94.2679 65.3049C96.9043 64.9654 99.1921 64.9653 101.253 65.3048C101.348 65.3034 101.439 65.2647 101.505 65.1971C101.572 65.1295 101.609 65.0385 101.609 64.9437V62.5581C101.609 62.4623 101.571 62.3705 101.503 62.3027C101.436 62.235 101.344 62.1969 101.248 62.1968C100.061 62.0479 98.8658 61.9723 97.6694 61.9704Z" fill="#DBC22A"/>
<path d="M97.7584 64.5833C98.2809 64.5833 98.7044 64.1598 98.7044 63.6374C98.7044 63.1149 98.2809 62.6914 97.7584 62.6914C97.236 62.6914 96.8125 63.1149 96.8125 63.6374C96.8125 64.1598 97.236 64.5833 97.7584 64.5833Z" fill="#DBC22A"/>
<path d="M95.326 63.1425H94.5152C94.4615 63.1424 94.4099 63.121 94.3719 63.083C94.3339 63.045 94.3126 62.9935 94.3125 62.9398V62.6695C94.3126 62.6158 94.3339 62.5642 94.3719 62.5262C94.4099 62.4882 94.4615 62.4669 94.5152 62.4668H95.326C95.3798 62.4669 95.4313 62.4882 95.4693 62.5262C95.5073 62.5642 95.5287 62.6158 95.5287 62.6695V62.9398C95.5287 62.9935 95.5073 63.045 95.4693 63.083C95.4313 63.121 95.3798 63.1424 95.326 63.1425Z" fill="#DBC22A"/>
<path d="M101.001 65.0351H100.19C100.136 65.035 100.085 65.0136 100.047 64.9756C100.009 64.9376 99.9874 64.8861 99.9873 64.8323V64.5621C99.9874 64.5083 100.009 64.4568 100.047 64.4188C100.085 64.3808 100.136 64.3594 100.19 64.3594H101.001C101.055 64.3594 101.106 64.3808 101.144 64.4188C101.182 64.4568 101.203 64.5083 101.204 64.5621V64.8323C101.203 64.8861 101.182 64.9376 101.144 64.9756C101.106 65.0136 101.055 65.035 101.001 65.0351Z" fill="#DBC22A"/>
<path d="M99.7289 62.3133C99.715 62.1151 99.7447 61.9163 99.816 61.7309C99.8872 61.5454 99.9983 61.3779 100.141 61.24C100.284 61.1021 100.456 60.9972 100.644 60.9328C100.832 60.8684 101.031 60.8459 101.229 60.867L103.288 56.499L104.594 58.6419L102.438 62.4613C102.381 62.7908 102.205 63.0878 101.943 63.2959C101.681 63.5041 101.352 63.609 101.018 63.5908C100.684 63.5725 100.368 63.4324 100.131 63.1969C99.8931 62.9615 99.7502 62.6471 99.7289 62.3133Z" fill="#FFB6B6"/>
<path d="M105.328 39.4649L106.176 38.3589C106.176 38.3589 108.242 37.9381 108.593 40.7761L108.372 53.3931L103.844 60.5196L100.903 59.7688L104.748 51.3029L105.328 39.4649Z" fill="#E4E4E4"/>
</g>
<defs>
<clipPath id="clip0_124_1217">
<rect width="120" height="73.5618" fill="white" transform="translate(0 23)"/>
</clipPath>
</defs>
</svg>
