<svg width="120" height="120" viewBox="0 0 120 120" fill="none" xmlns="http://www.w3.org/2000/svg">
<circle cx="60" cy="60" r="60" fill="#F4F6F8"/>
<g clip-path="url(#clip0_126_5275)">
<path d="M56.0645 58.6254V82.6957M56.0645 58.6254L36.4471 48.6244M56.0645 58.6254L65.4992 53.8154M56.0645 82.6957C55.624 82.6957 55.1836 82.5922 54.778 82.3851L37.626 73.641C36.631 73.1342 36 72.0844 36 70.9359V50.2299C36 49.6508 36.1604 49.0971 36.4471 48.6244M56.0645 82.6957C56.5118 82.6954 56.9527 82.589 57.3509 82.3851L74.502 73.641C75.498 73.1342 76.1279 72.0844 76.1279 70.9359V62.2104M36.4471 48.6244C36.7187 48.1781 37.1025 47.8041 37.5713 47.5531L54.7224 38.3392C54.7271 38.3373 54.7309 38.3344 54.7355 38.3324C55.574 37.8871 56.569 37.889 57.4056 38.3392L65.5575 42.7185" stroke="#B5B5B5" stroke-width="2" stroke-miterlimit="10" stroke-linecap="round" stroke-linejoin="round"/>
<path d="M70.5705 38.6654C71.7059 38.2354 72.9368 38 74.2229 38C79.9184 38 84.5355 42.6172 84.5355 48.3127C84.5355 54.0082 79.9184 58.6254 74.2229 58.6254C68.5273 58.6254 63.9102 54.0082 63.9102 48.3127C63.9102 45.1977 65.2913 42.4052 67.4745 40.5143" stroke="#B5B5B5" stroke-width="2" stroke-miterlimit="10" stroke-linecap="round" stroke-linejoin="round"/>
<path d="M78.7308 50.6093L76.4343 48.3127L78.7308 46.0161C79.3415 45.4054 79.3415 44.4153 78.7308 43.8047C78.1202 43.194 77.1301 43.194 76.5194 43.8047L74.2228 46.1012L71.9262 43.8047C71.3156 43.194 70.3255 43.194 69.7148 43.8047C69.1042 44.4153 69.1042 45.4054 69.7148 46.0161L72.0114 48.3127L69.7148 50.6093C69.1042 51.2199 69.1042 52.21 69.7148 52.8207C70.3255 53.4313 71.3156 53.4313 71.9262 52.8207L74.2228 50.5241L76.5194 52.8207C77.1301 53.4313 78.1202 53.4313 78.7308 52.8207C79.3416 52.21 79.3416 51.2199 78.7308 50.6093Z" stroke="#B5B5B5" stroke-width="2" stroke-miterlimit="10" stroke-linecap="round" stroke-linejoin="round"/>
</g>
<defs>
<clipPath id="clip0_126_5275">
<rect width="50" height="50" fill="white" transform="translate(35 35)"/>
</clipPath>
</defs>
</svg>
