<svg width="120" height="120" viewBox="0 0 120 120" fill="none" xmlns="http://www.w3.org/2000/svg">
<circle cx="60" cy="60" r="60" fill="#F4F6F8"/>
<path d="M72.7629 64.7269C69.2876 64.7269 66.4604 67.5541 66.4604 71.0294C66.4604 74.5047 69.2876 77.3319 72.7629 77.3319C76.2388 77.3319 79.0654 74.5047 79.0654 71.0294C79.0654 67.5541 76.2382 64.7269 72.7629 64.7269ZM72.7629 74.1807C71.025 74.1807 69.6116 72.7673 69.6116 71.0294C69.6116 69.2915 71.025 67.8781 72.7629 67.8781C74.5008 67.8781 75.9142 69.2915 75.9142 71.0294C75.9142 72.7674 74.5008 74.1807 72.7629 74.1807ZM51.2293 64.7269C47.754 64.7269 44.9268 67.5541 44.9268 71.0294C44.9268 74.5047 47.754 77.3319 51.2293 77.3319C54.7046 77.3319 57.5318 74.5047 57.5318 71.0294C57.5318 67.5541 54.7046 64.7269 51.2293 64.7269ZM51.2293 74.1807C49.4914 74.1807 48.078 72.7673 48.078 71.0294C48.078 69.2915 49.4914 67.8781 51.2293 67.8781C52.9667 67.8781 54.3806 69.2915 54.3806 71.0294C54.3806 72.7674 52.9672 74.1807 51.2293 74.1807ZM77.0071 46.687C76.8758 46.4261 76.6746 46.2069 76.426 46.0537C76.1774 45.9005 75.8911 45.8193 75.599 45.8193H67.3007V48.9706H74.6273L78.9178 57.5042L81.734 56.0882L77.0071 46.687Z" fill="#B5B5B5"/>
<path d="M56.1135 69.5063H68.0357V72.6575H56.1135V69.5063ZM46.5021 69.5063H41.0399C40.1696 69.5063 39.4644 70.2116 39.4644 71.0818C39.4644 71.9521 40.1697 72.6574 41.0399 72.6574H46.5021C47.3725 72.6574 48.0777 71.9521 48.0777 71.0818C48.0777 70.2115 47.3724 69.5063 46.5021 69.5063ZM84.6691 59.8738L81.5699 55.8822C81.4228 55.6925 81.2341 55.5389 81.0185 55.4333C80.8028 55.3277 80.5658 55.2728 80.3257 55.2729H68.8761V44.2436C68.8761 43.3732 68.1707 42.668 67.3005 42.668H41.0399C40.1696 42.668 39.4644 43.3733 39.4644 44.2436C39.4644 45.1138 40.1697 45.8191 41.0399 45.8191H65.7248V56.8485C65.7248 57.7188 66.4302 58.4241 67.3004 58.4241H79.5541L81.8487 61.38V69.5061H77.4895C76.6191 69.5061 75.9139 70.2114 75.9139 71.0816C75.9139 71.952 76.6192 72.6572 77.4895 72.6572H83.4243C84.2946 72.6572 84.9999 71.9519 85 71.0816V60.8402C85 60.4904 84.8834 60.1501 84.6691 59.8738ZM46.3971 61.523H39.1491C38.2788 61.523 37.5735 62.2284 37.5735 63.0986C37.5735 63.9689 38.2789 64.6742 39.1491 64.6742H46.397C47.2673 64.6742 47.9726 63.9688 47.9726 63.0986C47.9727 62.2284 47.2673 61.523 46.3971 61.523ZM50.021 55.3255H36.5756C35.7054 55.3255 35 56.0309 35 56.9012C35 57.7715 35.7054 58.4768 36.5756 58.4768H50.021C50.8913 58.4768 51.5966 57.7714 51.5966 56.9012C51.5966 56.031 50.8913 55.3255 50.021 55.3255Z" fill="#B5B5B5"/>
<path d="M52.5942 49.1279H39.1488C38.2785 49.1279 37.5732 49.8333 37.5732 50.7035C37.5732 51.5738 38.2786 52.2791 39.1488 52.2791H52.5942C53.4646 52.2791 54.1698 51.5737 54.1698 50.7035C54.1699 49.8333 53.4646 49.1279 52.5942 49.1279Z" fill="#B5B5B5"/>
</svg>
