<svg width="120" height="120" viewBox="0 0 120 120" fill="none" xmlns="http://www.w3.org/2000/svg">
<circle cx="60" cy="60" r="60" fill="#F4F6F8"/>
<g clip-path="url(#clip0_126_5109)">
<path d="M60.0912 55.4745L61.237 56.9903C61.6962 57.707 62.4562 58.2478 63.3337 58.2461C64.302 58.2911 65.1304 57.6495 65.6254 56.8603L66.867 55.1903C68.757 52.5961 70.957 49.2886 72.7745 46.6261C73.1479 45.9845 73.7579 45.4203 73.8962 44.587C74.2912 42.537 71.6829 41.1278 70.2145 42.5778C69.702 43.1445 69.367 43.7861 68.9529 44.3545C67.0887 47.072 65.1862 49.8353 63.2462 52.5003L62.3529 51.3653L61.772 50.6136C60.0429 48.0228 56.4304 50.7861 58.3845 53.1928C58.7337 53.6895 59.7312 54.962 60.092 55.4761L60.0912 55.4745ZM59.2737 50.6978C59.4581 50.5489 59.6814 50.456 59.917 50.4303C60.1526 50.4046 60.3907 50.4471 60.6029 50.5528C60.9829 50.7245 61.4929 51.477 61.792 51.812L62.9912 53.2853C63.0239 53.3273 63.066 53.3611 63.1141 53.3839C63.1623 53.4066 63.2151 53.4177 63.2683 53.4162C63.3216 53.4148 63.3737 53.4008 63.4205 53.3755C63.4673 53.3501 63.5075 53.3141 63.5379 53.2703C65.1104 50.9845 66.787 48.7728 68.412 46.5245C68.8129 45.9878 69.897 44.5386 70.2854 44.027C70.4929 43.7636 70.7154 43.4245 70.8729 43.2953C71.6537 42.5786 72.9804 43.3595 72.712 44.3628C72.6579 44.7136 71.917 45.5153 71.6954 45.8536L70.442 47.5153C68.5037 50.1145 66.1187 53.2561 64.332 55.9353C64.1037 56.2911 63.8195 56.7636 63.3337 56.7528C62.8987 56.8045 62.5604 56.4336 62.3204 56.1228L61.0929 54.672L59.8595 53.2261C59.707 53.0378 59.1145 52.3845 59.0045 52.2061C58.7045 51.7295 58.8154 51.057 59.2745 50.6961L59.2737 50.6978Z" fill="#B5B5B5"/>
<path d="M71.7711 71.3908C72.8886 71.3633 75.7702 71.2974 76.8536 71.2724C77.4227 71.2349 78.0119 71.2924 78.6127 71.2041C78.9571 71.1409 79.2799 70.9917 79.5511 70.7702C79.8222 70.5487 80.0329 70.2622 80.1636 69.9374C80.8886 66.8933 82.0886 61.4183 82.8552 58.3274C83.3619 56.1266 83.9377 53.9408 84.4969 51.7516C85.0653 50.3199 84.1727 48.6716 82.5744 48.5783L79.8944 48.4541C79.4669 36.3599 64.5603 30.5599 56.0119 39.3441C53.5494 41.7866 52.2744 45.1124 52.1502 48.4783L47.0469 48.3433L46.7144 46.8874C46.5561 46.2016 46.1261 44.3058 45.9744 43.6524C45.6952 41.6416 44.0361 39.8541 41.9861 39.6141C40.6511 39.5058 38.8486 39.6166 37.4994 39.6008C35.3794 39.5958 34.6752 42.5208 36.5461 43.4774C37.2436 43.8549 38.1952 43.6716 38.9044 43.7058L41.1169 43.6974C41.5044 43.6708 41.7161 43.7608 41.7969 44.1108L41.8569 44.3808L41.9777 44.9208C43.0044 49.3949 46.1494 63.9833 47.1702 68.6983C47.4727 69.9991 47.7536 71.7741 48.1294 73.0624C48.6209 74.5716 49.6015 75.8739 50.9161 76.7633C52.0286 77.5499 53.4527 77.9416 54.8077 77.9899C54.1652 78.6574 53.7502 79.6033 53.7677 80.8333C54.0636 85.7183 61.2644 85.7691 61.5802 80.8333C61.6019 79.6483 61.2344 78.7274 60.6478 78.0666L70.4769 78.1716C69.9294 78.8258 69.5852 79.7116 69.6011 80.8333C69.8969 85.7183 77.0977 85.7691 77.4136 80.8333C77.4336 79.7449 77.1211 78.8824 76.6161 78.2366L77.5002 78.2458C80.9244 78.0983 80.5886 73.1666 77.2036 73.3766C70.7261 73.3166 62.6327 73.3258 56.1844 73.3908L55.0786 73.3999C53.7636 73.4999 52.8186 72.7124 52.3819 71.6066C58.6611 71.7974 65.5211 71.5133 71.7711 71.3908ZM70.4002 80.8333C70.7069 77.3391 75.5669 77.4283 75.9211 80.8333C76.0261 84.7233 70.3527 84.7458 70.4002 80.8333ZM52.0086 70.0741L49.8877 60.7833L57.9078 60.3008C58.5969 60.7962 59.3306 61.2263 60.0994 61.5858L60.9078 70.0249C57.9414 69.9775 54.9743 69.9944 52.0086 70.0741ZM70.3011 62.1666L69.2419 70.2116C66.9105 70.1459 64.5788 70.0914 62.2469 70.0483L61.1686 62.0366C64.1711 63.1466 67.3911 63.1258 70.3019 62.1674L70.3011 62.1666ZM79.8586 68.0674C79.4977 69.4866 79.5527 70.6191 77.7003 70.4133C75.4314 70.3735 73.1627 70.321 70.8944 70.2558L71.7494 61.5924C72.5386 61.2341 73.2952 60.8066 74.0086 60.3099L81.5811 60.6549C81.2502 62.1024 80.9286 63.5049 80.6528 64.7733L79.8586 68.0674ZM83.6644 50.8158C83.2336 53.3416 82.5544 56.3883 81.8836 59.3299L74.8828 59.6483C77.6619 57.3749 79.6019 54.0066 79.8736 49.8758C80.7694 49.8291 81.6727 49.7916 82.5361 49.7599C83.1052 49.7233 83.6519 50.2299 83.6644 50.8158ZM56.7994 40.1324C64.8319 32.3849 78.2277 38.0841 78.4211 49.1666C78.4498 50.5692 78.2476 51.967 77.8228 53.3041C77.3144 52.6933 76.5444 52.0274 76.3311 51.9941C75.3778 51.9324 76.7761 53.4524 77.5569 54.0649C77.3737 54.523 77.1624 54.9694 76.9244 55.4016C76.2944 54.4166 74.5527 52.7316 74.2736 52.6699C73.0777 52.4083 75.7528 55.2549 76.6178 55.9399C76.3586 56.3649 76.0769 56.7724 75.7719 57.1591C74.9719 55.9041 72.5103 53.4399 72.2169 53.3466C70.9119 52.9308 74.2736 56.5791 75.3978 57.6058C75.0894 57.9616 74.7669 58.3041 74.4227 58.6224C74.0266 58.0937 73.6067 57.5832 73.1644 57.0924C72.5277 56.3741 71.8252 55.6341 71.2577 55.0599C70.6902 54.4858 70.2578 54.0774 70.1603 54.0233C69.3094 53.7858 70.3211 55.1358 71.5952 56.5733C72.3498 57.42 73.131 58.2427 73.9377 59.0399C73.5736 59.3441 73.1936 59.6274 72.7994 59.8899C72.5511 59.4799 72.1352 58.9341 71.6627 58.3724C71.1386 57.7516 70.5527 57.1158 70.0728 56.6308C69.5928 56.1458 69.2178 55.8133 69.1152 55.7958C68.8503 55.7508 68.8027 55.8949 68.9177 56.1433C69.1311 56.5991 69.6527 57.2849 70.2444 57.9866C70.7442 58.5807 71.2677 59.1545 71.8136 59.7066C72.0027 59.8983 72.1702 60.0624 72.3161 60.2008C71.8919 60.4566 71.4511 60.6841 71.0011 60.8916C70.8202 60.5499 70.5169 60.1083 70.1611 59.6533C69.763 59.1472 69.3379 58.6628 68.8877 58.2024C68.4944 57.8058 68.1744 57.5341 68.0711 57.5683C67.8903 57.6274 67.8269 57.7049 67.9077 57.8866C68.1036 58.3249 68.4769 58.8624 68.8952 59.4008C69.2446 59.8513 69.6179 60.2828 70.0136 60.6933L70.1253 60.8074C70.2453 60.9291 70.3519 61.0316 70.4569 61.1308C70.0072 61.3135 69.5479 61.4718 69.0811 61.6049C68.953 61.3735 68.812 61.1496 68.6586 60.9341C68.3602 60.5099 68.0077 60.0808 67.7019 59.7733C67.3961 59.4658 67.1369 59.2799 67.0252 59.3408C66.9978 59.3512 66.9727 59.3669 66.9514 59.3871C66.9301 59.4072 66.9129 59.4314 66.9009 59.4582C66.8889 59.4849 66.8823 59.5138 66.8815 59.5431C66.8807 59.5725 66.8856 59.6017 66.8961 59.6291C67.1321 60.1678 67.4293 60.6775 67.7819 61.1483C67.9511 61.3733 68.1344 61.5874 68.3286 61.7933C64.3786 62.6691 60.0011 61.7358 56.6403 58.3616C51.6419 53.4983 51.7127 44.8716 56.7994 40.1341V40.1324ZM52.1644 49.8541C52.3569 53.1933 53.6844 56.4599 56.1711 58.8283C56.4644 59.1191 56.7652 59.3899 57.0719 59.6474L49.5252 59.1941L47.4219 49.9799L52.1644 49.8541ZM54.5669 80.8333C54.8736 77.3391 59.7336 77.4283 60.0877 80.8333C60.1927 84.7233 54.5194 84.7458 54.5669 80.8333ZM55.0786 74.9333L56.1844 74.9424C61.3494 75.0316 68.6361 74.9683 73.8844 74.9824C74.5836 74.9874 76.5394 74.9466 77.2036 74.9558C78.6019 74.7433 78.8661 76.6141 77.5002 76.7524L59.8003 76.9408L58.8027 76.9516C58.0514 76.7537 57.2606 76.762 56.5136 76.9758L55.3752 76.9883C53.9377 77.0774 52.5986 76.7516 51.4311 75.9883C48.7994 74.4224 48.5736 71.2358 47.9152 68.5333C47.2269 65.4366 43.7094 49.6791 43.1394 46.9299L42.6727 44.7674C42.5294 44.1524 42.4961 43.3441 41.8052 43.0724C41.5619 42.9541 41.2661 42.9691 41.1169 42.9691L38.9044 42.9608C38.3911 42.9183 37.3119 43.0708 36.9011 42.8041C36.3902 42.5391 36.1094 41.9133 36.2611 41.3599C36.3894 40.8041 36.9336 40.3841 37.4994 40.3999C38.2544 40.4149 40.0761 40.4108 40.8177 40.4291C42.9261 40.2391 44.7961 41.7633 45.0227 43.8608C45.1578 44.5133 45.5702 46.4483 45.7061 47.1083C46.3052 49.9549 49.5936 65.5641 50.2677 68.7591C50.4486 69.5699 50.7736 71.2691 50.9852 72.0691C51.4986 73.8091 53.2827 75.0216 55.0786 74.9333Z" fill="#B5B5B5"/>
</g>
<defs>
<clipPath id="clip0_126_5109">
<rect width="50" height="50" fill="white" transform="translate(35 35)"/>
</clipPath>
</defs>
</svg>
