<svg width="120" height="120" viewBox="0 0 120 120" fill="none" xmlns="http://www.w3.org/2000/svg">
<circle cx="60" cy="60" r="60" fill="#F4F6F8"/>
<g clip-path="url(#clip0_124_1291)">
<path opacity="0.1" d="M120 71.0079C120.007 74.4795 119.059 77.8861 117.26 80.8554C117.26 84.4869 115.567 87.7785 112.821 90.1775C112.134 90.7782 111.394 91.3157 110.61 91.7834C110.578 91.8033 110.546 91.8222 110.513 91.8411C110.455 91.8757 110.396 91.9103 110.336 91.946L110.28 91.9785C107.681 93.4272 104.751 94.1795 101.776 94.1624H22.7801C17.3329 94.1624 12.4018 92.2659 8.82906 89.2009C5.25633 86.1359 3.05458 81.8939 3.05458 77.2156C1.05397 74.1349 -0.00732954 70.5388 3.81012e-05 66.8656C3.81012e-05 56.4663 8.31193 48.0359 18.5665 48.0359C18.9294 48.0359 19.2892 48.0485 19.6469 48.0684C26.0812 37.0964 40.5944 29.4453 57.4553 29.4453C67.821 29.4453 77.2962 32.3352 84.5539 37.11C87.3032 35.5559 90.4083 34.7409 93.5665 34.7446C103.819 34.7446 112.133 43.175 112.133 53.5743C112.131 54.2323 112.096 54.8898 112.028 55.5443C114.499 57.2937 116.514 59.6119 117.901 62.3032C119.289 64.9945 120.009 67.98 120 71.0079Z" fill="#DBC22A"/>
<path opacity="0.1" d="M43.322 76.9538C66.0313 76.9538 84.4409 76.4607 84.4409 75.8524C84.4409 75.2441 66.0313 74.751 43.322 74.751C20.6127 74.751 2.20312 75.2441 2.20312 75.8524C2.20312 76.4607 20.6127 76.9538 43.322 76.9538Z" fill="#DBC22A"/>
<g opacity="0.7">
<path d="M28.0074 67.7236H14.8955V74.9614H28.0074V67.7236Z" fill="#65617D"/>
<path opacity="0.1" d="M23.4968 68.9824H19.5107V69.8216H23.4968V68.9824Z" fill="black"/>
<path opacity="0.1" d="M22.9983 69.0869H20.0088V69.7163H22.9983V69.0869Z" fill="black"/>
<path d="M41.3287 67.7236H28.2168V74.9614H41.3287V67.7236Z" fill="#65617D"/>
<path opacity="0.1" d="M36.819 68.9824H32.833V69.8216H36.819V68.9824Z" fill="black"/>
<path opacity="0.1" d="M36.3206 69.0869H33.3311V69.7163H36.3206V69.0869Z" fill="black"/>
<path d="M28.0074 60.2754H14.8955V67.5132H28.0074V60.2754Z" fill="#65617D"/>
<path opacity="0.1" d="M23.4968 61.5342H19.5107V62.3733H23.4968V61.5342Z" fill="black"/>
<path opacity="0.1" d="M22.9983 61.6396H20.0088V62.269H22.9983V61.6396Z" fill="black"/>
<path d="M41.3287 60.2754H28.2168V67.5132H41.3287V60.2754Z" fill="#65617D"/>
<path opacity="0.1" d="M36.819 61.5342H32.833V62.3733H36.819V61.5342Z" fill="black"/>
<path opacity="0.1" d="M36.3206 61.6396H33.3311V62.269H36.3206V61.6396Z" fill="black"/>
<path d="M28.0074 52.7236H14.8955V59.9614H28.0074V52.7236Z" fill="#65617D"/>
<path opacity="0.1" d="M23.4968 53.9824H19.5107V54.8216H23.4968V53.9824Z" fill="black"/>
<path opacity="0.1" d="M22.9983 54.0869H20.0088V54.7163H22.9983V54.0869Z" fill="black"/>
<path d="M41.3287 52.7236H28.2168V59.9614H41.3287V52.7236Z" fill="#65617D"/>
<path opacity="0.1" d="M36.819 53.9824H32.833V54.8216H36.819V53.9824Z" fill="black"/>
<path opacity="0.1" d="M36.3206 54.0869H33.3311V54.7163H36.3206V54.0869Z" fill="black"/>
<path d="M41.3287 45.1709H28.2168V52.4087H41.3287V45.1709Z" fill="#65617D"/>
<path opacity="0.1" d="M36.819 46.4297H32.833V47.2688H36.819V46.4297Z" fill="black"/>
<path opacity="0.1" d="M36.3206 46.5342H33.3311V47.1636H36.3206V46.5342Z" fill="black"/>
</g>
<g opacity="0.7">
<path d="M54.65 67.6182H41.5381V74.8559H54.65V67.6182Z" fill="#65617D"/>
<path opacity="0.1" d="M50.1393 68.877H46.1533V69.7161H50.1393V68.877Z" fill="black"/>
<path opacity="0.1" d="M49.6409 68.9814H46.6514V69.6108H49.6409V68.9814Z" fill="black"/>
<path d="M67.9713 67.6182H54.8594V74.8559H67.9713V67.6182Z" fill="#65617D"/>
<path opacity="0.1" d="M63.4616 68.877H59.4756V69.7161H63.4616V68.877Z" fill="black"/>
<path opacity="0.1" d="M62.9631 68.9814H59.9736V69.6108H62.9631V68.9814Z" fill="black"/>
<path d="M54.65 60.1699H41.5381V67.4077H54.65V60.1699Z" fill="#65617D"/>
<path opacity="0.1" d="M50.1393 61.4287H46.1533V62.2679H50.1393V61.4287Z" fill="black"/>
<path opacity="0.1" d="M49.6409 61.5342H46.6514V62.1636H49.6409V61.5342Z" fill="black"/>
<path d="M67.9713 60.1699H54.8594V67.4077H67.9713V60.1699Z" fill="#65617D"/>
<path opacity="0.1" d="M63.4616 61.4287H59.4756V62.2679H63.4616V61.4287Z" fill="black"/>
<path opacity="0.1" d="M62.9631 61.5342H59.9736V62.1636H62.9631V61.5342Z" fill="black"/>
<path d="M54.65 52.6182H41.5381V59.8559H54.65V52.6182Z" fill="#65617D"/>
<path opacity="0.1" d="M50.1393 53.877H46.1533V54.7161H50.1393V53.877Z" fill="black"/>
<path opacity="0.1" d="M49.6409 53.9814H46.6514V54.6108H49.6409V53.9814Z" fill="black"/>
<path d="M67.9713 52.6182H54.8594V59.8559H67.9713V52.6182Z" fill="#65617D"/>
<path opacity="0.1" d="M63.4616 53.877H59.4756V54.7161H63.4616V53.877Z" fill="black"/>
<path opacity="0.1" d="M62.9631 53.9814H59.9736V54.6108H62.9631V53.9814Z" fill="black"/>
<path d="M67.9713 45.0654H54.8594V52.3032H67.9713V45.0654Z" fill="#65617D"/>
<path opacity="0.1" d="M63.4616 46.3242H59.4756V47.1634H63.4616V46.3242Z" fill="black"/>
<path opacity="0.1" d="M62.9631 46.4287H59.9736V47.0581H62.9631V46.4287Z" fill="black"/>
</g>
<path opacity="0.1" d="M92.1285 25.8543C92.1285 25.8543 83.2974 25.3214 84.3359 31.5102C84.3359 31.5102 84.1261 32.6043 85.1205 33.1004C85.1205 33.1004 85.1362 32.642 86.0268 32.7983C86.3438 32.8509 86.6659 32.8664 86.9866 32.8445C87.4197 32.8146 87.8314 32.6445 88.1593 32.3599C88.1593 32.3599 90.6422 31.334 91.6072 27.2766C91.6072 27.2766 92.3215 26.3913 92.2932 26.1637L90.8027 26.8004C90.8027 26.8004 91.3125 27.8756 90.9076 28.7693C90.9076 28.7693 90.8593 26.8392 90.5729 26.8812C90.5152 26.8906 89.7988 27.2536 89.7988 27.2536C89.7988 27.2536 90.6747 29.126 90.0138 30.4875C90.0138 30.4875 90.2645 28.1798 89.525 27.3889L88.4761 28.0015C88.4761 28.0015 89.4999 29.9357 88.8055 31.5144C88.8055 31.5144 88.9838 29.0934 88.2548 28.1504L87.3044 28.892C87.3044 28.892 88.2663 30.799 87.6799 32.1081C87.6799 32.1081 87.6034 29.2896 87.0988 29.0767C87.0988 29.0767 86.267 29.8109 86.1401 30.1109C86.1401 30.1109 86.7988 31.4955 86.3897 32.2256C86.3897 32.2256 86.139 30.348 85.9334 30.3375C85.9334 30.3375 85.1048 31.5815 85.0187 32.4354C85.0187 32.4354 85.0544 31.1662 85.7331 30.219C85.7331 30.219 84.9317 30.3564 84.4638 30.8767C84.4638 30.8767 84.5929 29.9966 85.9376 29.92C85.9376 29.92 86.6226 28.976 86.8051 28.9183C86.8051 28.9183 85.4687 28.8071 84.6579 29.1658C84.6579 29.1658 85.3712 28.3361 87.0506 28.7137L87.9894 27.9469C87.9894 27.9469 86.2292 27.7067 85.4824 27.9721C85.4824 27.9721 86.3415 27.2378 88.2422 27.7739L89.2659 27.1676C89.2659 27.1676 87.7649 26.8445 86.8712 26.9578C86.8712 26.9578 87.8152 26.449 89.5659 27.0008L90.3002 26.6725C90.3002 26.6725 89.2009 26.4564 88.8789 26.4218C88.5569 26.3871 88.5401 26.299 88.5401 26.299C89.2365 26.1829 89.9515 26.2624 90.6055 26.5287C90.6055 26.5287 92.1558 25.9518 92.1285 25.8543Z" fill="#DBC22A"/>
<path opacity="0.1" d="M81.236 27.429C81.236 27.429 77.2499 27.1878 77.7167 29.9853C77.7167 29.9853 77.6234 30.4794 78.0702 30.7039C78.0702 30.7039 78.0776 30.4941 78.4804 30.5665C78.6234 30.5905 78.7688 30.5976 78.9136 30.5874C79.1093 30.5741 79.2954 30.4971 79.4433 30.3682C79.4433 30.3682 80.5657 29.9056 81.002 28.0721C81.002 28.0721 81.3241 27.6714 81.3115 27.5686L80.6381 27.856C80.6381 27.856 80.8688 28.3427 80.6874 28.7465C80.6874 28.7465 80.6653 27.8738 80.5363 27.8948C80.5101 27.8948 80.186 28.0626 80.186 28.0626C80.186 28.0626 80.5825 28.9091 80.2835 29.5249C80.2835 29.5249 80.3968 28.4822 80.0622 28.1245L79.5881 28.4014C79.5881 28.4014 80.0517 29.2752 79.737 29.9885C79.737 29.9885 79.8178 28.8944 79.4884 28.4686L79.0594 28.8032C79.0594 28.8032 79.4936 29.6654 79.2293 30.257C79.2293 30.257 79.1947 28.9825 78.966 28.8871C78.966 28.8871 78.5905 29.2186 78.5328 29.3549C78.5328 29.3549 78.8307 29.9843 78.6461 30.3095C78.6461 30.3095 78.5328 29.4609 78.4363 29.4577C78.4363 29.4577 78.0629 30.02 78.023 30.4018C78.0417 30.0454 78.1531 29.7001 78.3461 29.4C78.13 29.441 77.9306 29.5441 77.7723 29.6969C77.7723 29.6969 77.8311 29.3004 78.4384 29.2647C78.4384 29.2647 78.7531 28.8388 78.8307 28.8126C78.8307 28.8126 78.2265 28.7623 77.8604 28.9249C77.8604 28.9249 78.1825 28.5493 78.9419 28.7203L79.3615 28.3742C79.3615 28.3742 78.5664 28.2693 78.2286 28.3857C78.2286 28.3857 78.6167 28.0542 79.4758 28.2955L79.9374 28.0196C79.9374 28.0196 79.2597 27.8728 78.8548 27.9263C78.8548 27.9263 79.2818 27.6955 80.0727 27.9451L80.4031 27.7972C80.4031 27.7972 79.9059 27.6986 79.7601 27.6839C79.6143 27.6693 79.6069 27.6283 79.6069 27.6283C79.9218 27.576 80.2451 27.6123 80.5405 27.7332C80.5405 27.7332 81.2485 27.4731 81.236 27.429Z" fill="#DBC22A"/>
<path d="M23.5167 93.4754C25.8461 93.4754 27.7345 93.1561 27.7345 92.7621C27.7345 92.3682 25.8461 92.0488 23.5167 92.0488C21.1872 92.0488 19.2988 92.3682 19.2988 92.7621C19.2988 93.1561 21.1872 93.4754 23.5167 93.4754Z" fill="#DBC22A"/>
<path d="M25.2609 91.5955C25.4535 91.4386 25.5936 91.2267 25.6626 90.9881C25.7151 90.7479 25.6123 90.4637 25.3815 90.3703C25.1235 90.2717 24.8476 90.4511 24.6389 90.6315C24.4301 90.8119 24.1899 91.0185 23.9172 90.9797C24.0577 90.8521 24.1629 90.6902 24.2224 90.5099C24.282 90.3296 24.2939 90.137 24.257 89.9507C24.2451 89.8735 24.2125 89.801 24.1626 89.7409C24.0189 89.5878 23.7598 89.6528 23.5878 89.7734C23.0424 90.1574 22.8903 90.899 22.8871 91.565C22.8326 91.3248 22.8787 91.0741 22.8777 90.8308C22.8766 90.5874 22.8084 90.3063 22.5997 90.1773C22.471 90.108 22.3262 90.074 22.1801 90.0787C21.9357 90.0692 21.6619 90.0944 21.4952 90.2738C21.2854 90.4962 21.341 90.8696 21.5214 91.113C21.7018 91.3563 21.9777 91.5126 22.2315 91.6815C22.4346 91.8026 22.6078 91.9678 22.7382 92.1651C22.7539 92.1926 22.7665 92.2218 22.7759 92.2521H24.3137C24.6576 92.077 24.9762 91.8561 25.2609 91.5955Z" fill="#DBC22A"/>
<path d="M75.2479 61.7183C75.2393 61.6388 75.2108 61.5628 75.1652 61.4972C75.1196 61.4316 75.0582 61.3785 74.9867 61.3428C74.9265 61.3171 74.8617 61.3038 74.7963 61.3037C74.7308 61.3036 74.6661 61.3167 74.6058 61.3421C74.5455 61.3675 74.4909 61.4049 74.4454 61.4518C74.3998 61.4988 74.3641 61.5545 74.3405 61.6155L72.0108 66.5172L71.4863 85.8179H72.3255L72.6402 66.5602L75.2038 62.0225C75.2502 61.9283 75.2656 61.8218 75.2479 61.7183Z" fill="#3F3D56"/>
<path opacity="0.1" d="M112.821 90.1766C112.134 90.7773 111.394 91.3148 110.61 91.7826C110.598 91.7998 110.584 91.8159 110.569 91.8308C110.486 91.9014 110.387 91.9511 110.281 91.9756C107.681 93.4243 104.752 94.1766 101.776 94.1595H44.1025C37.4941 93.4798 33.4619 92.5787 33.4619 91.5896C33.4619 90.8228 35.8829 90.1084 40.0514 89.5105C40.4836 89.4476 40.9343 89.3868 41.4035 89.328C41.6923 89.2917 41.9878 89.2567 42.2899 89.2231L42.8028 89.1633C43.1832 89.12 43.5738 89.0777 43.9745 89.0364H44.007L44.4266 88.9945C44.7811 88.9577 45.143 88.9231 45.5123 88.8896L45.7808 88.8654L46.4658 88.8046C46.9105 88.7647 47.3651 88.7266 47.8294 88.6903C48.2147 88.6602 48.6063 88.6301 49.0042 88.6C53.0385 88.3011 57.6895 88.0756 62.7507 87.9298L64.1962 87.8805L64.6829 87.87L65.7109 87.8469L66.1231 87.8385L66.5563 87.8301L66.8647 87.8249L68.3123 87.8018L69.056 87.7913H69.2081C70.9668 87.7703 72.7584 87.7595 74.5829 87.7588C78.1892 87.7588 81.6864 87.8018 85.0189 87.8836C86.9322 87.9298 88.7871 87.9885 90.5836 88.0598H90.6004C95.7801 88.2633 100.416 88.5633 104.254 88.9357L104.324 88.9431C105.309 89.0385 106.241 89.1403 107.116 89.2452C107.94 89.3438 108.713 89.4476 109.43 89.5535C109.679 89.5903 109.92 89.628 110.155 89.6647L110.215 89.6752C111.209 89.8357 112.082 89.9993 112.821 90.1766Z" fill="#DBC22A"/>
<path d="M110.61 91.7825C110.598 91.7998 110.584 91.8159 110.569 91.8308C110.486 91.9014 110.387 91.951 110.28 91.9755C110.068 92.035 109.85 92.0702 109.63 92.0804H109.564C109.438 92.0846 109.312 92.0804 109.187 92.0678C109.096 92.0546 109.004 92.0487 108.912 92.05H108.899C108.765 92.0689 108.633 92.1015 108.506 92.1476C108.222 92.2254 107.929 92.267 107.635 92.2713H107.53C107.201 92.2713 106.867 92.2598 106.537 92.2619C106.483 92.2619 106.432 92.2619 106.376 92.2619C105.81 92.2766 105.246 92.3668 104.68 92.3762H104.499C103.944 92.3626 103.376 92.2441 102.935 91.9084C102.846 91.8495 102.773 91.7686 102.725 91.6734C102.687 91.5731 102.675 91.4651 102.688 91.3588C102.699 91.1689 102.735 90.9622 102.878 90.8343C102.968 90.7655 103.07 90.7159 103.18 90.6885C103.372 90.6266 103.565 90.5668 103.757 90.507C103.949 90.4472 104.168 90.3832 104.375 90.3224L104.415 90.3098L104.53 90.2752L104.605 90.25C104.695 90.221 104.781 90.1816 104.863 90.1325C104.97 90.0648 105.06 89.9742 105.128 89.8671C105.139 89.8483 105.152 89.8283 105.163 89.8084C105.173 89.7885 105.163 89.7759 105.155 89.7591C105.137 89.628 105.124 89.4937 105.101 89.3657C104.805 89.2973 104.536 89.145 104.325 88.9273C104.144 88.7478 103.992 88.5415 103.873 88.3157C103.612 87.8248 103.478 87.2762 103.283 86.7549C102.984 85.9619 102.549 85.2297 102.11 84.5039C101.709 83.8346 101.307 83.1633 100.851 82.5308C100.548 82.1112 100.222 81.7115 99.922 81.2909C99.0733 80.1172 98.4645 78.7876 98.1304 77.3783C98.0792 77.1079 98.0066 76.8421 97.9133 76.5832C97.7328 76.1427 97.4024 75.7839 97.1465 75.3811C96.8713 74.9469 96.6829 74.4636 96.5916 73.9577C96.5391 73.6703 96.451 73.3598 96.1647 73.3283L96.1342 73.3881C95.5405 74.542 94.9311 75.7168 94.0363 76.6588C93.8932 76.7972 93.7623 76.9478 93.6451 77.1087C93.551 77.2648 93.4669 77.4267 93.3933 77.5934C93.2517 77.8927 93.0637 78.1677 92.8363 78.4084C92.7687 78.4768 92.6949 78.539 92.616 78.5941C92.5113 78.6702 92.3947 78.7287 92.2709 78.7671C92.2222 78.782 92.1724 78.7933 92.122 78.8007C92.122 78.8133 92.1272 78.8248 92.1283 78.8374C92.1293 78.85 92.1346 78.8647 92.1367 78.8783C92.291 79.7176 92.2249 80.5825 91.9447 81.3885C91.9374 81.4136 91.929 81.4378 91.9195 81.4629C91.8762 81.5804 91.829 81.6958 91.7779 81.8091C91.65 82.0871 91.4979 82.3535 91.3783 82.6357C91.3584 82.6839 91.3384 82.7322 91.3206 82.7804C90.901 83.9039 91.0059 85.1584 90.9514 86.3657C90.9466 86.6297 90.9153 86.8926 90.858 87.1504C90.7867 87.4409 90.6723 87.7409 90.6094 88.0409C90.552 88.2658 90.5474 88.501 90.5958 88.728L90.5706 88.7374C90.4584 88.7794 90.344 88.8171 90.2297 88.8528V88.8685C90.2706 89.1035 90.3105 89.3385 90.3514 89.5724C90.386 89.7738 90.4269 89.992 90.5674 90.1346C90.6057 90.1661 90.6408 90.2013 90.6723 90.2395C90.7552 90.3696 90.6818 90.5416 90.6975 90.6958C90.7206 90.914 90.922 91.0997 90.8905 91.3168C90.8764 91.3817 90.8466 91.4421 90.8038 91.4929C90.7611 91.5437 90.7066 91.5834 90.6451 91.6084C90.5934 91.6318 90.5392 91.649 90.4835 91.6598L90.4489 91.6671C90.386 91.6787 90.323 91.685 90.2601 91.6913C89.4786 91.7689 88.6867 91.8465 87.9125 91.7143C87.7594 91.6881 87.6073 91.6535 87.4521 91.6409C87.2559 91.6322 87.0594 91.6402 86.8646 91.665C85.4286 91.801 83.9843 91.8291 82.544 91.749C82.1695 91.728 81.7395 91.6671 81.5412 91.3472C81.3765 91.0818 81.4363 90.7388 81.5192 90.4357C81.5429 90.3242 81.5859 90.2177 81.6461 90.121C81.6529 90.1105 81.6606 90.1007 81.6692 90.0916C81.8622 89.8514 82.2251 89.8367 82.5377 89.8462L83.5594 89.8766C83.66 89.8847 83.7612 89.877 83.8594 89.8535C84.0251 89.8053 84.151 89.6731 84.3063 89.5986C84.5014 89.5053 84.7468 89.4937 84.8874 89.3343L84.9052 89.3112C84.93 89.2774 84.9531 89.2424 84.9744 89.2063C84.9744 89.199 84.9839 89.1916 84.9891 89.1843C84.993 89.1777 84.9972 89.1714 85.0017 89.1654C85.1307 88.9955 85.3563 88.9388 85.5398 88.8308C85.5676 88.8146 85.5939 88.796 85.6185 88.7752L85.6395 88.7563C85.4418 88.6153 85.2695 88.4419 85.1297 88.2434C85.0757 88.1854 85.0359 88.1157 85.0133 88.0399C85.0004 87.9829 85.0048 87.9234 85.0258 87.8689C85.0303 87.8555 85.036 87.8425 85.0426 87.8301L85.0479 87.8196C85.1192 87.679 85.266 87.5521 85.3468 87.4084C85.3499 87.4038 85.3524 87.3989 85.3542 87.3937C85.4654 87.1839 85.4874 86.8588 85.3227 86.6899C85.4066 85.3084 85.7863 83.9626 85.8702 82.5769C85.9038 82.0283 85.8902 81.4776 85.9153 80.9269C85.9405 80.3762 85.9993 79.8423 86.0612 79.3021C86.1996 78.0675 86.5353 76.8581 86.4881 75.6182C86.484 75.5026 86.4889 75.3869 86.5028 75.272C86.5023 75.2636 86.5023 75.2552 86.5028 75.2469C86.5364 74.9928 86.6156 74.7469 86.7367 74.521C86.8887 74.2657 87.061 74.023 87.2517 73.7951C87.8968 72.956 88.672 72.1168 88.9017 71.0846C89.0202 70.5518 89.2825 70.064 89.5437 69.5846C89.6979 69.2993 89.8584 69.0067 90.1049 68.7969C90.2383 68.7044 90.3624 68.599 90.4751 68.4822C90.6472 68.2598 90.6535 67.9525 90.7552 67.6881C90.8077 67.5507 90.8884 67.4248 90.9283 67.2832C90.9283 67.2685 90.9356 67.2549 90.9388 67.2402C90.962 67.0973 90.9743 66.9528 90.9755 66.808C90.9755 66.7661 90.9818 66.7252 90.987 66.6843C91.0483 66.2696 91.1688 65.8658 91.3447 65.4853C91.3667 65.4371 91.3877 65.3878 91.4087 65.3395C90.9247 65.0572 90.4978 64.6868 90.15 64.2476C90.032 64.1054 89.9297 63.9511 89.8447 63.7871C89.6286 63.358 89.5793 62.8692 89.4776 62.3993C89.2342 61.279 88.6772 60.2238 88.5996 59.0783C88.5765 58.729 88.5996 58.3682 88.4779 58.0378C88.4444 57.9484 88.4048 57.8615 88.3594 57.7776C88.3405 57.742 88.3227 57.7063 88.3038 57.6727L88.2828 57.6329L88.2293 57.528L88.1433 57.5951C85.9974 59.2754 83.7444 60.8144 81.3986 62.2021L81.1972 62.3217C81.0923 62.3723 81.001 62.447 80.9307 62.5399C80.9223 62.5535 80.915 62.5671 80.9077 62.5808C80.8594 62.6804 80.8468 62.7906 80.8028 62.8955C80.7084 63.1357 80.466 63.2888 80.2185 63.3601C79.7706 63.4753 79.2956 63.4141 78.8916 63.1892C78.8402 63.1629 78.7867 63.1357 78.7405 63.1053C78.6178 63.1732 78.4885 63.2284 78.3545 63.2699C77.9349 63.3916 77.4954 63.3864 77.0612 63.3853C76.6269 63.3843 76.1832 63.3853 75.772 63.528C75.4972 63.6213 75.2307 63.7755 74.9454 63.7902C74.9126 63.7923 74.8796 63.7923 74.8468 63.7902C74.6841 63.7716 74.5259 63.7251 74.379 63.6528L74.293 63.614C74.2484 63.5929 74.205 63.5694 74.1629 63.5437C74.117 63.5154 74.0744 63.4819 74.036 63.4441C73.9805 63.3883 73.94 63.3194 73.9185 63.2437C73.9043 63.189 73.9043 63.1316 73.9185 63.0769C73.9225 63.0524 73.9352 63.0301 73.9542 63.014C73.9729 63.0029 73.9943 62.9975 74.016 62.9983C74.1363 62.997 74.2564 63.0071 74.3748 63.0287C74.4443 63.0382 74.5144 63.0421 74.5846 63.0402H74.6223C74.6842 63.0336 74.744 63.0143 74.7982 62.9837C74.8523 62.953 74.8995 62.9115 74.937 62.8619C74.9485 62.8465 74.9577 62.8296 74.9643 62.8115C74.977 62.7821 74.9834 62.7503 74.9832 62.7182C74.9838 62.7102 74.9838 62.7021 74.9832 62.6941C74.9391 62.6741 74.8951 62.6542 74.8531 62.6301C74.8311 62.6185 74.8101 62.606 74.7891 62.5934L74.7765 62.585C74.7389 62.5594 74.7038 62.5302 74.6716 62.4979C74.6512 62.4777 74.6333 62.4552 74.6181 62.4308C74.5903 62.3928 74.5693 62.3502 74.5563 62.3049C74.4698 62.2868 74.3804 62.2894 74.2951 62.3122C74.1807 62.3437 74.0653 62.4108 73.9521 62.4339C73.8949 62.4483 73.8347 62.4458 73.779 62.4266C73.6153 62.3678 73.5577 62.1685 73.523 61.9976C73.5167 61.965 73.5094 61.9315 73.5042 61.8979C73.4921 61.8334 73.4921 61.7673 73.5042 61.7028C73.5549 61.5562 73.6517 61.43 73.78 61.343L74.1241 61.0546L74.1493 61.0336C74.1493 61.0053 74.1377 60.9769 74.1335 60.9486C74.1215 60.8838 74.1215 60.8173 74.1335 60.7525C74.1842 60.6062 74.281 60.4803 74.4094 60.3937L75.1709 59.7528C75.3136 59.6332 75.4688 59.5074 75.6545 59.4948C75.9304 59.4759 76.1507 59.7046 76.3573 59.8881C76.6174 60.1189 76.9332 60.3077 77.2804 60.3308C77.4457 60.3383 77.611 60.3156 77.7681 60.2636L77.8573 60.2343C77.8384 60.1955 77.8195 60.1567 77.8017 60.1178C77.7713 60.0539 77.7409 59.9888 77.7115 59.9238C78.1584 59.8955 78.5643 59.65 78.9031 59.3563C79.2419 59.0626 79.5325 58.7154 79.8744 58.4269C80.2437 58.1122 80.6674 57.8783 81.0419 57.5752C81.9125 56.8692 82.4905 55.8318 83.422 55.2098C83.7451 54.9927 84.1185 54.8196 84.3388 54.4965C84.407 54.3916 84.4584 54.2867 84.5286 54.1818C84.7521 53.8671 85.1349 53.7224 85.4507 53.5042C85.7664 53.286 86.0412 52.9661 86.2982 52.6587C86.4807 52.4395 86.6643 52.2203 86.8384 51.9948C86.9989 51.6958 87.1342 51.3832 87.3021 51.0885C87.4445 50.8395 87.6106 50.6048 87.7982 50.3878C87.8412 50.3039 87.8853 50.2199 87.9325 50.1381C87.9797 50.0563 88.0143 50.0007 88.0584 49.9283C88.0888 49.8811 88.1202 49.836 88.1528 49.7899C88.0573 49.621 87.966 49.4752 87.923 49.4112L87.9021 49.3829C87.8095 49.2843 87.7107 49.1918 87.6063 49.106C87.4966 49.0893 87.388 49.0662 87.2811 49.0367C86.6337 48.8593 86.0626 48.4739 85.6559 47.94C85.2491 47.406 85.0292 46.7531 85.03 46.0818C85.0295 46.0787 85.0295 46.0755 85.03 46.0724C85.0304 45.5917 85.1447 45.1179 85.3636 44.6899C85.4077 44.6039 85.4549 44.521 85.5063 44.4402C85.4583 44.4251 85.4117 44.4061 85.3667 44.3836C85.2902 44.3459 85.2234 44.2909 85.1716 44.2231C85.1289 44.1627 85.1012 44.0929 85.0909 44.0196C85.0731 43.8467 85.0991 43.6721 85.1664 43.5119C85.195 43.4348 85.2276 43.3591 85.2639 43.2853C85.2668 43.281 85.2693 43.2764 85.2713 43.2717C85.7402 42.3276 86.7398 41.7476 87.7384 41.7067C88.8157 41.6636 89.8646 42.1692 90.7143 42.893C90.9678 43.101 91.1947 43.3396 91.3898 43.6032C91.8335 44.2199 92.0339 45.0088 92.0926 45.7902C92.1147 46.0319 92.1105 46.2753 92.08 46.5161C92.0689 46.6019 92.0514 46.6868 92.0276 46.7699C92.014 46.8192 91.9961 46.8685 91.9772 46.9178C91.9584 46.9671 91.9468 46.9892 91.93 47.0227V47.028C91.9143 47.0615 91.8965 47.093 91.8786 47.1245L91.8692 47.1381L91.8556 47.1601C91.864 47.1801 91.8734 47.2011 91.8828 47.221C91.8923 47.2409 91.9007 47.2598 91.9111 47.2787H91.9237C92.1335 47.2955 92.3276 47.3248 92.5416 47.3416C92.6422 47.3464 92.7421 47.3619 92.8395 47.3878C93.0493 47.4507 93.2077 47.6039 93.3839 47.7276C93.8202 48.036 94.3573 48.1797 94.7863 48.4986C95.4157 48.9685 95.7304 49.7448 96.1122 50.4402C96.6157 51.3717 97.436 52.1647 97.7979 53.1612C97.9615 53.6136 98.1258 54.0654 98.2909 54.5164C98.6129 55.4007 98.9349 56.2892 99.3723 57.1231C99.9807 58.2832 100.804 59.3259 101.292 60.5448C101.34 60.6669 101.431 60.7675 101.548 60.828C102.213 61.7665 102.803 62.7551 103.315 63.785C103.585 64.3294 103.84 64.8948 103.918 65.4979C103.98 66.0349 103.935 66.5788 103.787 67.0986C103.704 67.4074 103.601 67.7108 103.48 68.007C103.433 68.1107 103.398 68.2194 103.375 68.3311C103.375 68.3427 103.375 68.3542 103.375 68.3657C103.354 68.5671 103.431 68.7664 103.452 68.9678C103.469 69.13 103.451 69.294 103.398 69.4483C103.39 69.4724 103.38 69.4965 103.371 69.5206C103.306 69.6433 103.251 69.771 103.206 69.9025C103.202 69.9183 103.2 69.9345 103.198 69.9507C103.163 70.1783 103.253 70.4081 103.303 70.6357C103.487 71.4581 103.454 72.314 103.408 73.1532C103.384 73.5727 103.722 73.9095 104.006 74.2189C104.53 74.799 104.94 75.4776 105.336 76.1532C105.551 76.4961 105.733 76.8594 105.878 77.2378C106.028 77.6699 106.088 78.1273 106.171 78.5752C106.438 79.9598 107.312 81.1829 107.549 82.5706C107.659 83.2061 107.939 83.7999 108.36 84.2888C108.487 84.4198 108.603 84.56 108.709 84.7084C108.782 84.8266 108.84 84.9535 108.882 85.086C108.985 85.3945 109.034 85.7186 109.026 86.0437C109.009 86.1994 109.018 86.3567 109.052 86.5094C109.151 86.8315 109.503 87.0088 109.649 87.3119C109.795 87.615 109.694 88.0032 109.754 88.3472C109.801 88.6246 109.951 88.8741 110.173 89.0458C110.089 89.1192 110.001 89.1864 109.911 89.2556C109.995 89.3204 110.068 89.3975 110.128 89.4843C110.17 89.5424 110.205 89.6046 110.233 89.6699C110.372 89.992 110.376 90.3748 110.489 90.7189C110.537 90.8615 110.606 91.0126 110.564 91.1573C110.546 91.1988 110.534 91.2426 110.528 91.2874C110.528 91.3818 110.627 91.4437 110.664 91.5297C110.678 91.573 110.68 91.619 110.671 91.6634C110.661 91.7077 110.64 91.7488 110.61 91.7825Z" fill="url(#paint0_linear_124_1291)"/>
<path d="M88.4101 50.8737C89.0521 50.7007 89.6238 50.3388 90.1839 49.9811L92.136 48.7381C91.6063 48.6961 91.1489 48.3185 90.8773 47.8611C90.6056 47.4038 90.4933 46.872 90.401 46.3496C89.5619 46.6769 88.8349 47.2318 88.1573 47.8181C87.8888 48.05 87.3182 48.4003 87.2353 48.7622C87.1524 49.1241 87.6811 49.4178 87.8857 49.6601C87.9559 49.7409 88.6178 50.816 88.4101 50.8737Z" fill="#FBBEBE"/>
<path opacity="0.1" d="M88.4101 50.8737C89.0521 50.7007 89.6238 50.3388 90.1839 49.9811L92.136 48.7381C91.6063 48.6961 91.1489 48.3185 90.8773 47.8611C90.6056 47.4038 90.4933 46.872 90.401 46.3496C89.5619 46.6769 88.8349 47.2318 88.1573 47.8181C87.8888 48.05 87.3182 48.4003 87.2353 48.7622C87.1524 49.1241 87.6811 49.4178 87.8857 49.6601C87.9559 49.7409 88.6178 50.816 88.4101 50.8737Z" fill="black"/>
<path d="M77.7429 61.141C77.3988 61.3173 77.0327 61.4977 76.6478 61.4725C76.3016 61.4505 75.9859 61.2627 75.7257 61.033C75.5159 60.8505 75.2999 60.6228 75.024 60.6417C74.8394 60.6543 74.6841 60.7791 74.5415 60.8977L73.781 61.5344C73.653 61.6204 73.5562 61.7455 73.5051 61.891C73.4901 61.9898 73.4962 62.0906 73.5229 62.1868C73.5576 62.3568 73.6152 62.555 73.7789 62.6127C73.9425 62.6704 74.1208 62.5466 74.2939 62.4994C74.3996 62.4724 74.5107 62.4744 74.6154 62.5052C74.7201 62.5361 74.8145 62.5946 74.8887 62.6746C74.9505 62.7354 74.9878 62.8168 74.9936 62.9033C74.9936 63.0931 74.7838 63.2179 74.5908 63.2274C74.3978 63.2368 74.2131 63.1739 74.0222 63.1854C74.0107 63.184 73.999 63.1848 73.9878 63.188C73.9766 63.1911 73.9662 63.1964 73.9571 63.2037C73.948 63.2109 73.9405 63.2199 73.9349 63.2301C73.9293 63.2403 73.9259 63.2515 73.9247 63.2631C73.9128 63.3293 73.9179 63.3975 73.9393 63.4613C73.9608 63.5251 73.9979 63.5824 74.0474 63.6281C74.1471 63.7191 74.2631 63.7903 74.3894 63.8379C74.5361 63.9104 74.6945 63.9566 74.8572 63.9742C75.1792 63.9952 75.475 63.8169 75.7803 63.7131C76.1915 63.5746 76.6341 63.5704 77.0684 63.5714C77.5027 63.5725 77.9432 63.5788 78.3597 63.4571C78.7761 63.3354 79.1715 63.0659 79.3341 62.6641C79.3533 62.6266 79.3596 62.5838 79.352 62.5424C79.3357 62.4982 79.3046 62.4611 79.2639 62.4375C78.6785 62.0043 78.4415 61.4777 77.7827 61.1662L77.7429 61.141Z" fill="#FBBEBE"/>
<path opacity="0.1" d="M77.7429 61.141C77.3988 61.3173 77.0327 61.4977 76.6478 61.4725C76.3016 61.4505 75.9859 61.2627 75.7257 61.033C75.5159 60.8505 75.2999 60.6228 75.024 60.6417C74.8394 60.6543 74.6841 60.7791 74.5415 60.8977L73.781 61.5344C73.653 61.6204 73.5562 61.7455 73.5051 61.891C73.4901 61.9898 73.4962 62.0906 73.5229 62.1868C73.5576 62.3568 73.6152 62.555 73.7789 62.6127C73.9425 62.6704 74.1208 62.5466 74.2939 62.4994C74.3996 62.4724 74.5107 62.4744 74.6154 62.5052C74.7201 62.5361 74.8145 62.5946 74.8887 62.6746C74.9505 62.7354 74.9878 62.8168 74.9936 62.9033C74.9936 63.0931 74.7838 63.2179 74.5908 63.2274C74.3978 63.2368 74.2131 63.1739 74.0222 63.1854C74.0107 63.184 73.999 63.1848 73.9878 63.188C73.9766 63.1911 73.9662 63.1964 73.9571 63.2037C73.948 63.2109 73.9405 63.2199 73.9349 63.2301C73.9293 63.2403 73.9259 63.2515 73.9247 63.2631C73.9128 63.3293 73.9179 63.3975 73.9393 63.4613C73.9608 63.5251 73.9979 63.5824 74.0474 63.6281C74.1471 63.7191 74.2631 63.7903 74.3894 63.8379C74.5361 63.9104 74.6945 63.9566 74.8572 63.9742C75.1792 63.9952 75.475 63.8169 75.7803 63.7131C76.1915 63.5746 76.6341 63.5704 77.0684 63.5714C77.5027 63.5725 77.9432 63.5788 78.3597 63.4571C78.7761 63.3354 79.1715 63.0659 79.3341 62.6641C79.3533 62.6266 79.3596 62.5838 79.352 62.5424C79.3357 62.4982 79.3046 62.4611 79.2639 62.4375C78.6785 62.0043 78.4415 61.4777 77.7827 61.1662L77.7429 61.141Z" fill="black"/>
<path d="M90.0263 49.9541C89.8635 49.849 89.6788 49.7828 89.4864 49.7604C89.294 49.738 89.099 49.7602 88.9165 49.8251C88.5511 49.9567 88.2231 50.1752 87.9609 50.4618C87.6991 50.7287 87.4725 51.028 87.2864 51.3523C87.1081 51.667 86.9718 51.9964 86.7934 52.31C86.4788 52.8712 86.0676 53.3663 85.6543 53.8572C85.3973 54.1625 85.1371 54.4719 84.8078 54.6964C84.4784 54.9209 84.1102 55.0583 83.8868 55.3698C83.8165 55.4684 83.7662 55.5796 83.6969 55.6793C83.4777 56.0002 83.1053 56.1723 82.7812 56.3873C81.8518 57.0062 81.2739 58.0363 80.4053 58.738C80.0309 59.0401 79.6081 59.2772 79.2399 59.5856C78.8969 59.8719 78.6106 60.2149 78.2686 60.5086C77.9267 60.8023 77.5249 61.0446 77.0791 61.0719C77.377 61.7359 77.7326 62.3873 78.2434 62.9044C78.7543 63.4216 79.52 63.752 80.2176 63.5495C80.4651 63.4782 80.7074 63.3272 80.8018 63.088C80.8315 62.9651 80.873 62.8453 80.9256 62.7303C80.9957 62.638 81.0866 62.5636 81.191 62.5132C83.9912 60.8786 86.6604 59.0294 89.1746 56.9821C89.849 56.4324 90.5183 55.9404 91.2106 55.4086C91.4588 55.2326 91.6883 55.0315 91.8955 54.8086C92.1843 54.4638 92.3646 54.0414 92.4139 53.5944C92.4632 53.1474 92.3792 52.6958 92.1725 52.2964C91.9868 51.9908 91.7741 51.7026 91.5368 51.4352C91.1051 50.8732 90.5967 50.3746 90.0263 49.9541Z" fill="#DBC22A"/>
<path opacity="0.1" d="M90.0263 49.9541C89.8635 49.849 89.6788 49.7828 89.4864 49.7604C89.294 49.738 89.099 49.7602 88.9165 49.8251C88.5511 49.9567 88.2231 50.1752 87.9609 50.4618C87.6991 50.7287 87.4725 51.028 87.2864 51.3523C87.1081 51.667 86.9718 51.9964 86.7934 52.31C86.4788 52.8712 86.0676 53.3663 85.6543 53.8572C85.3973 54.1625 85.1371 54.4719 84.8078 54.6964C84.4784 54.9209 84.1102 55.0583 83.8868 55.3698C83.8165 55.4684 83.7662 55.5796 83.6969 55.6793C83.4777 56.0002 83.1053 56.1723 82.7812 56.3873C81.8518 57.0062 81.2739 58.0363 80.4053 58.738C80.0309 59.0401 79.6081 59.2772 79.2399 59.5856C78.8969 59.8719 78.6106 60.2149 78.2686 60.5086C77.9267 60.8023 77.5249 61.0446 77.0791 61.0719C77.377 61.7359 77.7326 62.3873 78.2434 62.9044C78.7543 63.4216 79.52 63.752 80.2176 63.5495C80.4651 63.4782 80.7074 63.3272 80.8018 63.088C80.8315 62.9651 80.873 62.8453 80.9256 62.7303C80.9957 62.638 81.0866 62.5636 81.191 62.5132C83.9912 60.8786 86.6604 59.0294 89.1746 56.9821C89.849 56.4324 90.5183 55.9404 91.2106 55.4086C91.4588 55.2326 91.6883 55.0315 91.8955 54.8086C92.1843 54.4638 92.3646 54.0414 92.4139 53.5944C92.4632 53.1474 92.3792 52.6958 92.1725 52.2964C91.9868 51.9908 91.7741 51.7026 91.5368 51.4352C91.1051 50.8732 90.5967 50.3746 90.0263 49.9541Z" fill="black"/>
<path d="M85.5194 88.8666C85.3358 88.9715 85.1103 89.0303 84.9813 89.2002C84.9393 89.2547 84.911 89.3187 84.8659 89.3712C84.7264 89.5348 84.4788 89.5421 84.2847 89.6355C84.1295 89.7089 84.0036 89.8453 83.8389 89.8883C83.7404 89.9117 83.6388 89.9195 83.5379 89.9114L82.5183 89.881C82.1952 89.8715 81.8166 89.8883 81.6288 90.1516C81.5678 90.248 81.5245 90.3546 81.5008 90.4663C81.4222 90.7673 81.3582 91.1082 81.5229 91.3726C81.7201 91.6872 82.1522 91.7512 82.5246 91.7722C83.9631 91.8518 85.4056 91.8237 86.84 91.6883C87.034 91.6635 87.2299 91.6554 87.4253 91.6642C87.5806 91.6768 87.7327 91.7114 87.8858 91.7376C88.6589 91.8687 89.4498 91.7921 90.2302 91.7145C90.3621 91.7082 90.4921 91.6805 90.6152 91.6327C90.6764 91.6077 90.7306 91.5682 90.7732 91.5176C90.8158 91.467 90.8454 91.4068 90.8596 91.3421C90.8921 91.1261 90.6896 90.9425 90.6676 90.7254C90.6519 90.5722 90.7253 90.4012 90.6414 90.2712C90.61 90.2328 90.5748 90.1977 90.5365 90.1663C90.3959 90.0205 90.355 89.8075 90.3204 89.6082L90.1368 88.531C90.1317 88.455 90.1006 88.3832 90.0487 88.3275C90.0102 88.2997 89.9656 88.2813 89.9187 88.274C89.1194 88.0935 88.3001 88.2582 87.5061 88.3589C87.0974 88.4188 86.684 88.4395 86.2715 88.4208C86.0931 88.4093 86.0239 88.3883 85.8907 88.5047C85.7575 88.6212 85.6861 88.7691 85.5194 88.8666Z" fill="#3F3D56"/>
<path d="M104.82 90.1637C104.68 90.2421 104.53 90.3011 104.373 90.3389C103.961 90.4591 103.55 90.5847 103.14 90.7154C103.031 90.7425 102.928 90.7918 102.839 90.8602C102.696 90.9861 102.659 91.1917 102.649 91.3847C102.635 91.491 102.648 91.599 102.686 91.6994C102.735 91.7934 102.807 91.8735 102.895 91.9322C103.365 92.2878 103.979 92.398 104.568 92.398C105.158 92.398 105.743 92.2983 106.333 92.2826C107.045 92.2637 107.776 92.3644 108.461 92.1651C108.592 92.1168 108.728 92.0837 108.866 92.0665C108.958 92.0651 109.05 92.071 109.141 92.0843C109.508 92.1206 109.879 92.0868 110.234 91.9847C110.341 91.961 110.44 91.9117 110.523 91.841C110.565 91.8052 110.594 91.7579 110.608 91.7051C110.622 91.6523 110.619 91.5965 110.601 91.5452C110.563 91.4602 110.467 91.3983 110.466 91.305C110.471 91.2601 110.482 91.2163 110.5 91.1749C110.543 91.0312 110.474 90.8812 110.426 90.7396C110.29 90.3347 110.312 89.8689 110.07 89.5175C109.828 89.1661 109.383 89.0214 108.96 88.9658C108.617 88.9173 108.267 88.9272 107.927 88.9952C107.544 89.077 107.187 89.248 106.811 89.357C106.375 89.4824 105.92 89.5254 105.468 89.484C105.168 89.4588 105.271 89.506 105.169 89.7577C105.097 89.9256 104.975 90.0673 104.82 90.1637Z" fill="#3F3D56"/>
<path d="M88.0595 49.4189C89.7396 49.4189 91.1015 48.0569 91.1015 46.3769C91.1015 44.6969 89.7396 43.335 88.0595 43.335C86.3795 43.335 85.0176 44.6969 85.0176 46.3769C85.0176 48.0569 86.3795 49.4189 88.0595 49.4189Z" fill="#FBBEBE"/>
<path d="M110.113 89.0756C109.169 89.8864 107.894 90.241 106.651 90.2535C106.127 90.2588 105.582 90.2022 105.135 89.9305C105.104 89.7584 105.091 89.5728 105.06 89.4007C104.518 89.2875 104.097 88.8459 103.835 88.357C103.572 87.8682 103.439 87.3249 103.244 86.8067C102.946 86.0179 102.51 85.291 102.073 84.5693C101.673 83.9042 101.271 83.2371 100.815 82.6088C100.513 82.1892 100.185 81.7948 99.8864 81.3763C99.0395 80.2112 98.4317 78.89 98.098 77.4889C98.047 77.2202 97.9743 76.956 97.8808 76.699C97.7004 76.2605 97.37 75.9039 97.1151 75.5042C96.8402 75.073 96.6518 74.5924 96.5602 74.0892C96.5088 73.8039 96.4207 73.4955 96.1343 73.4661C95.5322 74.6357 94.9186 75.8242 94.0081 76.7756C93.865 76.9129 93.7341 77.0625 93.6169 77.2224C93.5228 77.3778 93.4388 77.539 93.3651 77.7049C93.2239 78.0026 93.0362 78.276 92.8092 78.5147C92.6188 78.7183 92.368 78.8551 92.0938 78.9049C92.296 79.9128 92.1756 80.9589 91.7497 81.8945C91.6228 82.1714 91.4707 82.4357 91.3511 82.7158C90.8623 83.8696 90.9756 85.1714 90.9242 86.4228C90.9197 86.685 90.8888 86.9461 90.8319 87.2022C90.705 87.714 90.4427 88.2584 90.5697 88.7703C89.2543 89.2728 87.7931 89.2413 86.4001 89.0294C86.1276 89.0045 85.8631 88.9242 85.6228 88.7934C85.4252 88.6535 85.2529 88.4812 85.113 88.2836C85.0591 88.226 85.0192 88.1567 84.9966 88.0812C84.942 87.842 85.2064 87.6616 85.3291 87.4518C85.4518 87.242 85.4738 86.9095 85.305 86.7375C85.3889 85.3644 85.7686 84.0238 85.8525 82.6466C85.8861 82.1011 85.8725 81.5536 85.8976 81.007C85.9228 80.4605 85.9815 79.9287 86.0424 79.3917C86.1808 78.1654 86.5165 76.9633 86.4693 75.7308C86.4549 75.3515 86.5422 74.9752 86.7221 74.641C86.8737 74.387 87.0456 74.1456 87.2361 73.9193C87.8801 73.0875 88.6543 72.2536 88.884 71.2266C89.0025 70.6969 89.2648 70.2123 89.5249 69.7361C89.6791 69.4518 89.8396 69.1612 90.085 68.9525C90.2186 68.8601 90.3426 68.7547 90.4553 68.6378C90.6273 68.4165 90.6336 68.1133 90.7354 67.849C90.7878 67.7126 90.8686 67.5868 90.9074 67.4462C90.9394 67.2909 90.9552 67.1327 90.9546 66.9742C90.9882 66.4665 91.1833 65.9756 91.3889 65.5109C90.9054 65.231 90.4785 64.8631 90.1301 64.4263C90.0131 64.2844 89.9112 64.1308 89.8259 63.9679C89.6099 63.542 89.5606 63.0563 89.4588 62.5896C89.2165 61.4756 88.6595 60.4277 88.5819 59.2896C88.5588 58.9424 88.5819 58.5836 88.4613 58.2553C88.4056 58.1164 88.3404 57.9814 88.2662 57.8515C88.193 57.7238 88.1373 57.5869 88.1004 57.4445C88.0333 57.135 88.1256 56.8151 88.1004 56.5004C88.0752 56.2224 87.9567 55.9623 87.898 55.6906C87.838 55.3371 87.8278 54.977 87.8676 54.6207C87.8938 54.2011 87.985 53.7679 87.9494 53.3536C87.8916 52.6679 87.9789 51.9778 88.2057 51.3283C88.4326 50.6787 88.7938 50.0842 89.2658 49.5836L89.2899 49.5595C89.4903 49.3497 89.7095 49.164 89.8899 48.9417C90.1354 48.6438 90.3095 48.2934 90.5686 48.0039C90.6819 47.8749 90.8099 47.7595 90.9221 47.6294C91.025 47.493 91.1391 47.3653 91.263 47.2476C91.3257 47.1894 91.4017 47.1474 91.4843 47.1253C91.5669 47.1031 91.6537 47.1016 91.7371 47.1207C91.7582 47.2771 91.8072 47.4285 91.8819 47.5675C92.1001 47.5843 92.2941 47.6147 92.5113 47.6315C92.6119 47.6363 92.7118 47.6518 92.8092 47.6777C93.0137 47.7396 93.1773 47.8875 93.3525 48.0144C93.7889 48.3217 94.3249 48.4644 94.7539 48.7812C95.3833 49.248 95.698 50.0189 96.0777 50.7102C96.5801 51.6364 97.3994 52.4242 97.756 53.4144L98.248 54.7612C98.57 55.6403 98.892 56.5224 99.3284 57.3511C99.9357 58.5049 100.758 59.5445 101.246 60.7518C101.295 60.8729 101.385 60.9726 101.501 61.0329C102.165 61.9644 102.755 62.9464 103.266 63.97C103.536 64.5112 103.791 65.0735 103.868 65.6724C103.983 66.5189 103.752 67.3749 103.431 68.1658C103.379 68.279 103.344 68.3991 103.326 68.5224C103.305 68.7228 103.382 68.92 103.403 69.1203C103.423 69.3074 103.395 69.4966 103.322 69.67C103.257 69.7918 103.201 69.9188 103.157 70.0497C103.1 70.291 103.201 70.5364 103.256 70.7777C103.44 71.5948 103.407 72.4413 103.361 73.2784C103.336 73.698 103.675 74.0305 103.957 74.3378C104.482 74.9137 104.891 75.5871 105.286 76.2595C105.501 76.6005 105.683 76.9617 105.828 77.3378C105.978 77.7668 106.037 78.221 106.12 78.6668C106.387 80.042 107.26 81.2577 107.497 82.6371C107.606 83.269 107.886 83.8591 108.306 84.3438C108.433 84.4749 108.55 84.6151 108.656 84.7633C108.728 84.881 108.786 85.0071 108.828 85.1389C108.931 85.4452 108.979 85.7672 108.971 86.0903C108.955 86.2449 108.964 86.4011 108.998 86.5529C109.096 86.8728 109.449 87.049 109.593 87.3501C109.738 87.6511 109.639 88.0371 109.698 88.3791C109.743 88.6552 109.892 88.9041 110.113 89.0756Z" fill="#DBC22A"/>
<path d="M78.3728 60.1967C78.0287 60.3729 77.6626 60.5533 77.2777 60.5282C76.9315 60.5061 76.6158 60.3184 76.3556 60.0887C76.1458 59.9061 75.9297 59.6785 75.6539 59.6974C75.4693 59.71 75.314 59.8348 75.1714 59.9533L74.4109 60.59C74.2829 60.6761 74.1861 60.8012 74.135 60.9467C74.12 61.0454 74.126 61.1463 74.1528 61.2425C74.1874 61.4124 74.2451 61.6107 74.4088 61.6684C74.5724 61.7261 74.7507 61.6023 74.9238 61.5551C75.0295 61.5281 75.1406 61.5301 75.2453 61.5609C75.3499 61.5917 75.4444 61.6502 75.5186 61.7303C75.5804 61.791 75.6177 61.8724 75.6235 61.9589C75.6235 62.1488 75.4137 62.2736 75.2207 62.2831C75.0276 62.2925 74.843 62.2296 74.6521 62.2411C74.6406 62.2396 74.6289 62.2405 74.6177 62.2436C74.6065 62.2468 74.5961 62.2521 74.587 62.2593C74.5779 62.2666 74.5703 62.2756 74.5648 62.2858C74.5592 62.296 74.5557 62.3072 74.5546 62.3187C74.5427 62.385 74.5478 62.4532 74.5692 62.5169C74.5907 62.5807 74.6278 62.6381 74.6773 62.6838C74.777 62.7747 74.893 62.8459 75.0193 62.8935C75.166 62.9661 75.3244 63.0123 75.4871 63.0299C75.8091 63.0509 76.1049 62.8726 76.4102 62.7687C76.8214 62.6303 77.264 62.6261 77.6983 62.6271C78.1325 62.6282 78.5731 62.6345 78.9895 62.5128C79.406 62.3911 79.8014 62.1215 79.964 61.7198C79.9832 61.6823 79.9895 61.6395 79.9818 61.5981C79.9656 61.5539 79.9345 61.5168 79.8937 61.4932C79.3084 61.06 79.0714 60.5334 78.4126 60.2219L78.3728 60.1967Z" fill="#FBBEBE"/>
<path d="M86.579 44.5075C86.3976 44.5369 86.2434 44.6596 86.0713 44.7278C85.9559 44.7727 85.8322 44.7925 85.7085 44.786C85.5849 44.7795 85.464 44.7468 85.3539 44.69C85.2771 44.6527 85.2099 44.5982 85.1577 44.5306C85.0172 44.3355 85.0664 44.0523 85.1525 43.8236C85.5595 42.7421 86.6462 42.0729 87.7224 42.0299C88.7986 41.9869 89.8455 42.4893 90.6941 43.2079C90.9465 43.4152 91.1729 43.6522 91.3685 43.9138C91.8112 44.5275 92.0116 45.311 92.0703 46.0872C92.1054 46.413 92.0838 46.7423 92.0063 47.0607C91.9691 47.2154 91.901 47.361 91.8062 47.4887C91.7114 47.6165 91.5918 47.7239 91.4546 47.8044C91.1546 47.9575 90.7948 47.9093 90.4916 47.7624C90.1885 47.6156 89.9283 47.3838 89.6682 47.1624C89.5503 47.0488 89.4109 46.96 89.2581 46.9012C89.1819 46.8741 89.0994 46.8695 89.0207 46.8882C88.942 46.9068 88.8703 46.9477 88.8144 47.0061C88.6738 47.175 88.7095 47.4519 88.5815 47.6355C88.4535 47.8191 88.1871 47.8453 87.9626 47.8453C87.7381 47.8453 87.5105 47.8264 87.3762 47.6481C87.2535 47.4866 87.2713 47.2505 87.3175 47.047C87.3637 46.8435 87.4423 46.6421 87.4224 46.4334C87.3794 46.0138 87.0123 45.7558 86.8979 45.3698C86.8234 45.117 86.9871 45.01 86.9703 44.7813C86.9577 44.5799 86.7416 44.4813 86.579 44.5075Z" fill="#3F3D56"/>
<path opacity="0.1" d="M96.1364 73.4395V73.4657C95.5343 74.6353 94.9206 75.8238 94.0101 76.7752C93.8671 76.9125 93.7361 77.062 93.6189 77.222C93.5249 77.3774 93.4408 77.5385 93.3671 77.7045C93.2259 78.0022 93.0383 78.2756 92.8112 78.5143L92.0518 78.8941L94.4643 66.3066L96.1364 73.4395Z" fill="black"/>
<path opacity="0.1" d="M92.6302 54.3892C92.423 54.6121 92.1934 54.8131 91.9452 54.9892C91.2529 55.5137 90.5816 56.0088 89.9092 56.5626C89.3672 57.0039 88.8176 57.436 88.2602 57.8591C88.1871 57.7314 88.1314 57.5946 88.0945 57.4521C88.0274 57.1427 88.1197 56.8227 88.0945 56.5081C88.0693 56.2301 87.9508 55.9699 87.8921 55.6983C87.8321 55.3448 87.8219 54.9847 87.8616 54.6283C87.8879 54.2088 87.9791 53.7755 87.9435 53.3612C87.8854 52.6739 87.9732 51.9822 88.2012 51.3312C88.4291 50.6803 88.7921 50.0848 89.2662 49.5839L89.2903 49.5598C89.4032 49.4942 89.5228 49.4407 89.647 49.4004C89.8299 49.3362 90.0251 49.315 90.2175 49.3383C90.4099 49.3615 90.5944 49.4287 90.7567 49.5346C91.3271 49.9552 91.8356 50.4538 92.2672 51.0157C92.5045 51.2832 92.7173 51.5714 92.9029 51.8769C93.1102 52.2759 93.1949 52.7273 93.1463 53.1743C93.0978 53.6213 92.9182 54.044 92.6302 54.3892Z" fill="black"/>
<path d="M90.6552 49.0097C90.4925 48.9047 90.3077 48.8385 90.1153 48.8161C89.9229 48.7937 89.7279 48.8158 89.5454 48.8807C89.18 49.0124 88.852 49.2309 88.5898 49.5174C88.328 49.7844 88.1014 50.0837 87.9154 50.408C87.737 50.7227 87.6007 51.0521 87.4223 51.3657C87.1077 51.9269 86.6965 52.422 86.2832 52.9129C86.0262 53.2181 85.766 53.5276 85.4367 53.7521C85.1073 53.9765 84.7391 54.1139 84.5157 54.4255C84.4454 54.5241 84.3951 54.6353 84.3258 54.7349C84.1066 55.0559 83.7342 55.2279 83.4101 55.443C82.4807 56.0618 81.9028 57.0919 81.0342 57.7937C80.6598 58.0958 80.237 58.3328 79.8688 58.6412C79.5258 58.9276 79.2395 59.2706 78.8975 59.5643C78.5556 59.858 78.1538 60.1003 77.708 60.1276C78.0059 60.7916 78.3615 61.443 78.8723 61.9601C79.3832 62.4772 80.1489 62.8077 80.8465 62.6052C81.094 62.5339 81.3363 62.3828 81.4307 62.1437C81.4604 62.0207 81.5019 61.901 81.5545 61.786C81.6246 61.6937 81.7155 61.6193 81.8199 61.5688C84.6201 59.9343 87.2893 58.0851 89.8035 56.0377C90.4779 55.4881 91.1472 54.9961 91.8395 54.4643C92.0877 54.2882 92.3172 54.0872 92.5244 53.8643C92.8132 53.5195 92.9935 53.0971 93.0428 52.65C93.0921 52.203 93.0081 51.7515 92.8014 51.3521C92.6157 51.0465 92.403 50.7583 92.1657 50.4909C91.734 49.9289 91.2256 49.4303 90.6552 49.0097Z" fill="#DBC22A"/>
<g opacity="0.1">
<path d="M88.1725 47.4225C87.9627 47.4225 87.7204 47.4037 87.5861 47.2253C87.4644 47.0638 87.4812 46.8278 87.5274 46.6243C87.5735 46.4208 87.6522 46.2194 87.6323 46.0107C87.5892 45.5911 87.2221 45.333 87.1078 44.947C87.0333 44.6942 87.1969 44.5872 87.1802 44.3586C87.1655 44.1603 86.9504 44.0617 86.7879 44.0879C86.6064 44.1173 86.4522 44.24 86.2802 44.3082C86.1647 44.3531 86.041 44.3729 85.9174 44.3664C85.7937 44.3599 85.6728 44.3272 85.5627 44.2704C85.4859 44.2331 85.4187 44.1786 85.3665 44.111C85.226 43.9159 85.2753 43.6327 85.3613 43.404C85.3613 43.3956 85.3686 43.3883 85.3718 43.3799C85.284 43.5202 85.2102 43.6688 85.1515 43.8236C85.0655 44.0523 85.0162 44.3355 85.1567 44.5306C85.209 44.5981 85.2761 44.6527 85.3529 44.69C85.463 44.7467 85.5839 44.7795 85.7076 44.786C85.8313 44.7925 85.9549 44.7726 86.0704 44.7278C86.2424 44.6596 86.3966 44.5369 86.5781 44.5075C86.7406 44.4813 86.9557 44.5799 86.9704 44.7781C86.9871 45.0068 86.8235 45.1138 86.898 45.3666C87.0102 45.7526 87.3774 46.0148 87.4225 46.4302C87.4434 46.64 87.3669 46.8414 87.3176 47.0439C87.2683 47.2463 87.2546 47.4834 87.3763 47.6449C87.5106 47.8232 87.7508 47.84 87.9627 47.8421C88.1746 47.8442 88.4473 47.8295 88.5816 47.6323C88.6395 47.5333 88.6776 47.4239 88.6938 47.3103C88.5511 47.4121 88.3518 47.4246 88.1725 47.4225Z" fill="black"/>
<path d="M91.6649 47.3845C91.3649 47.5377 91.0051 47.4894 90.7019 47.3426C90.3988 47.1957 90.1387 46.9639 89.8785 46.7426C89.7607 46.6289 89.6212 46.5401 89.4684 46.4814C89.3922 46.4542 89.3098 46.4497 89.231 46.4683C89.1523 46.4869 89.0807 46.5279 89.0247 46.5863C88.9534 46.6916 88.9085 46.8124 88.8936 46.9387C88.9481 46.9066 89.0089 46.8865 89.0719 46.8798C89.1348 46.8731 89.1985 46.8799 89.2586 46.8999C89.4114 46.9586 89.5509 47.0474 89.6687 47.1611C89.9289 47.3824 90.1932 47.6153 90.4922 47.7611C90.7911 47.9069 91.1551 47.9562 91.4551 47.803C91.7204 47.6478 91.9138 47.3941 91.9932 47.0971C91.907 47.2166 91.7947 47.3149 91.6649 47.3845Z" fill="black"/>
</g>
<path d="M65.559 92.4783C67.2969 92.4783 68.7058 91.0694 68.7058 89.3314C68.7058 87.5935 67.2969 86.1846 65.559 86.1846C63.821 86.1846 62.4121 87.5935 62.4121 89.3314C62.4121 91.0694 63.821 92.4783 65.559 92.4783Z" fill="#3F3D56"/>
<path opacity="0.1" d="M65.559 92.4783C67.2969 92.4783 68.7058 91.0694 68.7058 89.3314C68.7058 87.5935 67.2969 86.1846 65.559 86.1846C63.821 86.1846 62.4121 87.5935 62.4121 89.3314C62.4121 91.0694 63.821 92.4783 65.559 92.4783Z" fill="black"/>
<path d="M65.5594 91.3249C66.6601 91.3249 67.5524 90.4326 67.5524 89.3319C67.5524 88.2312 66.6601 87.3389 65.5594 87.3389C64.4587 87.3389 63.5664 88.2312 63.5664 89.3319C63.5664 90.4326 64.4587 91.3249 65.5594 91.3249Z" fill="#65617D"/>
<path opacity="0.1" d="M65.5594 91.3249C66.6601 91.3249 67.5524 90.4326 67.5524 89.3319C67.5524 88.2312 66.6601 87.3389 65.5594 87.3389C64.4587 87.3389 63.5664 88.2312 63.5664 89.3319C63.5664 90.4326 64.4587 91.3249 65.5594 91.3249Z" fill="black"/>
<path d="M63.1465 84.4016L65.2108 89.0694C65.2416 89.1394 65.2917 89.1991 65.3552 89.2416C65.4188 89.284 65.4932 89.3074 65.5696 89.3089C65.646 89.3104 65.7213 89.2901 65.7865 89.2503C65.8517 89.2104 65.9042 89.1528 65.9377 89.0841L68.3912 84.0869L63.1465 84.4016Z" fill="#3F3D56"/>
<path opacity="0.1" d="M63.1465 84.4016L65.2108 89.0694C65.2416 89.1394 65.2917 89.1991 65.3552 89.2416C65.4188 89.284 65.4932 89.3074 65.5696 89.3089C65.646 89.3104 65.7213 89.2901 65.7865 89.2503C65.8517 89.2104 65.9042 89.1528 65.9377 89.0841L68.3912 84.0869L63.1465 84.4016Z" fill="black"/>
<path d="M45.9437 92.4783C47.6817 92.4783 49.0906 91.0694 49.0906 89.3314C49.0906 87.5935 47.6817 86.1846 45.9437 86.1846C44.2058 86.1846 42.7969 87.5935 42.7969 89.3314C42.7969 91.0694 44.2058 92.4783 45.9437 92.4783Z" fill="#3F3D56"/>
<path opacity="0.1" d="M45.9437 92.4783C47.6817 92.4783 49.0906 91.0694 49.0906 89.3314C49.0906 87.5935 47.6817 86.1846 45.9437 86.1846C44.2058 86.1846 42.7969 87.5935 42.7969 89.3314C42.7969 91.0694 44.2058 92.4783 45.9437 92.4783Z" fill="black"/>
<path d="M45.9442 91.3249C47.0449 91.3249 47.9372 90.4326 47.9372 89.3319C47.9372 88.2312 47.0449 87.3389 45.9442 87.3389C44.8435 87.3389 43.9512 88.2312 43.9512 89.3319C43.9512 90.4326 44.8435 91.3249 45.9442 91.3249Z" fill="#65617D"/>
<path opacity="0.1" d="M45.9442 91.3249C47.0449 91.3249 47.9372 90.4326 47.9372 89.3319C47.9372 88.2312 47.0449 87.3389 45.9442 87.3389C44.8435 87.3389 43.9512 88.2312 43.9512 89.3319C43.9512 90.4326 44.8435 91.3249 45.9442 91.3249Z" fill="black"/>
<path d="M43.5312 84.4016L45.5956 89.0694C45.6263 89.1394 45.6764 89.1991 45.74 89.2416C45.8036 89.284 45.8779 89.3074 45.9544 89.3089C46.0308 89.3104 46.106 89.2901 46.1713 89.2503C46.2365 89.2104 46.289 89.1528 46.3225 89.0841L48.776 84.0869L43.5312 84.4016Z" fill="#3F3D56"/>
<path opacity="0.1" d="M43.5312 84.4016L45.5956 89.0694C45.6263 89.1394 45.6764 89.1991 45.74 89.2416C45.8036 89.284 45.8779 89.3074 45.9544 89.3089C46.0308 89.3104 46.106 89.2901 46.1713 89.2503C46.2365 89.2104 46.289 89.1528 46.3225 89.0841L48.776 84.0869L43.5312 84.4016Z" fill="black"/>
<path d="M75.7722 61.9273C75.7636 61.8478 75.7352 61.7718 75.6895 61.7062C75.6439 61.6406 75.5825 61.5875 75.511 61.5518C75.4508 61.5261 75.3861 61.5128 75.3206 61.5127C75.2552 61.5126 75.1904 61.5256 75.1301 61.5511C75.0698 61.5765 75.0153 61.6139 74.9697 61.6608C74.9241 61.7078 74.8885 61.7634 74.8649 61.8245L73.0596 66.3066L72.5352 86.4465H73.3743L73.689 66.3497L75.7282 62.2315C75.7745 62.1372 75.79 62.0308 75.7722 61.9273Z" fill="#3F3D56"/>
<path d="M38.6543 84.8736L41.4865 83.0904L72.0634 82.8281L72.8501 84.8736H38.6543Z" fill="#DBC22A"/>
<path d="M38.6543 86.7619V84.8738L73.4039 84.5381L73.3704 85.8178H39.2837V86.7619H38.6543Z" fill="#3F3D56"/>
<path d="M43.059 93.5798C44.7969 93.5798 46.2058 92.1709 46.2058 90.433C46.2058 88.695 44.7969 87.2861 43.059 87.2861C41.321 87.2861 39.9121 88.695 39.9121 90.433C39.9121 92.1709 41.321 93.5798 43.059 93.5798Z" fill="#3F3D56"/>
<path d="M43.0594 92.4264C44.1601 92.4264 45.0524 91.5341 45.0524 90.4334C45.0524 89.3327 44.1601 88.4404 43.0594 88.4404C41.9587 88.4404 41.0664 89.3327 41.0664 90.4334C41.0664 91.5341 41.9587 92.4264 43.0594 92.4264Z" fill="#65617D"/>
<path d="M40.6465 85.5032L42.7108 90.171C42.7416 90.241 42.7917 90.3007 42.8552 90.3431C42.9188 90.3855 42.9932 90.4089 43.0696 90.4105C43.146 90.412 43.2213 90.3917 43.2865 90.3518C43.3517 90.312 43.4042 90.2544 43.4377 90.1857L45.8912 85.1885L40.6465 85.5032Z" fill="#3F3D56"/>
<path d="M67.5004 93.5798C69.2383 93.5798 70.6472 92.1709 70.6472 90.433C70.6472 88.695 69.2383 87.2861 67.5004 87.2861C65.7624 87.2861 64.3535 88.695 64.3535 90.433C64.3535 92.1709 65.7624 93.5798 67.5004 93.5798Z" fill="#3F3D56"/>
<path d="M67.4998 92.4264C68.6006 92.4264 69.4928 91.5341 69.4928 90.4334C69.4928 89.3327 68.6006 88.4404 67.4998 88.4404C66.3991 88.4404 65.5068 89.3327 65.5068 90.4334C65.5068 91.5341 66.3991 92.4264 67.4998 92.4264Z" fill="#65617D"/>
<path d="M65.0879 85.5032L67.1522 90.171C67.183 90.241 67.2331 90.3007 67.2966 90.3431C67.3602 90.3855 67.4346 90.4089 67.511 90.4105C67.5874 90.412 67.6627 90.3917 67.7279 90.3518C67.7931 90.312 67.8456 90.2544 67.8791 90.1857L70.3326 85.1885L65.0879 85.5032Z" fill="#3F3D56"/>
<path d="M55.6998 76.6396H42.5879V83.8774H55.6998V76.6396Z" fill="#65617D"/>
<path opacity="0.1" d="M51.1891 77.8984H47.2031V78.7376H51.1891V77.8984Z" fill="black"/>
<path opacity="0.1" d="M50.6907 78.0029H47.7012V78.6323H50.6907V78.0029Z" fill="black"/>
<path d="M69.0211 76.6396H55.9092V83.8774H69.0211V76.6396Z" fill="#65617D"/>
<path opacity="0.1" d="M64.5104 77.8984H60.5244V78.7376H64.5104V77.8984Z" fill="black"/>
<path opacity="0.1" d="M64.012 78.0029H61.0225V78.6323H64.012V78.0029Z" fill="black"/>
<path d="M55.6998 69.1914H42.5879V76.4292H55.6998V69.1914Z" fill="#65617D"/>
<path opacity="0.1" d="M51.1891 70.4502H47.2031V71.2894H51.1891V70.4502Z" fill="black"/>
<path opacity="0.1" d="M50.6907 70.5557H47.7012V71.185H50.6907V70.5557Z" fill="black"/>
<path d="M69.0211 69.1914H55.9092V76.4292H69.0211V69.1914Z" fill="#65617D"/>
<path opacity="0.1" d="M64.5104 70.4502H60.5244V71.2894H64.5104V70.4502Z" fill="black"/>
<path opacity="0.1" d="M64.012 70.5557H61.0225V71.185H64.012V70.5557Z" fill="black"/>
<path d="M55.6998 61.6396H42.5879V68.8774H55.6998V61.6396Z" fill="#65617D"/>
<path opacity="0.1" d="M51.1891 62.8984H47.2031V63.7376H51.1891V62.8984Z" fill="black"/>
<path opacity="0.1" d="M50.6907 63.0029H47.7012V63.6323H50.6907V63.0029Z" fill="black"/>
<path d="M69.0211 61.6396H55.9092V68.8774H69.0211V61.6396Z" fill="#65617D"/>
<path opacity="0.1" d="M64.5104 62.8984H60.5244V63.7376H64.5104V62.8984Z" fill="black"/>
<path opacity="0.1" d="M64.012 63.0029H61.0225V63.6323H64.012V63.0029Z" fill="black"/>
<path d="M69.0211 54.0869H55.9092V61.3247H69.0211V54.0869Z" fill="#65617D"/>
<path opacity="0.1" d="M64.5104 55.3457H60.5244V56.1849H64.5104V55.3457Z" fill="black"/>
<path opacity="0.1" d="M64.012 55.4502H61.0225V56.0796H64.012V55.4502Z" fill="black"/>
</g>
<defs>
<linearGradient id="paint0_linear_124_1291" x1="92.08" y1="92.3878" x2="92.08" y2="41.7087" gradientUnits="userSpaceOnUse">
<stop stop-color="#808080" stop-opacity="0.25"/>
<stop offset="0.54" stop-color="#808080" stop-opacity="0.12"/>
<stop offset="1" stop-color="#808080" stop-opacity="0.1"/>
</linearGradient>
<clipPath id="clip0_124_1291">
<rect width="120" height="68.314" fill="white" transform="translate(0 25.8428)"/>
</clipPath>
</defs>
</svg>
