<svg width="20" height="24" viewBox="0 0 20 24" fill="none" xmlns="http://www.w3.org/2000/svg">
<path d="M3.33333 8.88889V6.94444C3.33333 3.16111 6.11444 0 10 0C13.8856 0 16.6667 3.16111 16.6667 6.94444V8.88889H17.2222C17.9589 8.88889 18.6655 9.18155 19.1864 9.70248C19.7073 10.2234 20 10.93 20 11.6667V20.5556C20 21.2923 19.7073 21.9988 19.1864 22.5197C18.6655 23.0407 17.9589 23.3333 17.2222 23.3333H2.77778C2.04107 23.3333 1.33453 23.0407 0.813592 22.5197C0.292658 21.9988 0 21.2923 0 20.5556V11.6667C0 10.93 0.292658 10.2234 0.813592 9.70248C1.33453 9.18155 2.04107 8.88889 2.77778 8.88889H3.33333ZM1.66667 11.6667V20.5556C1.66667 20.8502 1.78373 21.1329 1.9921 21.3412C2.20048 21.5496 2.48309 21.6667 2.77778 21.6667H17.2222C17.5169 21.6667 17.7995 21.5496 18.0079 21.3412C18.2163 21.1329 18.3333 20.8502 18.3333 20.5556V11.6667C18.3333 11.372 18.2163 11.0894 18.0079 10.881C17.7995 10.6726 17.5169 10.5556 17.2222 10.5556H2.77778C2.48309 10.5556 2.20048 10.6726 1.9921 10.881C1.78373 11.0894 1.66667 11.372 1.66667 11.6667ZM5 6.94444V8.88889H15V6.94444C15 3.97778 12.8644 1.66667 10 1.66667C7.13556 1.66667 5 3.97778 5 6.94444Z" fill="#E4E4E4"/>
<circle cx="6.111" cy="16.11" r="1.66667" fill="#E4E4E4"/>
<circle cx="10.5553" cy="16.11" r="1.66667" fill="#E4E4E4"/>
<circle cx="14.9997" cy="16.11" r="1.66667" fill="#E4E4E4"/>
</svg>
