<svg width="120" height="120" viewBox="0 0 120 120" fill="none" xmlns="http://www.w3.org/2000/svg">
<circle cx="60" cy="60" r="60" fill="#F4F6F8"/>
<path d="M74.7461 61.7054V48.2373C74.7458 48.1166 74.7136 47.9982 74.653 47.8939C74.5923 47.7896 74.5052 47.7032 74.4005 47.6432L55.6543 36.8201C55.5504 36.7601 55.4325 36.7285 55.3125 36.7285C55.1925 36.7285 55.0746 36.7601 54.9707 36.8201L36.2332 47.6382C36.1259 47.6971 36.0364 47.7839 35.9741 47.8893C35.9118 47.9946 35.8789 48.1148 35.8789 48.2373V71.7627C35.8789 71.8827 35.9105 72.0005 35.9705 72.1045C36.0305 72.2084 36.1168 72.2947 36.2207 72.3547L54.9707 83.1799C55.0746 83.2399 55.1925 83.2715 55.3125 83.2715C55.4325 83.2715 55.5504 83.2399 55.6543 83.1799L65.7248 77.3664C66.6795 78.7814 67.9785 79.9301 69.4996 80.7045C71.0207 81.4789 72.7139 81.8535 74.4197 81.793C76.1255 81.7325 77.7879 81.2389 79.2503 80.3586C80.7127 79.4784 81.9271 78.2405 82.7791 76.7614C83.6311 75.2824 84.0926 73.6108 84.1204 71.9042C84.1481 70.1975 83.7411 68.5118 82.9376 67.0059C82.1341 65.4999 80.9606 64.2232 79.5275 63.2959C78.0945 62.3686 76.449 61.8213 74.7461 61.7054ZM66.1646 44.467L48.7833 54.5019L45.3721 52.5322L62.753 42.4972L66.1646 44.467ZM48.0859 55.6664V68.1966L46.7969 66.7436C46.6997 66.6365 46.572 66.5617 46.4309 66.5295C46.2899 66.4972 46.1424 66.5091 46.0083 66.5635L44.668 67.1109V53.7156L48.0859 55.6664ZM55.3125 38.2014L61.3858 41.7079L44.0044 51.7431L37.9315 48.2364L55.3125 38.2014ZM54.6289 81.4039L37.2461 71.368V49.4193L43.3008 52.9268V68.1328C43.303 68.2458 43.3327 68.3566 43.3873 68.4556C43.4418 68.5546 43.5197 68.6388 43.6141 68.701C43.7085 68.7632 43.8166 68.8015 43.9291 68.8126C44.0416 68.8237 44.1551 68.8072 44.2599 68.7646L46.0815 68.0136L48.2356 70.4595C48.2999 70.5324 48.379 70.5908 48.4676 70.6308C48.5562 70.6707 48.6523 70.6914 48.7495 70.6914C48.8352 70.6914 48.9203 70.6765 49.0009 70.6473C49.1319 70.5988 49.2453 70.5117 49.326 70.3976C49.4067 70.2834 49.451 70.1476 49.4531 70.0078V56.4557L54.6289 59.4552V81.4039ZM55.3125 58.2715L50.1505 55.2912L67.5318 45.2563L72.6934 48.2363L55.3125 58.2715ZM55.9961 81.4042V59.4552L73.3789 49.4192V61.7054C71.7313 61.8178 70.1368 62.3341 68.736 63.2087C67.3352 64.0834 66.1713 65.2894 65.3469 66.7203C64.5226 68.1512 64.0632 69.7631 64.0093 71.4136C63.9553 73.0642 64.3086 74.7026 65.0378 76.1843L55.9961 81.4042ZM74.0625 80.4319C72.3435 80.4319 70.6631 79.9222 69.2338 78.9672C67.8045 78.0121 66.6905 76.6547 66.0327 75.0666C65.3749 73.4784 65.2027 71.7309 65.5381 70.0449C65.8735 68.3589 66.7012 66.8103 67.9167 65.5948C69.1323 64.3792 70.6809 63.5515 72.3669 63.2161C74.0529 62.8807 75.8004 63.0529 77.3886 63.7107C78.9767 64.3685 80.3341 65.4825 81.2891 66.9118C82.2442 68.3411 82.7539 70.0215 82.7539 71.7405C82.7456 74.043 81.8272 76.2489 80.199 77.877C78.5709 79.5051 76.365 80.4234 74.0625 80.4316V80.4319Z" fill="#B5B5B5"/>
<path d="M61.061 59.4761C60.9866 59.3974 60.8946 59.3374 60.7925 59.3012C60.6904 59.2649 60.5811 59.2534 60.4737 59.2676C60.3663 59.2818 60.2638 59.3213 60.1746 59.3829C60.0854 59.4444 60.0121 59.5263 59.9607 59.6217L58.3104 62.692C58.2544 62.7961 58.2263 62.9129 58.229 63.0311C58.2316 63.1492 58.2648 63.2647 58.3254 63.3662C58.386 63.4677 58.4719 63.5517 58.5746 63.6101C58.6774 63.6685 58.7935 63.6993 58.9117 63.6994C59.037 63.6997 59.16 63.6664 59.268 63.6031C59.3761 63.5398 59.4652 63.4487 59.5262 63.3393L59.9023 62.6609V68.5372C59.9023 68.7185 59.9744 68.8924 60.1026 69.0206C60.2308 69.1488 60.4046 69.2208 60.5859 69.2208C60.7672 69.2208 60.9411 69.1488 61.0693 69.0206C61.1975 68.8924 61.2695 68.7185 61.2695 68.5372V61.6652L61.8252 62.2662C61.8862 62.3314 61.9596 62.3839 62.041 62.4207C62.1224 62.4574 62.2103 62.4777 62.2996 62.4802C62.3889 62.4828 62.4778 62.4677 62.5613 62.4357C62.6447 62.4038 62.7209 62.3556 62.7856 62.294C62.8508 62.2322 62.9031 62.1581 62.9396 62.0761C62.9761 61.994 62.9961 61.9056 62.9984 61.8158C63.0007 61.726 62.9853 61.6366 62.9531 61.5528C62.9209 61.469 62.8724 61.3923 62.8105 61.3272L61.061 59.4761ZM39.0039 68.0518C38.8226 68.0518 38.6487 68.1238 38.5205 68.252C38.3923 68.3802 38.3203 68.5541 38.3203 68.7354V71.2667C38.3203 71.448 38.3923 71.6218 38.5205 71.75C38.6487 71.8782 38.8226 71.9503 39.0039 71.9503C39.1852 71.9503 39.3591 71.8782 39.4873 71.75C39.6155 71.6218 39.6875 71.448 39.6875 71.2667V68.7354C39.6875 68.5541 39.6155 68.3802 39.4873 68.252C39.3591 68.1238 39.1852 68.0518 39.0039 68.0518ZM41.7383 69.9268C41.557 69.9268 41.3831 69.9988 41.2549 70.127C41.1267 70.2552 41.0547 70.4291 41.0547 70.6104V72.8907C41.0547 73.072 41.1267 73.2459 41.2549 73.3741C41.3831 73.5023 41.557 73.5743 41.7383 73.5743C41.9196 73.5743 42.0935 73.5023 42.2217 73.3741C42.3499 73.2459 42.4219 73.072 42.4219 72.8907V70.6104C42.4219 70.4291 42.3499 70.2552 42.2217 70.127C42.0935 69.9988 41.9196 69.9268 41.7383 69.9268ZM44.5703 71.8018C44.389 71.8018 44.2151 71.8738 44.0869 72.002C43.9587 72.1302 43.8867 72.3041 43.8867 72.4854V74.4932C43.8867 74.6745 43.9587 74.8484 44.0869 74.9766C44.2151 75.1048 44.389 75.1768 44.5703 75.1768C44.7516 75.1768 44.9255 75.1048 45.0537 74.9766C45.1819 74.8484 45.2539 74.6745 45.2539 74.4932V72.4854C45.2539 72.3041 45.1819 72.1302 45.0537 72.002C44.9255 71.8738 44.7516 71.8018 44.5703 71.8018ZM47.3047 73.6768C47.1234 73.6768 46.9495 73.7488 46.8213 73.877C46.6931 74.0052 46.6211 74.1791 46.6211 74.3604V76.0958C46.6211 76.2771 46.6931 76.4509 46.8213 76.5791C46.9495 76.7073 47.1234 76.7794 47.3047 76.7794C47.486 76.7794 47.6599 76.7073 47.7881 76.5791C47.9163 76.4509 47.9883 76.2771 47.9883 76.0958V74.3604C47.9883 74.1791 47.9163 74.0052 47.7881 73.877C47.6599 73.7488 47.486 73.6768 47.3047 73.6768ZM49.4531 77.7354C49.4531 77.9167 49.5251 78.0906 49.6533 78.2188C49.7815 78.347 49.9554 78.419 50.1367 78.419C50.318 78.419 50.4919 78.347 50.6201 78.2188C50.7483 78.0906 50.8203 77.9167 50.8203 77.7354V76.2354C50.8203 76.0541 50.7483 75.8802 50.6201 75.752C50.4919 75.6238 50.318 75.5518 50.1367 75.5518C49.9554 75.5518 49.7815 75.6238 49.6533 75.752C49.5251 75.8802 49.4531 76.0541 49.4531 76.2354V77.7354ZM61.9688 69.5183L58.8545 71.3162C58.6975 71.4068 58.5829 71.5561 58.536 71.7313C58.489 71.9064 58.5136 72.093 58.6042 72.25C58.6949 72.407 58.8442 72.5216 59.0193 72.5685C59.1945 72.6155 59.3811 72.5909 59.5381 72.5003L62.6523 70.7024C62.8094 70.6118 62.9239 70.4625 62.9709 70.2873C63.0178 70.1122 62.9932 69.9256 62.9026 69.7686C62.8119 69.6116 62.6626 69.497 62.4875 69.45C62.3124 69.4031 62.1258 69.4277 61.9688 69.5183ZM74.7461 71.4439V65.6612C74.7461 65.4799 74.6741 65.306 74.5459 65.1778C74.4177 65.0496 74.2438 64.9776 74.0625 64.9776C73.8812 64.9776 73.7073 65.0496 73.5791 65.1778C73.4509 65.306 73.3789 65.4799 73.3789 65.6612V71.7403C73.3789 71.8339 73.3981 71.9264 73.4353 72.0123C73.4726 72.0981 73.527 72.1754 73.5953 72.2393L76.7242 75.169C76.8568 75.2918 77.0325 75.3572 77.2131 75.3508C77.3937 75.3444 77.5644 75.2667 77.6879 75.1348C77.8114 75.0029 77.8777 74.8275 77.8722 74.6468C77.8667 74.4662 77.7899 74.2951 77.6586 74.171L74.7461 71.4439Z" fill="#B5B5B5"/>
</svg>
