<svg width="20" height="20" viewBox="0 0 20 20" fill="none" xmlns="http://www.w3.org/2000/svg">
<path d="M14.4217 20C6.46973 20 0 13.5303 0 5.57832C0.00300688 4.21432 0.501227 2.89783 1.40203 1.87361C2.30283 0.849379 3.54492 0.187115 4.89736 0.00994472C5.24213 -0.0282818 5.59011 0.0443053 5.89083 0.21718C6.19156 0.390054 6.42941 0.654228 6.56988 0.97139L8.5829 5.66845C8.68732 5.91226 8.72919 6.17829 8.7047 6.44238C8.68022 6.70648 8.59016 6.96027 8.44269 7.18073L6.78019 9.72455C7.53301 11.2523 8.77344 12.4857 10.3055 13.2298L12.8193 11.5573C13.0395 11.4089 13.2939 11.319 13.5585 11.2962C13.8231 11.2734 14.0892 11.3185 14.3315 11.4271L19.0286 13.4301C19.3458 13.5706 19.6099 13.8084 19.7828 14.1092C19.9557 14.4099 20.0283 14.7579 19.9901 15.1026C19.8129 16.4551 19.1506 17.6972 18.1264 18.598C17.1022 19.4988 15.7857 19.997 14.4217 20ZM5.09766 1.60234C4.13116 1.72658 3.24308 2.19885 2.5997 2.93071C1.95632 3.66258 1.60176 4.60386 1.60241 5.57832C1.60506 8.97739 2.95651 12.2365 5.36002 14.64C7.76352 17.0435 11.0226 18.3949 14.4217 18.3976C15.3961 18.3982 16.3374 18.0437 17.0693 17.4003C17.8012 16.7569 18.2734 15.8688 18.3977 14.9023L13.7006 12.8993L11.1968 14.5718C10.9665 14.7241 10.7006 14.8143 10.4251 14.8336C10.1496 14.8529 9.87383 14.8007 9.62447 14.682C7.75861 13.7794 6.24933 12.2772 5.33803 10.4156C5.21787 10.1671 5.16396 9.89173 5.1815 9.61625C5.19905 9.34077 5.28746 9.07449 5.43818 8.84323L7.11069 6.2994L5.09766 1.60234Z" fill="#E4E4E4"/>
</svg>
