<svg width="849" height="144" viewBox="0 0 849 144" fill="none" xmlns="http://www.w3.org/2000/svg">
<g opacity="0.2">
<path fill-rule="evenodd" clip-rule="evenodd" d="M385.387 45.5779C385.387 52.3723 387.878 58.5637 391.977 63.2428C396.679 68.6126 403.498 71.9886 411.099 72C414.421 72.0048 417.597 71.363 420.515 70.1912C422.023 69.5852 423.712 69.6547 425.173 70.3728C426.887 71.214 428.806 71.6856 430.832 71.6856C431.669 71.6856 432.489 71.6045 433.282 71.4507C435.546 71.013 437.606 69.9774 439.297 68.5105C440.36 67.5882 441.722 67.1247 443.113 67.1263H443.137C447.735 67.1263 452.006 65.6952 455.552 63.2428C458.723 61.0532 461.311 58.0482 463.036 54.5199C464.54 51.4452 465.387 47.9719 465.387 44.2959C465.387 31.6878 455.424 21.4654 443.137 21.4654C441.884 21.4654 440.657 21.574 439.46 21.7765C436.29 16.5105 430.613 13 424.136 13C421.402 13 418.81 13.6257 416.49 14.7473C414.283 15.8104 412.321 17.3211 410.716 19.1622C405.267 19.2514 400.228 21.0781 396.104 24.1267C389.612 28.9227 385.387 36.7446 385.387 45.5779Z" fill="url(#paint0_linear_194_6827)"/>
</g>
<path opacity="0.05" d="M434.221 46.792C433.846 47.2301 433.442 47.2227 433.201 47.161L433.21 46.9341C433.21 46.9341 434.206 46.4863 434.181 46.5804C434.171 46.6156 434.19 46.7004 434.221 46.792Z" fill="#FF4842"/>
<path opacity="0.05" d="M436.952 47.2882C436.316 47.6498 435.943 47.2259 435.856 47.1059C435.909 46.9682 435.989 46.7448 435.973 46.6811C435.949 46.5865 436.944 47.0344 436.944 47.0344L436.952 47.2882Z" fill="#FF4842"/>
<path opacity="0.05" d="M436.271 43.6807C436.271 43.6807 436.876 43.3377 437.008 43.4921C437.14 43.6464 436.271 43.6807 436.271 43.6807Z" fill="#FF4842"/>
<path opacity="0.05" d="M436.636 43.8691C436.636 43.8691 436.537 43.9181 436.756 43.9809C436.976 44.0436 436.636 43.8691 436.636 43.8691Z" fill="#FF4842"/>
<path opacity="0.05" d="M432.975 42.9265C432.955 42.9324 433.479 43.2744 433.952 42.9912C433.95 42.9912 433.093 42.8912 432.975 42.9265Z" fill="#FF4842"/>
<path opacity="0.05" d="M433.927 43.5801C433.927 43.5801 433.783 43.8574 433.489 43.8986C433.195 43.9397 433.927 43.5801 433.927 43.5801Z" fill="#FF4842"/>
<path opacity="0.05" d="M435.851 44.1816C435.851 44.1816 436.541 45.2596 436.409 45.5139C436.277 45.7682 435.851 44.1816 435.851 44.1816Z" fill="#FF4842"/>
<path opacity="0.05" d="M434.49 48.4683C434.49 48.5286 434.49 48.5849 434.484 48.6315C434.466 48.8495 433.921 48.7672 433.921 48.7672C433.422 48.8353 433.243 48.6001 433.184 48.3752C433.165 48.3022 433.156 48.2271 433.156 48.1518C433.156 48.1069 433.159 48.062 433.165 48.0175V47.973C433.273 47.9411 433.389 47.9645 433.475 48.0352C433.697 48.2121 433.991 48.0763 433.991 48.0763C433.991 48.0763 434.207 48.094 434.29 48.1645C434.337 48.2042 434.414 48.1087 434.473 48.0175C434.476 48.0763 434.482 48.1827 434.485 48.2963C434.489 48.3546 434.49 48.4134 434.49 48.4683Z" fill="#FF4842"/>
<path opacity="0.05" d="M433.615 48.4551C433.615 48.4551 433.466 48.5992 433.184 48.3768C433.165 48.3037 433.156 48.2286 433.156 48.1533C433.3 48.2611 433.567 48.4551 433.615 48.4551Z" fill="#FF4842"/>
<path opacity="0.05" d="M434.49 48.4684C434.465 48.487 434.434 48.4949 434.403 48.49C434.373 48.4852 434.346 48.4682 434.328 48.4429C434.386 48.3994 434.44 48.3501 434.488 48.2959C434.489 48.3547 434.49 48.4135 434.49 48.4684Z" fill="#FF4842"/>
<path opacity="0.05" d="M435.66 48.5696C435.66 48.6303 435.66 48.6867 435.665 48.7327C435.683 48.9513 436.229 48.8684 436.229 48.8684C436.727 48.937 436.907 48.7019 436.966 48.4765C436.995 48.3595 437.001 48.2381 436.984 48.1188V48.0742C436.877 48.0429 436.76 48.0662 436.674 48.1364C436.452 48.3133 436.159 48.1776 436.159 48.1776C436.159 48.1776 435.943 48.1957 435.86 48.2663C435.813 48.3059 435.736 48.2104 435.677 48.1193C435.674 48.1781 435.668 48.2844 435.664 48.3981C435.66 48.4554 435.659 48.5142 435.66 48.5696Z" fill="#FF4842"/>
<path opacity="0.05" d="M436.535 48.5552C436.535 48.5552 436.684 48.6993 436.966 48.4768C436.984 48.404 436.994 48.3291 436.994 48.2539C436.849 48.3612 436.582 48.5552 436.535 48.5552Z" fill="#FF4842"/>
<path opacity="0.05" d="M435.66 48.569C435.684 48.5876 435.716 48.5954 435.746 48.5906C435.777 48.5858 435.804 48.5687 435.821 48.5435C435.763 48.5 435.71 48.4508 435.662 48.3965C435.66 48.4548 435.659 48.5136 435.66 48.569Z" fill="#FF4842"/>
<g opacity="0.05">
<path d="M438.656 30.4159C438.666 30.3934 438.676 30.3709 438.686 30.3488C438.695 30.3268 438.699 30.3145 438.704 30.2969C438.686 30.3357 438.67 30.3754 438.656 30.4159Z" fill="#FF4842"/>
</g>
<path fill-rule="evenodd" clip-rule="evenodd" d="M411.652 58.8007C411.532 58.6578 411.476 58.4721 411.499 58.2877L413.699 40.591L413.881 39.1211C413.923 38.7828 414.214 38.5279 414.561 38.5253L421.003 38.4831C421.188 38.482 421.366 38.4075 421.494 38.2765C421.623 38.1455 421.693 37.969 421.688 37.7868L421.685 37.7197C421.679 37.536 421.749 37.3576 421.879 37.2254C422.009 37.0932 422.187 37.0186 422.374 37.0186H429.144C429.524 37.0186 429.832 37.3211 429.833 37.6947C429.833 37.7252 429.831 37.7556 429.827 37.7859C429.801 37.9766 429.859 38.1692 429.986 38.3156C430.113 38.4619 430.297 38.5483 430.493 38.5532L436.995 38.7163C437.195 38.7212 437.383 38.8113 437.51 38.9634C437.637 39.1154 437.69 39.3142 437.656 39.5082L434.406 58.1765L434.345 58.5293C434.33 58.6194 434.296 58.7055 434.245 58.7821L411.652 58.8007Z" fill="#E9E3E4"/>
<rect width="3.78653" height="12.7757" transform="matrix(0.827169 0.561954 -0.574886 0.818233 431.272 33.2695)" fill="white"/>
<rect width="2.6731" height="2.65749" transform="matrix(0.825566 0.564305 -0.577239 0.816575 431.498 33.7646)" fill="#FFC107"/>
<rect opacity="0.5" width="2.67684" height="2.66097" transform="matrix(0.827169 0.561954 -0.574886 0.818233 429.77 36.3799)" fill="#FFC107"/>
<rect opacity="0.3" width="2.67684" height="2.66097" transform="matrix(0.827169 0.561953 -0.574886 0.818233 427.922 39.0078)" fill="#FFC107"/>
<rect width="3.80196" height="12.6747" transform="matrix(0.961105 0.276184 -0.284871 0.958566 426.847 32.6143)" fill="white"/>
<rect width="2.68775" height="2.64995" transform="matrix(0.961105 0.276184 -0.284871 0.958566 427.327 32.9648)" fill="#FF4842"/>
<rect opacity="0.5" width="2.68775" height="2.64995" transform="matrix(0.961105 0.276184 -0.284871 0.958566 426.416 36.0322)" fill="#FF4842"/>
<rect opacity="0.3" width="2.68775" height="2.64995" transform="matrix(0.961105 0.276184 -0.28487 0.958566 425.504 39.0977)" fill="#FF4842"/>
<rect width="3.80651" height="12.6591" transform="matrix(0.996885 0.0788706 -0.0815493 0.996669 424.259 32.8057)" fill="white"/>
<rect width="2.69096" height="2.64669" transform="matrix(0.996885 0.0788706 -0.0815493 0.996669 424.799 33.0537)" fill="#1890FF"/>
<rect opacity="0.5" width="2.69096" height="2.64669" transform="matrix(0.996885 0.0788707 -0.0815492 0.996669 424.538 36.2383)" fill="#1890FF"/>
<rect opacity="0.3" width="2.69096" height="2.64668" transform="matrix(0.996885 0.0788706 -0.0815493 0.996669 424.278 39.4229)" fill="#1890FF"/>
<rect width="3.80678" height="12.6582" transform="matrix(0.998997 -0.0447799 0.0463075 0.998927 422.552 33.3135)" fill="white"/>
<rect width="2.69116" height="2.64649" transform="matrix(0.998997 -0.0447799 0.0463075 0.998927 423.119 33.4922)" fill="#7C7338"/>
<rect opacity="0.5" width="2.6945" height="2.64981" transform="matrix(0.998793 -0.0491074 0.0507818 0.99871 423.372 36.582)" fill="#7C7338"/>
<rect opacity="0.3" width="2.69116" height="2.64649" transform="matrix(0.998997 -0.0447799 0.0463075 0.998927 423.415 39.875)" fill="#7C7338"/>
<path d="M424.166 49.9939L420.784 51.2806L415.841 53.1596C415.654 52.8167 415.379 52.3531 415.038 51.7999C413.867 49.8919 411.93 46.9241 410.205 44.3159C408.262 41.3761 406.589 38.8953 406.589 38.8953L407.8 38.5523L417.691 35.7285L424.166 49.9939Z" fill="#F4F6F8"/>
<path opacity="0.1" d="M424.167 49.9939L420.784 51.2806C418.895 51.6676 416.967 51.8419 415.037 51.7999C413.866 49.8919 411.929 46.9241 410.204 44.3159L407.8 38.5503L417.691 35.7285L424.167 49.9939Z" fill="black"/>
<path d="M426.683 49.1933C426.683 49.1933 421.429 52.2498 413.584 51.5584L407.33 36.565L410.327 36.0583L420.688 34.3086L426.568 48.9017L426.683 49.1933Z" fill="#7C7338"/>
<path opacity="0.1" d="M426.566 48.9037C425.329 48.9635 423.897 48.9576 422.457 48.7885C420.898 48.6082 419.331 48.2368 417.987 47.5557C416.863 46.9869 415.902 46.368 415.065 45.6257C412.886 43.6986 411.537 40.942 410.327 36.0603L420.688 34.3105L426.566 48.9037Z" fill="#FF4842"/>
<path d="M430.421 48.0654C430.421 48.0654 426.547 48.8111 422.605 48.352C421.046 48.1717 419.479 47.8003 418.135 47.1192C417.011 46.5503 416.051 45.9315 415.213 45.1892C412.516 42.8034 411.092 39.1472 409.624 31.7636C409.624 31.7636 416.062 33.2919 422.43 29.9443C422.428 29.9468 424.574 43.1165 430.421 48.0654Z" fill="white"/>
<path opacity="0.3" d="M412.954 34.4741C412.954 34.4741 418.19 34.1831 419.652 33.0732L419.874 33.7739C419.874 33.7739 416.414 35.2747 412.954 35.2929V34.4741Z" fill="#7C7338"/>
<path opacity="0.3" d="M412.954 37.934C412.954 37.934 418.024 37.6611 421.854 35.8418L421.984 36.1328C421.984 36.1328 418.944 37.8777 412.954 38.3343V37.934Z" fill="#7C7338"/>
<path opacity="0.3" d="M413.362 39.2817C413.362 39.2817 418.432 39.0088 422.262 37.1895L422.391 37.4805C422.391 37.4805 419.352 39.2248 413.362 39.682V39.2817Z" fill="#7C7338"/>
<path opacity="0.3" d="M413.77 40.6313C413.77 40.6313 418.84 40.3584 422.67 38.5391L422.799 38.8301C422.799 38.8301 419.759 40.5749 413.77 41.0316V40.6313Z" fill="#7C7338"/>
<path opacity="0.3" d="M414.178 41.9809C414.178 41.9809 419.247 41.708 423.077 39.8887L423.207 40.1797C423.207 40.1797 420.167 41.9245 414.178 42.3812V41.9809Z" fill="#7C7338"/>
<path opacity="0.3" d="M414.585 43.3315C414.585 43.3315 419.655 43.0586 423.485 41.2393L423.614 41.5303C423.614 41.5303 420.575 43.2746 414.585 43.7318V43.3315Z" fill="#7C7338"/>
<path d="M450.231 60.0925C450.231 60.0925 448.125 59.9676 448.373 61.4194C448.373 61.4194 448.323 61.6757 448.56 61.7923C448.56 61.7923 448.564 61.6845 448.776 61.7212C448.852 61.7338 448.929 61.7374 449.005 61.732C449.109 61.7252 449.207 61.6853 449.285 61.6183C449.285 61.6183 449.877 61.3778 450.107 60.4262C450.107 60.4262 450.278 60.2185 450.271 60.1651L449.916 60.3121C449.916 60.3121 450.037 60.5644 449.941 60.7736C449.941 60.7736 449.93 60.3214 449.862 60.3326C449.848 60.3326 449.677 60.4198 449.677 60.4198C449.677 60.4198 449.886 60.8608 449.727 61.1783C449.727 61.1783 449.787 60.6369 449.61 60.4517L449.361 60.5953C449.361 60.5953 449.605 61.049 449.44 61.4194C449.44 61.4194 449.482 60.8515 449.308 60.63L449.081 60.804C449.081 60.804 449.311 61.2513 449.171 61.5586C449.171 61.5586 449.153 60.8971 449.032 60.8471C449.032 60.8471 448.833 61.0191 448.804 61.0921C448.804 61.0921 448.961 61.4165 448.863 61.588C448.863 61.588 448.803 61.147 448.755 61.147C448.755 61.147 448.555 61.441 448.536 61.637C448.536 61.637 448.545 61.3391 448.707 61.1171C448.593 61.1385 448.487 61.1921 448.404 61.2714C448.404 61.2714 448.435 61.0647 448.756 61.047C448.756 61.047 448.919 60.8256 448.962 60.8118C448.962 60.8118 448.643 60.7859 448.45 60.8701C448.45 60.8701 448.621 60.6741 449.021 60.7638L449.245 60.5845C449.245 60.5845 448.825 60.5276 448.647 60.5904C448.647 60.5904 448.852 60.4179 449.305 60.5414L449.549 60.3983C449.549 60.3983 449.191 60.3223 448.978 60.3493C448.978 60.3493 449.203 60.2297 449.621 60.3591L449.794 60.2822C449.794 60.2822 449.532 60.2332 449.456 60.2234C449.379 60.2136 449.374 60.1949 449.374 60.1949C449.541 60.1674 449.711 60.1861 449.867 60.2488C449.867 60.2488 450.237 60.1156 450.231 60.0925Z" fill="#7C7338"/>
<ellipse opacity="0.1" cx="448.78" cy="61.9188" rx="1.49087" ry="0.247931" fill="#7C7338"/>
<path d="M451.213 55.3004C451.213 55.3004 450.025 55.2298 450.166 56.0486C450.152 56.1336 450.194 56.2184 450.272 56.2588C450.272 56.2588 450.274 56.198 450.394 56.2186C450.436 56.2255 450.48 56.2275 450.523 56.2245C450.581 56.2208 450.636 56.1984 450.68 56.1608C450.68 56.1608 451.014 56.025 451.144 55.4885C451.144 55.4885 451.24 55.3714 451.236 55.3415L451.037 55.4253C451.037 55.4253 451.105 55.5679 451.051 55.686C451.051 55.686 451.045 55.4307 451.007 55.4366C450.999 55.4366 450.902 55.4856 450.902 55.4856C450.902 55.4856 451.02 55.7306 450.931 55.9133C450.931 55.9133 450.965 55.6081 450.866 55.5032L450.725 55.5845C450.725 55.5845 450.862 55.8403 450.769 56.049C450.769 56.049 450.793 55.7286 450.695 55.6041L450.567 55.7021C450.567 55.7021 450.696 55.9545 450.617 56.1274C450.617 56.1274 450.606 55.7546 450.539 55.7266C450.49 55.767 450.447 55.8129 450.41 55.8633C450.41 55.8633 450.498 56.0466 450.443 56.1431C450.443 56.1431 450.41 55.8947 450.382 55.8937C450.382 55.8937 450.271 56.0579 450.259 56.1706C450.265 56.066 450.298 55.9646 450.355 55.8766C450.291 55.8885 450.231 55.9188 450.184 55.9638C450.184 55.9638 450.202 55.8472 450.384 55.8374C450.384 55.8374 450.476 55.7124 450.5 55.7046C450.5 55.7046 450.32 55.6899 450.211 55.7374C450.211 55.7374 450.307 55.6277 450.533 55.6776L450.66 55.5762C450.66 55.5762 450.423 55.5444 450.322 55.5796C450.322 55.5796 450.438 55.4816 450.694 55.5532L450.831 55.4723C450.725 55.4496 450.617 55.4405 450.509 55.4454C450.509 55.4454 450.636 55.3778 450.871 55.4508L450.971 55.4077C450.971 55.4077 450.821 55.3788 450.779 55.3743C450.737 55.3699 450.733 55.3582 450.733 55.3582C450.827 55.3428 450.923 55.3534 451.012 55.3885C451.012 55.3885 451.217 55.3131 451.213 55.3004Z" fill="#7C7338"/>
<ellipse opacity="0.1" cx="450.395" cy="56.3291" rx="0.840612" ry="0.139646" fill="#7C7338"/>
<path d="M444.203 56.0106C444.203 56.0106 442.769 55.9254 442.938 56.9137C442.92 57.0164 442.971 57.1189 443.065 57.1675C443.065 57.1675 443.065 57.094 443.215 57.1185C443.266 57.127 443.319 57.1295 443.371 57.1258C443.441 57.1212 443.508 57.094 443.561 57.0484C443.561 57.0484 443.964 56.8848 444.121 56.237C444.121 56.237 444.237 56.0959 444.232 56.0591L443.988 56.1611C443.988 56.1611 444.07 56.3326 444.005 56.4751C444.005 56.4751 443.997 56.1674 443.951 56.1743C443.941 56.1743 443.825 56.2341 443.825 56.2341C443.825 56.2341 443.967 56.533 443.86 56.7505C443.86 56.7505 443.901 56.382 443.781 56.2556L443.61 56.3536C443.61 56.3536 443.776 56.6628 443.664 56.9147C443.664 56.9147 443.693 56.5281 443.575 56.3757L443.42 56.4942C443.42 56.4942 443.577 56.7985 443.481 57.0077C443.481 57.0077 443.469 56.5575 443.387 56.5236C443.387 56.5236 443.252 56.6408 443.231 56.6888C443.231 56.6888 443.338 56.9098 443.272 57.0264C443.272 57.0264 443.231 56.7265 443.197 56.725C443.197 56.725 443.063 56.924 443.048 57.0597C443.055 56.9338 443.095 56.8119 443.164 56.7059C443.086 56.7205 443.015 56.7571 442.958 56.8113C442.958 56.8113 442.979 56.6706 443.197 56.6584C443.197 56.6584 443.308 56.5075 443.338 56.4987C443.338 56.4987 443.121 56.4805 442.99 56.5379C442.99 56.5379 443.105 56.4056 443.378 56.4658L443.53 56.3433C443.53 56.3433 443.245 56.3051 443.123 56.3473C443.123 56.3473 443.263 56.2301 443.572 56.3159L443.737 56.2179C443.737 56.2179 443.494 56.1664 443.348 56.1851C443.348 56.1851 443.502 56.1037 443.786 56.1919L443.904 56.1395C443.904 56.1395 443.726 56.1052 443.674 56.0998C443.621 56.0944 443.619 56.0802 443.619 56.0802C443.732 56.0614 443.848 56.0739 443.954 56.1165C443.954 56.1165 444.207 56.0258 444.203 56.0106Z" fill="#7C7338"/>
<ellipse opacity="0.1" cx="443.215" cy="57.2535" rx="1.01501" ry="0.168553" fill="#7C7338"/>
<rect width="8.37618" height="15.1946" rx="4.18809" transform="matrix(0.313911 -0.949452 0.952509 0.304511 431.742 33.4883)" fill="white"/>
<g opacity="0.2">
<ellipse cx="435.989" cy="29.9633" rx="1.56263" ry="1.53658" fill="#7C7338"/>
</g>
<g opacity="0.2">
<rect width="0.421582" height="6.79733" transform="matrix(0.313911 -0.949452 0.952509 0.304511 439.728 29.6865)" fill="#7C7338"/>
</g>
<g opacity="0.2">
<rect width="0.421582" height="3.4626" transform="matrix(0.313911 -0.949452 0.952509 0.304511 439.39 30.707)" fill="#7C7338"/>
</g>
<g opacity="0.2">
<rect width="0.421582" height="5.60035" transform="matrix(0.313911 -0.949452 0.952509 0.304511 439.052 31.7285)" fill="#7C7338"/>
</g>
<g opacity="0.2">
<rect width="0.421582" height="6.79733" transform="matrix(0.313911 -0.949452 0.952509 0.304512 438.715 32.749)" fill="#7C7338"/>
</g>
<g opacity="0.5">
<rect width="0.815189" height="1.88104" transform="matrix(0.313911 -0.949453 0.952509 0.304512 442.787 36.0938)" fill="#7C7338"/>
</g>
<rect width="8.28476" height="12.9875" rx="4" transform="matrix(0.547195 -0.837005 0.845274 0.534334 430.414 48.0098)" fill="white"/>
<rect width="2.34375" height="0.555422" transform="matrix(0.542696 -0.839929 0.848088 0.529856 432.041 47.5264)" fill="#DFE3E8"/>
<rect width="5.14739" height="0.509303" transform="matrix(0.542697 -0.839928 0.848088 0.529855 433.546 47.9258)" fill="#DFE3E8"/>
<rect width="5.14739" height="0.509302" transform="matrix(0.542697 -0.839929 0.848088 0.529856 434.469 48.501)" fill="#DFE3E8"/>
<rect width="5.14739" height="0.509303" transform="matrix(0.542697 -0.839928 0.848088 0.529855 435.392 49.0781)" fill="#DFE3E8"/>
<rect width="5.1406" height="0.508548" transform="matrix(0.547195 -0.837005 0.845274 0.534334 436.346 49.9141)" fill="#DFE3E8"/>
<rect width="5.14739" height="0.509302" transform="matrix(0.542697 -0.839929 0.848088 0.529856 437.237 50.2305)" fill="#F4F6F8"/>
<rect width="5.14739" height="0.509303" transform="matrix(0.542697 -0.839928 0.848088 0.529855 438.16 50.8066)" fill="#F4F6F8"/>
<rect width="1.33289" height="1.34244" transform="matrix(0.542696 -0.839929 0.848087 0.529856 442.033 48.3506)" fill="#DFE3E8"/>
<path d="M430.266 40.6582L422.638 40.7391C422.353 40.742 422.123 40.9703 422.123 41.2511V41.8709C422.123 42.1489 421.897 42.3761 421.614 42.383L416.11 42.5128C415.87 42.5187 415.657 42.3625 415.595 42.1345L415.336 41.2002C415.274 40.9747 415.065 40.8191 414.827 40.8219L407.475 40.8998C407.323 40.9013 407.178 40.9684 407.081 41.0834C406.983 41.1984 406.941 41.3498 406.967 41.4976L409.925 58.6156C409.967 58.8613 410.183 59.0414 410.436 59.0424L433.664 59.1404C433.819 59.1409 433.967 59.073 434.066 58.9552C434.166 58.8374 434.206 58.6821 434.177 58.5318L430.783 41.0742C430.736 40.8309 430.518 40.6557 430.266 40.6582Z" fill="url(#paint1_linear_194_6827)"/>
<ellipse opacity="0.1" cx="405.319" cy="55.3925" rx="0.807723" ry="0.109267" fill="#7C7338"/>
<ellipse opacity="0.1" cx="402.225" cy="55.7001" rx="0.807723" ry="0.109266" fill="#7C7338"/>
<ellipse opacity="0.1" cx="403.463" cy="56.5794" rx="0.574027" ry="0.0774175" fill="#7C7338"/>
<ellipse opacity="0.1" cx="400.252" cy="56.5012" rx="0.574027" ry="0.0774175" fill="#7C7338"/>
<path d="M402.207 55.6761C402.207 55.6761 403.34 52.0248 402.03 50.5622C401.05 49.468 399.937 49.5989 399.439 49.7341C399.178 49.8026 398.961 49.9801 398.845 50.2197C398.671 50.5891 398.702 51.1888 399.932 51.889C401.99 53.0611 402.118 54.6687 402.118 54.6687L402.207 55.6761Z" fill="#7C7338"/>
<path d="M399.617 50.252C399.617 50.252 402.956 51.2809 402.208 55.6761" stroke="#E9E3E4" stroke-width="0.5" stroke-linecap="round"/>
<path d="M401.567 50.6201C401.567 50.6201 401.107 50.9249 401.254 51.383" stroke="#E9E3E4" stroke-width="0.5" stroke-linecap="round"/>
<path d="M399.952 50.8915C399.952 50.8915 400.233 50.6102 400.575 50.7655" stroke="#E9E3E4" stroke-width="0.5" stroke-linecap="round"/>
<path d="M401.272 52.3054C401.272 52.3054 401.766 52.0604 401.893 52.3677" stroke="#E9E3E4" stroke-width="0.5" stroke-linecap="round"/>
<path d="M402.493 52.8192C402.493 52.8192 402.122 52.7902 402.116 52.9661" stroke="#E9E3E4" stroke-width="0.5" stroke-linecap="round"/>
<path d="M402.254 55.7052C402.254 55.7052 400.927 53.0515 400.563 53.1083C400.39 53.1363 400.31 53.3043 400.274 53.4719C400.229 53.6893 400.254 53.915 400.346 54.1177C400.534 54.544 401.04 55.35 402.254 55.7052Z" fill="#7C7338"/>
<path d="M400.572 53.6133C400.572 53.6133 401.964 55.5987 402.234 55.6859" stroke="#E9E3E4" stroke-width="0.5" stroke-linecap="round"/>
<path d="M400.444 53.9229H400.769" stroke="#E9E3E4" stroke-width="0.5" stroke-linecap="round"/>
<path d="M400.833 54.6495L401.343 54.671" stroke="#E9E3E4" stroke-width="0.5" stroke-linecap="round"/>
<path d="M401.144 54.0684L401.088 54.3295" stroke="#E9E3E4" stroke-width="0.5" stroke-linecap="round"/>
<path d="M401.685 54.8623L401.675 55.0995" stroke="#E9E3E4" stroke-width="0.5" stroke-linecap="round"/>
<path d="M402.214 55.7052C402.214 55.7052 403.54 53.0515 403.905 53.1083C404.078 53.1363 404.158 53.3043 404.194 53.4719C404.238 53.6893 404.213 53.915 404.121 54.1177C403.933 54.544 403.427 55.35 402.214 55.7052Z" fill="#7C7338"/>
<path d="M403.895 53.6133C403.895 53.6133 402.5 55.5987 402.233 55.6859" stroke="#E9E3E4" stroke-width="0.5" stroke-linecap="round"/>
<path d="M404.023 53.9229H403.698" stroke="#E9E3E4" stroke-width="0.5" stroke-linecap="round"/>
<path d="M403.634 54.6495L403.125 54.671" stroke="#E9E3E4" stroke-width="0.5" stroke-linecap="round"/>
<path d="M403.324 54.0684L403.379 54.3295" stroke="#E9E3E4" stroke-width="0.5" stroke-linecap="round"/>
<path d="M402.782 54.8623L402.792 55.0995" stroke="#E9E3E4" stroke-width="0.5" stroke-linecap="round"/>
<path d="M399.936 56.3254C399.9 56.2963 399.873 56.2572 399.86 56.2131C399.848 56.1675 399.87 56.1195 399.913 56.099C399.963 56.0809 400.013 56.1137 400.053 56.148C400.093 56.1823 400.138 56.2185 400.188 56.2102C400.134 56.1623 400.11 56.0901 400.124 56.0201C400.126 56.0058 400.132 55.9924 400.142 55.9814C400.168 55.953 400.217 55.9652 400.25 55.9878C400.349 56.0583 400.381 56.195 400.381 56.3185C400.386 56.2732 400.386 56.2275 400.381 56.1823C400.379 56.1359 400.399 56.0913 400.437 56.0632C400.461 56.0502 400.489 56.0438 400.516 56.0446C400.563 56.0381 400.609 56.0513 400.645 56.0809C400.68 56.1276 400.678 56.1917 400.64 56.2362C400.602 56.2783 400.557 56.3137 400.507 56.341C400.469 56.3636 400.436 56.3942 400.412 56.4307C400.409 56.4356 400.406 56.4409 400.405 56.4464H400.115C400.05 56.4142 399.99 56.3735 399.936 56.3254Z" fill="#7C7338"/>
<path d="M404.991 55.256C404.955 55.2273 404.929 55.1883 404.916 55.1443C404.903 55.0988 404.925 55.0509 404.968 55.0302C405.018 55.012 405.068 55.0449 405.108 55.0792C405.147 55.1135 405.192 55.1507 405.244 55.1433C405.19 55.0956 405.165 55.0236 405.179 54.9537C405.182 54.9394 405.188 54.926 405.197 54.915C405.224 54.8866 405.273 54.8988 405.305 54.9209C405.408 54.9919 405.436 55.1286 405.437 55.2521C405.442 55.2067 405.442 55.1609 405.437 55.1154C405.432 55.0696 405.451 55.0246 405.487 54.9949C405.511 54.9822 405.538 54.9759 405.566 54.9768C405.612 54.9704 405.659 54.9833 405.695 55.0125C405.73 55.0595 405.728 55.1239 405.69 55.1683C405.652 55.2105 405.607 55.246 405.557 55.2732C405.518 55.2955 405.486 55.326 405.461 55.3624C405.458 55.3675 405.456 55.3729 405.454 55.3785H405.171C405.105 55.346 405.045 55.3048 404.991 55.256Z" fill="#7C7338"/>
<path d="M403.306 56.3249C403.27 56.2957 403.244 56.2566 403.231 56.2126C403.218 56.167 403.24 56.119 403.283 56.0985C403.333 56.0804 403.383 56.1132 403.423 56.1475C403.463 56.1818 403.507 56.219 403.559 56.2122C403.505 56.1642 403.481 56.0921 403.495 56.022C403.497 56.0078 403.503 55.9944 403.513 55.9833C403.54 55.9549 403.588 55.9672 403.621 55.9897C403.723 56.0603 403.751 56.197 403.752 56.3204C403.757 56.2752 403.757 56.2295 403.752 56.1842C403.748 56.138 403.768 56.0929 403.805 56.0637C403.829 56.0506 403.856 56.0442 403.884 56.0451C403.93 56.0386 403.977 56.0518 404.013 56.0813C404.048 56.1281 404.046 56.1924 404.007 56.2367C403.969 56.2788 403.924 56.3142 403.874 56.3415C403.836 56.3641 403.804 56.3947 403.779 56.4312C403.776 56.4361 403.774 56.4414 403.772 56.4469H403.483C403.419 56.4141 403.36 56.3731 403.306 56.3249Z" fill="#7C7338"/>
<ellipse opacity="0.1" cx="399.465" cy="27.2591" rx="1.0778" ry="1.05983" fill="#7C7338"/>
<ellipse opacity="0.1" cx="451.291" cy="35.7278" rx="1.0778" ry="1.05983" fill="#7C7338"/>
<ellipse opacity="0.1" cx="431.917" cy="23.8928" rx="1.0778" ry="1.05983" fill="#7C7338"/>
<ellipse opacity="0.1" cx="401.62" cy="33.1063" rx="1.80629" ry="1.77619" fill="#7C7338"/>
<path fill-rule="evenodd" clip-rule="evenodd" d="M419.725 47.4023C418.396 47.4023 417.318 48.4619 417.318 49.769C417.318 51.076 418.396 52.1356 419.725 52.1356C421.054 52.1356 422.132 51.076 422.132 49.769C422.132 48.4619 421.054 47.4023 419.725 47.4023V47.4023Z" fill="white"/>
<path opacity="0.72" fill-rule="evenodd" clip-rule="evenodd" d="M419.725 47.6777C420.899 47.6777 421.852 48.6141 421.852 49.7691C421.852 50.9241 420.899 51.8604 419.725 51.8604C418.55 51.8604 417.598 50.9241 417.598 49.7691C417.599 48.6145 418.551 47.6787 419.725 47.6777Z" fill="#7C7338"/>
<path fill-rule="evenodd" clip-rule="evenodd" d="M418.73 49.9415L418.613 49.8298C418.588 49.8072 418.574 49.7756 418.574 49.7426C418.574 49.7095 418.588 49.6779 418.613 49.6553L419.634 48.6746C419.658 48.6504 419.691 48.6367 419.725 48.6367C419.76 48.6367 419.793 48.6504 419.816 48.6746L420.837 49.6544C420.862 49.6773 420.876 49.7088 420.876 49.7417C420.876 49.7746 420.862 49.8061 420.837 49.8289L420.721 49.9406C420.697 49.9643 420.664 49.9777 420.63 49.9777C420.596 49.9777 420.563 49.9643 420.539 49.9406L419.935 49.3298V50.7792C419.935 50.8112 419.922 50.8421 419.899 50.8649C419.875 50.8876 419.843 50.9004 419.81 50.9004H419.642C419.572 50.9004 419.515 50.8461 419.515 50.7792V49.3316L418.911 49.9424C418.887 49.9659 418.855 49.9791 418.82 49.979C418.786 49.9788 418.753 49.9653 418.73 49.9415Z" fill="white"/>
<path d="M337.661 99.14C337.185 99.14 336.723 99.0817 336.275 98.965C335.827 98.8437 335.421 98.664 335.057 98.426C334.693 98.188 334.389 97.894 334.147 97.544C333.909 97.1893 333.759 96.7787 333.699 96.312H335.057C335.141 96.6947 335.306 97.0167 335.554 97.278C335.806 97.5393 336.111 97.7353 336.471 97.866C336.835 97.9967 337.229 98.062 337.654 98.062C338.13 98.062 338.554 97.9967 338.928 97.866C339.306 97.7307 339.602 97.5393 339.817 97.292C340.036 97.0447 340.146 96.7483 340.146 96.403C340.146 96.0997 340.076 95.836 339.936 95.612C339.8 95.388 339.602 95.2013 339.341 95.052C339.079 94.9027 338.762 94.786 338.389 94.702L336.401 94.24C335.654 94.0767 335.068 93.785 334.644 93.365C334.224 92.945 334.009 92.3897 334 91.699C334 91.1157 334.154 90.6023 334.462 90.159C334.774 89.7157 335.201 89.3703 335.743 89.123C336.289 88.8757 336.912 88.752 337.612 88.752C338.419 88.752 339.098 88.8897 339.649 89.165C340.199 89.4403 340.615 89.802 340.895 90.25C341.175 90.698 341.317 91.1763 341.322 91.685H339.985C339.943 91.2277 339.807 90.866 339.579 90.6C339.355 90.3293 339.072 90.138 338.732 90.026C338.391 89.9093 338.02 89.851 337.619 89.851C337.329 89.851 337.049 89.8883 336.779 89.963C336.513 90.033 336.272 90.1403 336.058 90.285C335.848 90.4297 335.68 90.6093 335.554 90.824C335.428 91.0387 335.365 91.2883 335.365 91.573C335.365 91.937 335.488 92.2333 335.736 92.462C335.988 92.6907 336.443 92.8867 337.101 93.05L339.026 93.512C339.53 93.6193 339.94 93.778 340.258 93.988C340.58 94.198 340.827 94.436 341 94.702C341.177 94.968 341.298 95.2457 341.364 95.535C341.434 95.8243 341.469 96.109 341.469 96.389C341.469 96.8977 341.317 97.362 341.014 97.782C340.71 98.1973 340.274 98.5287 339.705 98.776C339.14 99.0187 338.459 99.14 337.661 99.14ZM344.315 95.682C344.315 96.1393 344.39 96.5547 344.539 96.928C344.693 97.2967 344.924 97.5907 345.232 97.81C345.545 98.0293 345.935 98.139 346.401 98.139C346.863 98.139 347.26 98.0317 347.591 97.817C347.927 97.6023 348.142 97.292 348.235 96.886H349.46C349.372 97.376 349.176 97.789 348.872 98.125C348.569 98.461 348.203 98.7153 347.773 98.888C347.344 99.056 346.896 99.14 346.429 99.14C345.753 99.14 345.158 98.993 344.644 98.699C344.131 98.405 343.73 97.9827 343.44 97.432C343.151 96.8813 343.006 96.221 343.006 95.451C343.006 94.6903 343.137 94.023 343.398 93.449C343.66 92.875 344.038 92.427 344.532 92.105C345.032 91.783 345.631 91.622 346.331 91.622C347.013 91.622 347.589 91.769 348.06 92.063C348.532 92.357 348.889 92.7723 349.131 93.309C349.379 93.841 349.502 94.4733 349.502 95.206V95.682H344.315ZM344.322 94.807H348.256C348.256 94.3917 348.186 94.0183 348.046 93.687C347.906 93.351 347.692 93.0873 347.402 92.896C347.118 92.7 346.758 92.602 346.324 92.602C345.872 92.602 345.496 92.7117 345.197 92.931C344.903 93.1457 344.682 93.4233 344.532 93.764C344.388 94.1 344.318 94.4477 344.322 94.807ZM353.107 99.091C352.715 99.091 352.398 99.0373 352.155 98.93C351.917 98.8227 351.733 98.678 351.602 98.496C351.476 98.314 351.39 98.1063 351.343 97.873C351.301 97.635 351.28 97.39 351.28 97.138V88.598H352.554V97.012C352.554 97.376 352.624 97.649 352.764 97.831C352.909 98.013 353.109 98.1133 353.366 98.132L353.758 98.139V98.979C353.651 99.0117 353.539 99.0373 353.422 99.056C353.305 99.0793 353.2 99.091 353.107 99.091ZM356.265 95.682C356.265 96.1393 356.339 96.5547 356.489 96.928C356.643 97.2967 356.874 97.5907 357.182 97.81C357.494 98.0293 357.884 98.139 358.351 98.139C358.813 98.139 359.209 98.0317 359.541 97.817C359.877 97.6023 360.091 97.292 360.185 96.886H361.41C361.321 97.376 361.125 97.789 360.822 98.125C360.518 98.461 360.152 98.7153 359.723 98.888C359.293 99.056 358.845 99.14 358.379 99.14C357.702 99.14 357.107 98.993 356.594 98.699C356.08 98.405 355.679 97.9827 355.39 97.432C355.1 96.8813 354.956 96.221 354.956 95.451C354.956 94.6903 355.086 94.023 355.348 93.449C355.609 92.875 355.987 92.427 356.482 92.105C356.981 91.783 357.581 91.622 358.281 91.622C358.962 91.622 359.538 91.769 360.01 92.063C360.481 92.357 360.838 92.7723 361.081 93.309C361.328 93.841 361.452 94.4733 361.452 95.206V95.682H356.265ZM356.272 94.807H360.206C360.206 94.3917 360.136 94.0183 359.996 93.687C359.856 93.351 359.641 93.0873 359.352 92.896C359.067 92.7 358.708 92.602 358.274 92.602C357.821 92.602 357.445 92.7117 357.147 92.931C356.853 93.1457 356.631 93.4233 356.482 93.764C356.337 94.1 356.267 94.4477 356.272 94.807ZM366.113 91.622C366.631 91.622 367.098 91.7223 367.513 91.923C367.929 92.119 368.267 92.399 368.528 92.763C368.794 93.127 368.96 93.5563 369.025 94.051H367.877C367.835 93.799 367.737 93.568 367.583 93.358C367.434 93.148 367.236 92.98 366.988 92.854C366.741 92.728 366.452 92.665 366.12 92.665C365.5 92.665 364.996 92.889 364.608 93.337C364.221 93.785 364.027 94.471 364.027 95.395C364.027 96.2303 364.205 96.9 364.559 97.404C364.919 97.9033 365.446 98.153 366.141 98.153C366.473 98.153 366.76 98.09 367.002 97.964C367.25 97.8333 367.448 97.663 367.597 97.453C367.747 97.2383 367.842 97.0097 367.884 96.767H369.011C368.951 97.2523 368.787 97.6723 368.521 98.027C368.255 98.3817 367.915 98.657 367.499 98.853C367.089 99.0443 366.627 99.14 366.113 99.14C365.465 99.14 364.888 98.9977 364.384 98.713C363.885 98.4283 363.493 98.0083 363.208 97.453C362.924 96.8977 362.781 96.2163 362.781 95.409C362.781 94.653 362.91 93.9927 363.166 93.428C363.428 92.8587 363.806 92.4153 364.3 92.098C364.8 91.7807 365.404 91.622 366.113 91.622ZM374.221 92.707H372.59V97.208C372.59 97.4647 372.616 97.6537 372.667 97.775C372.723 97.8917 372.814 97.9663 372.94 97.999C373.071 98.0317 373.248 98.048 373.472 98.048H374.263V98.916C374.174 98.9487 374.039 98.9767 373.857 99C373.68 99.0233 373.458 99.035 373.192 99.035C372.693 99.035 372.305 98.9673 372.03 98.832C371.755 98.6967 371.561 98.496 371.449 98.23C371.342 97.964 371.288 97.6373 371.288 97.25V92.707H370.112V91.762H371.323L371.638 89.655H372.59V91.755H374.221V92.707ZM379.573 88.878C379.606 88.878 379.704 88.8803 379.867 88.885C380.035 88.885 380.238 88.885 380.476 88.885C380.714 88.8803 380.962 88.8803 381.218 88.885C381.475 88.885 381.711 88.8873 381.925 88.892C383.167 88.9107 384.172 89.1137 384.942 89.501C385.717 89.8837 386.284 90.4413 386.643 91.174C387.007 91.9067 387.189 92.8073 387.189 93.876C387.189 94.996 386.993 95.9363 386.601 96.697C386.214 97.4577 385.621 98.0317 384.823 98.419C384.03 98.8063 383.02 99 381.792 99H379.573V88.878ZM380.903 89.991V97.887H381.792C382.628 97.887 383.346 97.7587 383.948 97.502C384.55 97.2407 385.012 96.8183 385.334 96.235C385.661 95.6517 385.824 94.8723 385.824 93.897C385.824 92.9217 385.666 92.1493 385.348 91.58C385.036 91.0107 384.583 90.6047 383.99 90.362C383.398 90.1147 382.684 89.991 381.848 89.991H380.903ZM389.014 99V91.762H390.246V93.155C390.368 92.8097 390.538 92.525 390.757 92.301C390.977 92.0723 391.226 91.902 391.506 91.79C391.791 91.678 392.085 91.622 392.388 91.622C392.496 91.622 392.601 91.629 392.703 91.643C392.806 91.657 392.885 91.6803 392.941 91.713V92.966C392.871 92.9333 392.78 92.9123 392.668 92.903C392.561 92.889 392.47 92.882 392.395 92.882C392.106 92.8633 391.835 92.882 391.583 92.938C391.331 92.9893 391.11 93.0803 390.918 93.211C390.727 93.3417 390.575 93.5143 390.463 93.729C390.356 93.939 390.302 94.1957 390.302 94.499V99H389.014ZM396.266 99.14C395.8 99.14 395.387 99.0583 395.027 98.895C394.668 98.727 394.386 98.4867 394.18 98.174C393.98 97.8613 393.879 97.4833 393.879 97.04C393.879 96.2373 394.159 95.64 394.719 95.248C395.279 94.856 396.178 94.646 397.414 94.618L398.709 94.583V94.016C398.709 93.5727 398.576 93.2227 398.31 92.966C398.044 92.7047 397.631 92.574 397.071 92.574C396.656 92.5787 396.29 92.6767 395.972 92.868C395.66 93.0593 395.457 93.372 395.363 93.806H394.222C394.25 93.3347 394.383 92.938 394.621 92.616C394.859 92.2893 395.191 92.042 395.615 91.874C396.045 91.706 396.551 91.622 397.134 91.622C397.764 91.622 398.287 91.7107 398.702 91.888C399.122 92.0653 399.435 92.3267 399.64 92.672C399.85 93.0173 399.955 93.442 399.955 93.946V99H398.849L398.758 97.642C398.478 98.2067 398.121 98.5987 397.687 98.818C397.258 99.0327 396.784 99.14 396.266 99.14ZM396.658 98.209C396.901 98.209 397.141 98.1647 397.379 98.076C397.622 97.9873 397.844 97.8683 398.044 97.719C398.245 97.565 398.404 97.3947 398.52 97.208C398.642 97.0167 398.705 96.8207 398.709 96.62V95.381L397.631 95.402C397.081 95.4113 396.619 95.4673 396.245 95.57C395.877 95.6727 395.599 95.8337 395.412 96.053C395.23 96.2723 395.139 96.5593 395.139 96.914C395.139 97.32 395.279 97.6373 395.559 97.866C395.844 98.0947 396.21 98.209 396.658 98.209ZM405.219 101.394C404.08 101.394 403.193 101.228 402.559 100.897C401.929 100.57 401.614 100.101 401.614 99.49C401.614 99.2287 401.674 99.007 401.796 98.825C401.917 98.6383 402.062 98.4843 402.23 98.363C402.398 98.2417 402.554 98.146 402.699 98.076C402.843 98.0013 402.937 97.9477 402.979 97.915C402.899 97.8683 402.799 97.81 402.678 97.74C402.561 97.67 402.458 97.5767 402.37 97.46C402.281 97.3433 402.237 97.1917 402.237 97.005C402.237 96.7763 402.344 96.5663 402.559 96.375C402.773 96.1837 403.091 96.0413 403.511 95.948C403.086 95.7333 402.755 95.4487 402.517 95.094C402.279 94.7393 402.16 94.3543 402.16 93.939C402.16 93.4723 402.286 93.0663 402.538 92.721C402.794 92.3757 403.158 92.112 403.63 91.93C404.101 91.7433 404.661 91.65 405.31 91.65C405.781 91.65 406.178 91.706 406.5 91.818C406.822 91.9253 407.12 92.0793 407.396 92.28C407.47 92.2473 407.587 92.1983 407.746 92.133C407.909 92.063 408.089 91.9883 408.285 91.909C408.481 91.8297 408.663 91.755 408.831 91.685C409.003 91.6103 409.141 91.5543 409.244 91.517L409.237 92.714L407.97 92.952C408.04 93.1013 408.096 93.2647 408.138 93.442C408.184 93.6193 408.208 93.785 408.208 93.939C408.208 94.3637 408.096 94.7487 407.872 95.094C407.652 95.4393 407.319 95.7147 406.871 95.92C406.423 96.1253 405.863 96.228 405.191 96.228C405.135 96.228 405.062 96.228 404.974 96.228C404.89 96.2233 404.817 96.2187 404.757 96.214C404.262 96.228 403.921 96.284 403.735 96.382C403.548 96.4753 403.455 96.5803 403.455 96.697C403.455 96.8323 403.56 96.9257 403.77 96.977C403.98 97.0283 404.337 97.0727 404.841 97.11C405.023 97.1193 405.247 97.131 405.513 97.145C405.783 97.159 406.082 97.1777 406.409 97.201C407.169 97.2477 407.755 97.4413 408.166 97.782C408.576 98.1227 408.782 98.5823 408.782 99.161C408.782 99.819 408.488 100.356 407.9 100.771C407.312 101.186 406.418 101.394 405.219 101.394ZM405.45 100.561C406.117 100.561 406.628 100.461 406.983 100.26C407.337 100.059 407.515 99.756 407.515 99.35C407.515 99.0607 407.405 98.825 407.186 98.643C406.971 98.4563 406.642 98.349 406.199 98.321L404.169 98.188C403.987 98.1787 403.798 98.2253 403.602 98.328C403.406 98.426 403.238 98.5637 403.098 98.741C402.962 98.9183 402.895 99.119 402.895 99.343C402.895 99.7257 403.102 100.024 403.518 100.239C403.938 100.454 404.582 100.561 405.45 100.561ZM405.226 95.395C405.748 95.395 406.168 95.2737 406.486 95.031C406.808 94.7883 406.969 94.429 406.969 93.953C406.969 93.463 406.808 93.0897 406.486 92.833C406.168 92.5763 405.748 92.448 405.226 92.448C404.698 92.448 404.271 92.5787 403.945 92.84C403.623 93.0967 403.462 93.4677 403.462 93.953C403.462 94.4103 403.616 94.765 403.924 95.017C404.232 95.269 404.666 95.395 405.226 95.395ZM421.355 88.878L417.925 94.695V99H416.637V94.688L413.186 88.878H414.6L417.288 93.533L419.934 88.878H421.355ZM424.594 99.14C423.927 99.14 423.344 98.9977 422.844 98.713C422.345 98.4237 421.958 98.0013 421.682 97.446C421.407 96.8907 421.269 96.2117 421.269 95.409C421.269 94.653 421.398 93.9903 421.654 93.421C421.911 92.8517 422.287 92.4107 422.781 92.098C423.281 91.7807 423.885 91.622 424.594 91.622C425.262 91.622 425.84 91.769 426.33 92.063C426.825 92.3523 427.208 92.7793 427.478 93.344C427.749 93.9087 427.884 94.597 427.884 95.409C427.884 96.1463 427.758 96.795 427.506 97.355C427.259 97.915 426.89 98.3537 426.4 98.671C425.915 98.9837 425.313 99.14 424.594 99.14ZM424.594 98.118C425.028 98.118 425.395 98.0083 425.693 97.789C425.992 97.5697 426.218 97.2547 426.372 96.844C426.526 96.4333 426.603 95.9457 426.603 95.381C426.603 94.863 426.536 94.3987 426.4 93.988C426.265 93.5727 426.048 93.2437 425.749 93.001C425.455 92.7583 425.07 92.637 424.594 92.637C424.156 92.637 423.785 92.7467 423.481 92.966C423.178 93.1807 422.947 93.4933 422.788 93.904C422.634 94.3147 422.557 94.807 422.557 95.381C422.557 95.8897 422.627 96.3517 422.767 96.767C422.907 97.1823 423.127 97.5113 423.425 97.754C423.724 97.9967 424.114 98.118 424.594 98.118ZM432.129 99.14C431.751 99.1353 431.394 99.0817 431.058 98.979C430.727 98.8717 430.433 98.7153 430.176 98.51C429.92 98.3047 429.717 98.0503 429.567 97.747C429.423 97.439 429.35 97.082 429.35 96.676V91.762H430.645V96.543C430.645 97.0143 430.79 97.397 431.079 97.691C431.373 97.985 431.814 98.132 432.402 98.132C432.934 98.132 433.361 97.9943 433.683 97.719C434.01 97.439 434.173 97.0237 434.173 96.473V91.762H435.461V99H434.432L434.299 97.614C434.211 97.978 434.059 98.272 433.844 98.496C433.634 98.72 433.38 98.8857 433.081 98.993C432.787 99.0957 432.47 99.1447 432.129 99.14ZM437.563 99V91.762H438.795V93.155C438.917 92.8097 439.087 92.525 439.306 92.301C439.526 92.0723 439.775 91.902 440.055 91.79C440.34 91.678 440.634 91.622 440.937 91.622C441.045 91.622 441.15 91.629 441.252 91.643C441.355 91.657 441.434 91.6803 441.49 91.713V92.966C441.42 92.9333 441.329 92.9123 441.217 92.903C441.11 92.889 441.019 92.882 440.944 92.882C440.655 92.8633 440.384 92.882 440.132 92.938C439.88 92.9893 439.659 93.0803 439.467 93.211C439.276 93.3417 439.124 93.5143 439.012 93.729C438.905 93.939 438.851 94.1957 438.851 94.499V99H437.563ZM446.483 88.878H447.778V99H446.483V88.878ZM450.182 99V91.762H451.428V92.812C451.629 92.4947 451.904 92.217 452.254 91.979C452.604 91.741 453.059 91.622 453.619 91.622C453.881 91.622 454.147 91.6663 454.417 91.755C454.693 91.8437 454.945 91.9767 455.173 92.154C455.402 92.3313 455.579 92.5483 455.705 92.805C455.929 92.4503 456.233 92.1657 456.615 91.951C456.998 91.7317 457.43 91.622 457.91 91.622C458.162 91.622 458.426 91.6617 458.701 91.741C458.977 91.8157 459.231 91.951 459.464 92.147C459.702 92.3383 459.896 92.6067 460.045 92.952C460.195 93.2927 460.269 93.7313 460.269 94.268V99H458.967V94.394C458.967 93.9553 458.897 93.617 458.757 93.379C458.617 93.1363 458.433 92.966 458.204 92.868C457.98 92.77 457.74 92.721 457.483 92.721C457.259 92.721 457.021 92.7653 456.769 92.854C456.517 92.9427 456.303 93.092 456.125 93.302C455.948 93.512 455.859 93.799 455.859 94.163V99H454.571V94.016C454.571 93.7313 454.494 93.4933 454.34 93.302C454.191 93.1107 454.002 92.966 453.773 92.868C453.549 92.77 453.325 92.721 453.101 92.721C452.854 92.721 452.604 92.77 452.352 92.868C452.105 92.966 451.895 93.1223 451.722 93.337C451.554 93.547 451.47 93.8223 451.47 94.163V99H450.182ZM464.27 99.14C463.804 99.14 463.391 99.0583 463.031 98.895C462.672 98.727 462.39 98.4867 462.184 98.174C461.984 97.8613 461.883 97.4833 461.883 97.04C461.883 96.2373 462.163 95.64 462.723 95.248C463.283 94.856 464.182 94.646 465.418 94.618L466.713 94.583V94.016C466.713 93.5727 466.58 93.2227 466.314 92.966C466.048 92.7047 465.635 92.574 465.075 92.574C464.66 92.5787 464.294 92.6767 463.976 92.868C463.664 93.0593 463.461 93.372 463.367 93.806H462.226C462.254 93.3347 462.387 92.938 462.625 92.616C462.863 92.2893 463.195 92.042 463.619 91.874C464.049 91.706 464.555 91.622 465.138 91.622C465.768 91.622 466.291 91.7107 466.706 91.888C467.126 92.0653 467.439 92.3267 467.644 92.672C467.854 93.0173 467.959 93.442 467.959 93.946V99H466.853L466.762 97.642C466.482 98.2067 466.125 98.5987 465.691 98.818C465.262 99.0327 464.788 99.14 464.27 99.14ZM464.662 98.209C464.905 98.209 465.145 98.1647 465.383 98.076C465.626 97.9873 465.848 97.8683 466.048 97.719C466.249 97.565 466.408 97.3947 466.524 97.208C466.646 97.0167 466.709 96.8207 466.713 96.62V95.381L465.635 95.402C465.085 95.4113 464.623 95.4673 464.249 95.57C463.881 95.6727 463.603 95.8337 463.416 96.053C463.234 96.2723 463.143 96.5593 463.143 96.914C463.143 97.32 463.283 97.6373 463.563 97.866C463.848 98.0947 464.214 98.209 464.662 98.209ZM473.223 101.394C472.084 101.394 471.197 101.228 470.563 100.897C469.933 100.57 469.618 100.101 469.618 99.49C469.618 99.2287 469.678 99.007 469.8 98.825C469.921 98.6383 470.066 98.4843 470.234 98.363C470.402 98.2417 470.558 98.146 470.703 98.076C470.847 98.0013 470.941 97.9477 470.983 97.915C470.903 97.8683 470.803 97.81 470.682 97.74C470.565 97.67 470.462 97.5767 470.374 97.46C470.285 97.3433 470.241 97.1917 470.241 97.005C470.241 96.7763 470.348 96.5663 470.563 96.375C470.777 96.1837 471.095 96.0413 471.515 95.948C471.09 95.7333 470.759 95.4487 470.521 95.094C470.283 94.7393 470.164 94.3543 470.164 93.939C470.164 93.4723 470.29 93.0663 470.542 92.721C470.798 92.3757 471.162 92.112 471.634 91.93C472.105 91.7433 472.665 91.65 473.314 91.65C473.785 91.65 474.182 91.706 474.504 91.818C474.826 91.9253 475.124 92.0793 475.4 92.28C475.474 92.2473 475.591 92.1983 475.75 92.133C475.913 92.063 476.093 91.9883 476.289 91.909C476.485 91.8297 476.667 91.755 476.835 91.685C477.007 91.6103 477.145 91.5543 477.248 91.517L477.241 92.714L475.974 92.952C476.044 93.1013 476.1 93.2647 476.142 93.442C476.188 93.6193 476.212 93.785 476.212 93.939C476.212 94.3637 476.1 94.7487 475.876 95.094C475.656 95.4393 475.323 95.7147 474.875 95.92C474.427 96.1253 473.867 96.228 473.195 96.228C473.139 96.228 473.066 96.228 472.978 96.228C472.894 96.2233 472.821 96.2187 472.761 96.214C472.266 96.228 471.925 96.284 471.739 96.382C471.552 96.4753 471.459 96.5803 471.459 96.697C471.459 96.8323 471.564 96.9257 471.774 96.977C471.984 97.0283 472.341 97.0727 472.845 97.11C473.027 97.1193 473.251 97.131 473.517 97.145C473.787 97.159 474.086 97.1777 474.413 97.201C475.173 97.2477 475.759 97.4413 476.17 97.782C476.58 98.1227 476.786 98.5823 476.786 99.161C476.786 99.819 476.492 100.356 475.904 100.771C475.316 101.186 474.422 101.394 473.223 101.394ZM473.454 100.561C474.121 100.561 474.632 100.461 474.987 100.26C475.341 100.059 475.519 99.756 475.519 99.35C475.519 99.0607 475.409 98.825 475.19 98.643C474.975 98.4563 474.646 98.349 474.203 98.321L472.173 98.188C471.991 98.1787 471.802 98.2253 471.606 98.328C471.41 98.426 471.242 98.5637 471.102 98.741C470.966 98.9183 470.899 99.119 470.899 99.343C470.899 99.7257 471.106 100.024 471.522 100.239C471.942 100.454 472.586 100.561 473.454 100.561ZM473.23 95.395C473.752 95.395 474.172 95.2737 474.49 95.031C474.812 94.7883 474.973 94.429 474.973 93.953C474.973 93.463 474.812 93.0897 474.49 92.833C474.172 92.5763 473.752 92.448 473.23 92.448C472.702 92.448 472.275 92.5787 471.949 92.84C471.627 93.0967 471.466 93.4677 471.466 93.953C471.466 94.4103 471.62 94.765 471.928 95.017C472.236 95.269 472.67 95.395 473.23 95.395ZM479.571 95.682C479.571 96.1393 479.646 96.5547 479.795 96.928C479.949 97.2967 480.18 97.5907 480.488 97.81C480.801 98.0293 481.191 98.139 481.657 98.139C482.119 98.139 482.516 98.0317 482.847 97.817C483.183 97.6023 483.398 97.292 483.491 96.886H484.716C484.628 97.376 484.432 97.789 484.128 98.125C483.825 98.461 483.459 98.7153 483.029 98.888C482.6 99.056 482.152 99.14 481.685 99.14C481.009 99.14 480.414 98.993 479.9 98.699C479.387 98.405 478.986 97.9827 478.696 97.432C478.407 96.8813 478.262 96.221 478.262 95.451C478.262 94.6903 478.393 94.023 478.654 93.449C478.916 92.875 479.294 92.427 479.788 92.105C480.288 91.783 480.887 91.622 481.587 91.622C482.269 91.622 482.845 91.769 483.316 92.063C483.788 92.357 484.145 92.7723 484.387 93.309C484.635 93.841 484.758 94.4733 484.758 95.206V95.682H479.571ZM479.578 94.807H483.512C483.512 94.3917 483.442 94.0183 483.302 93.687C483.162 93.351 482.948 93.0873 482.658 92.896C482.374 92.7 482.014 92.602 481.58 92.602C481.128 92.602 480.752 92.7117 480.453 92.931C480.159 93.1457 479.938 93.4233 479.788 93.764C479.644 94.1 479.574 94.4477 479.578 94.807ZM489.68 99V88.598H490.94V92.826C491.062 92.6253 491.225 92.4387 491.43 92.266C491.636 92.0887 491.885 91.9463 492.179 91.839C492.473 91.727 492.814 91.671 493.201 91.671C493.673 91.671 494.1 91.7597 494.482 91.937C494.865 92.1097 495.168 92.357 495.392 92.679C495.616 93.001 495.728 93.3837 495.728 93.827V99H494.433V94.086C494.433 93.652 494.284 93.3183 493.985 93.085C493.691 92.847 493.306 92.728 492.83 92.728C492.508 92.728 492.205 92.7817 491.92 92.889C491.636 92.9917 491.405 93.1503 491.227 93.365C491.055 93.575 490.968 93.8433 490.968 94.17V99H489.68ZM498.671 95.682C498.671 96.1393 498.745 96.5547 498.895 96.928C499.049 97.2967 499.28 97.5907 499.588 97.81C499.9 98.0293 500.29 98.139 500.757 98.139C501.219 98.139 501.615 98.0317 501.947 97.817C502.283 97.6023 502.497 97.292 502.591 96.886H503.816C503.727 97.376 503.531 97.789 503.228 98.125C502.924 98.461 502.558 98.7153 502.129 98.888C501.699 99.056 501.251 99.14 500.785 99.14C500.108 99.14 499.513 98.993 499 98.699C498.486 98.405 498.085 97.9827 497.796 97.432C497.506 96.8813 497.362 96.221 497.362 95.451C497.362 94.6903 497.492 94.023 497.754 93.449C498.015 92.875 498.393 92.427 498.888 92.105C499.387 91.783 499.987 91.622 500.687 91.622C501.368 91.622 501.944 91.769 502.416 92.063C502.887 92.357 503.244 92.7723 503.487 93.309C503.734 93.841 503.858 94.4733 503.858 95.206V95.682H498.671ZM498.678 94.807H502.612C502.612 94.3917 502.542 94.0183 502.402 93.687C502.262 93.351 502.047 93.0873 501.758 92.896C501.473 92.7 501.114 92.602 500.68 92.602C500.227 92.602 499.851 92.7117 499.553 92.931C499.259 93.1457 499.037 93.4233 498.888 93.764C498.743 94.1 498.673 94.4477 498.678 94.807ZM505.635 99V91.762H506.867V93.155C506.989 92.8097 507.159 92.525 507.378 92.301C507.598 92.0723 507.847 91.902 508.127 91.79C508.412 91.678 508.706 91.622 509.009 91.622C509.117 91.622 509.222 91.629 509.324 91.643C509.427 91.657 509.506 91.6803 509.562 91.713V92.966C509.492 92.9333 509.401 92.9123 509.289 92.903C509.182 92.889 509.091 92.882 509.016 92.882C508.727 92.8633 508.456 92.882 508.204 92.938C507.952 92.9893 507.731 93.0803 507.539 93.211C507.348 93.3417 507.196 93.5143 507.084 93.729C506.977 93.939 506.923 94.1957 506.923 94.499V99H505.635ZM511.837 95.682C511.837 96.1393 511.911 96.5547 512.061 96.928C512.215 97.2967 512.446 97.5907 512.754 97.81C513.066 98.0293 513.456 98.139 513.923 98.139C514.385 98.139 514.781 98.0317 515.113 97.817C515.449 97.6023 515.663 97.292 515.757 96.886H516.982C516.893 97.376 516.697 97.789 516.394 98.125C516.09 98.461 515.724 98.7153 515.295 98.888C514.865 99.056 514.417 99.14 513.951 99.14C513.274 99.14 512.679 98.993 512.166 98.699C511.652 98.405 511.251 97.9827 510.962 97.432C510.672 96.8813 510.528 96.221 510.528 95.451C510.528 94.6903 510.658 94.023 510.92 93.449C511.181 92.875 511.559 92.427 512.054 92.105C512.553 91.783 513.153 91.622 513.853 91.622C514.534 91.622 515.11 91.769 515.582 92.063C516.053 92.357 516.41 92.7723 516.653 93.309C516.9 93.841 517.024 94.4733 517.024 95.206V95.682H511.837ZM511.844 94.807H515.778C515.778 94.3917 515.708 94.0183 515.568 93.687C515.428 93.351 515.213 93.0873 514.924 92.896C514.639 92.7 514.28 92.602 513.846 92.602C513.393 92.602 513.017 92.7117 512.719 92.931C512.425 93.1457 512.203 93.4233 512.054 93.764C511.909 94.1 511.839 94.4477 511.844 94.807Z" fill="#827212"/>
<path d="M248.199 114.874C247.791 115.65 247.455 116.5 247.191 117.424C246.927 118.344 246.795 119.278 246.795 120.226C246.795 121.126 246.907 122.004 247.131 122.86C247.355 123.712 247.679 124.586 248.103 125.482H247.347C247.015 124.922 246.727 124.368 246.483 123.82C246.243 123.272 246.055 122.704 245.919 122.116C245.787 121.528 245.721 120.894 245.721 120.214C245.721 119.222 245.881 118.27 246.201 117.358C246.521 116.442 246.933 115.614 247.437 114.874H248.199ZM252.936 124.12C252.164 124.12 251.496 123.946 250.932 123.598C250.368 123.25 249.932 122.746 249.624 122.086C249.32 121.422 249.168 120.62 249.168 119.68C249.168 118.732 249.322 117.926 249.63 117.262C249.938 116.594 250.374 116.084 250.938 115.732C251.506 115.38 252.172 115.204 252.936 115.204C253.704 115.204 254.368 115.38 254.928 115.732C255.488 116.08 255.92 116.588 256.224 117.256C256.528 117.92 256.68 118.728 256.68 119.68C256.68 120.62 256.528 121.422 256.224 122.086C255.924 122.746 255.494 123.25 254.934 123.598C254.374 123.946 253.708 124.12 252.936 124.12ZM252.936 123.154C253.472 123.154 253.928 123.032 254.304 122.788C254.68 122.544 254.966 122.166 255.162 121.654C255.362 121.142 255.462 120.488 255.462 119.692C255.462 118.884 255.362 118.22 255.162 117.7C254.962 117.18 254.674 116.796 254.298 116.548C253.922 116.296 253.468 116.17 252.936 116.17C252.408 116.17 251.954 116.296 251.574 116.548C251.194 116.8 250.902 117.186 250.698 117.706C250.494 118.226 250.392 118.888 250.392 119.692C250.392 120.488 250.494 121.142 250.698 121.654C250.902 122.166 251.194 122.544 251.574 122.788C251.954 123.032 252.408 123.154 252.936 123.154ZM258.168 124V117.796H259.242V118.696C259.342 118.524 259.48 118.362 259.656 118.21C259.836 118.058 260.052 117.936 260.304 117.844C260.56 117.752 260.854 117.706 261.186 117.706C261.578 117.706 261.938 117.784 262.266 117.94C262.598 118.096 262.862 118.34 263.058 118.672C263.258 119 263.358 119.424 263.358 119.944V124H262.248V120.052C262.248 119.568 262.12 119.21 261.864 118.978C261.612 118.742 261.284 118.624 260.88 118.624C260.6 118.624 260.338 118.67 260.094 118.762C259.85 118.85 259.652 118.986 259.5 119.17C259.348 119.35 259.272 119.578 259.272 119.854V124H258.168ZM266.66 124.078C266.324 124.078 266.052 124.032 265.844 123.94C265.64 123.848 265.482 123.724 265.37 123.568C265.262 123.412 265.188 123.234 265.148 123.034C265.112 122.83 265.094 122.62 265.094 122.404V115.084H266.186V122.296C266.186 122.608 266.246 122.842 266.366 122.998C266.49 123.154 266.662 123.24 266.882 123.256L267.218 123.262V123.982C267.126 124.01 267.03 124.032 266.93 124.048C266.83 124.068 266.74 124.078 266.66 124.078ZM269.046 125.98C268.682 125.98 268.432 125.954 268.296 125.902C268.16 125.85 268.092 125.824 268.092 125.824V125.104L268.722 125.116C268.954 125.124 269.146 125.108 269.298 125.068C269.45 125.028 269.572 124.974 269.664 124.906C269.756 124.838 269.826 124.762 269.874 124.678C269.926 124.594 269.968 124.514 270 124.438L270.216 123.85L267.792 117.796H268.914L270.744 122.584L272.562 117.796H273.648L271.032 124.468C270.872 124.86 270.692 125.166 270.492 125.386C270.296 125.606 270.076 125.76 269.832 125.848C269.592 125.936 269.33 125.98 269.046 125.98ZM279.957 119.374L279.021 117.856L278.055 119.41L277.395 118.96L278.529 117.55L276.951 117.106L277.203 116.404L278.709 117.01L278.601 115.324H279.417L279.309 117.016L280.833 116.356L281.061 117.058L279.519 117.544L280.623 118.9L279.957 119.374ZM282.015 124V122.584H283.335V124H282.015ZM286.265 124.276C286.265 124.856 286.139 125.286 285.887 125.566C285.639 125.85 285.199 125.992 284.567 125.992C284.227 125.992 284.012 125.968 283.924 125.92C283.832 125.872 283.786 125.848 283.786 125.848V125.11L284.399 125.08C284.679 125.06 284.875 124.986 284.987 124.858C285.099 124.73 285.155 124.524 285.155 124.24V117.796H286.265V124.276ZM286.295 115.33V116.482H285.119V115.33H286.295ZM288.203 125.932V117.796H289.307L289.319 118.876C289.391 118.748 289.483 118.614 289.595 118.474C289.711 118.334 289.851 118.204 290.015 118.084C290.183 117.964 290.377 117.866 290.597 117.79C290.821 117.714 291.075 117.676 291.359 117.676C291.855 117.676 292.291 117.79 292.667 118.018C293.047 118.242 293.343 118.586 293.555 119.05C293.767 119.514 293.873 120.102 293.873 120.814C293.873 121.526 293.769 122.128 293.561 122.62C293.357 123.108 293.061 123.48 292.673 123.736C292.285 123.992 291.817 124.12 291.269 124.12C290.993 124.12 290.747 124.08 290.531 124C290.319 123.924 290.133 123.824 289.973 123.7C289.817 123.572 289.685 123.436 289.577 123.292C289.473 123.148 289.387 123.01 289.319 122.878V125.932H288.203ZM291.059 123.256C291.571 123.256 291.989 123.062 292.313 122.674C292.637 122.282 292.799 121.674 292.799 120.85C292.799 120.142 292.651 119.58 292.355 119.164C292.059 118.748 291.627 118.54 291.059 118.54C290.483 118.54 290.047 118.754 289.751 119.182C289.455 119.606 289.307 120.162 289.307 120.85C289.307 121.294 289.373 121.698 289.505 122.062C289.637 122.426 289.833 122.716 290.093 122.932C290.353 123.148 290.675 123.256 291.059 123.256ZM296.12 121.156C296.12 121.548 296.184 121.904 296.312 122.224C296.444 122.54 296.642 122.792 296.906 122.98C297.174 123.168 297.508 123.262 297.908 123.262C298.304 123.262 298.644 123.17 298.928 122.986C299.216 122.802 299.4 122.536 299.48 122.188H300.53C300.454 122.608 300.286 122.962 300.026 123.25C299.766 123.538 299.452 123.756 299.084 123.904C298.716 124.048 298.332 124.12 297.932 124.12C297.352 124.12 296.842 123.994 296.402 123.742C295.962 123.49 295.618 123.128 295.37 122.656C295.122 122.184 294.998 121.618 294.998 120.958C294.998 120.306 295.11 119.734 295.334 119.242C295.558 118.75 295.882 118.366 296.306 118.09C296.734 117.814 297.248 117.676 297.848 117.676C298.432 117.676 298.926 117.802 299.33 118.054C299.734 118.306 300.04 118.662 300.248 119.122C300.46 119.578 300.566 120.12 300.566 120.748V121.156H296.12ZM296.126 120.406H299.498C299.498 120.05 299.438 119.73 299.318 119.446C299.198 119.158 299.014 118.932 298.766 118.768C298.522 118.6 298.214 118.516 297.842 118.516C297.454 118.516 297.132 118.61 296.876 118.798C296.624 118.982 296.434 119.22 296.306 119.512C296.182 119.8 296.122 120.098 296.126 120.406ZM304.659 126.052C303.683 126.052 302.923 125.91 302.379 125.626C301.839 125.346 301.569 124.944 301.569 124.42C301.569 124.196 301.621 124.006 301.725 123.85C301.829 123.69 301.953 123.558 302.097 123.454C302.241 123.35 302.375 123.268 302.499 123.208C302.623 123.144 302.703 123.098 302.739 123.07C302.671 123.03 302.585 122.98 302.481 122.92C302.381 122.86 302.293 122.78 302.217 122.68C302.141 122.58 302.103 122.45 302.103 122.29C302.103 122.094 302.195 121.914 302.379 121.75C302.563 121.586 302.835 121.464 303.195 121.384C302.831 121.2 302.547 120.956 302.343 120.652C302.139 120.348 302.037 120.018 302.037 119.662C302.037 119.262 302.145 118.914 302.361 118.618C302.581 118.322 302.893 118.096 303.297 117.94C303.701 117.78 304.181 117.7 304.737 117.7C305.141 117.7 305.481 117.748 305.757 117.844C306.033 117.936 306.289 118.068 306.525 118.24C306.589 118.212 306.689 118.17 306.825 118.114C306.965 118.054 307.119 117.99 307.287 117.922C307.455 117.854 307.611 117.79 307.755 117.73C307.903 117.666 308.021 117.618 308.109 117.586L308.103 118.612L307.017 118.816C307.077 118.944 307.125 119.084 307.161 119.236C307.201 119.388 307.221 119.53 307.221 119.662C307.221 120.026 307.125 120.356 306.933 120.652C306.745 120.948 306.459 121.184 306.075 121.36C305.691 121.536 305.211 121.624 304.635 121.624C304.587 121.624 304.525 121.624 304.449 121.624C304.377 121.62 304.315 121.616 304.263 121.612C303.839 121.624 303.547 121.672 303.387 121.756C303.227 121.836 303.147 121.926 303.147 122.026C303.147 122.142 303.237 122.222 303.417 122.266C303.597 122.31 303.903 122.348 304.335 122.38C304.491 122.388 304.683 122.398 304.911 122.41C305.143 122.422 305.399 122.438 305.679 122.458C306.331 122.498 306.833 122.664 307.185 122.956C307.537 123.248 307.713 123.642 307.713 124.138C307.713 124.702 307.461 125.162 306.957 125.518C306.453 125.874 305.687 126.052 304.659 126.052ZM304.857 125.338C305.429 125.338 305.867 125.252 306.171 125.08C306.475 124.908 306.627 124.648 306.627 124.3C306.627 124.052 306.533 123.85 306.345 123.694C306.161 123.534 305.879 123.442 305.499 123.418L303.759 123.304C303.603 123.296 303.441 123.336 303.273 123.424C303.105 123.508 302.961 123.626 302.841 123.778C302.725 123.93 302.667 124.102 302.667 124.294C302.667 124.622 302.845 124.878 303.201 125.062C303.561 125.246 304.113 125.338 304.857 125.338ZM304.665 120.91C305.113 120.91 305.473 120.806 305.745 120.598C306.021 120.39 306.159 120.082 306.159 119.674C306.159 119.254 306.021 118.934 305.745 118.714C305.473 118.494 305.113 118.384 304.665 118.384C304.213 118.384 303.847 118.496 303.567 118.72C303.291 118.94 303.153 119.258 303.153 119.674C303.153 120.066 303.285 120.37 303.549 120.586C303.813 120.802 304.185 120.91 304.665 120.91ZM309.1 125.506L309.772 124.024L309.25 123.994V122.668H310.636V123.82L309.616 125.506H309.1ZM317.492 119.374L316.556 117.856L315.59 119.41L314.93 118.96L316.064 117.55L314.486 117.106L314.738 116.404L316.244 117.01L316.136 115.324H316.952L316.844 117.016L318.368 116.356L318.596 117.058L317.054 117.544L318.158 118.9L317.492 119.374ZM319.551 124V122.584H320.871V124H319.551ZM330.676 117.796L328.798 124H327.706L326.29 119.422L324.946 124H323.86L321.946 117.796H322.972L324.394 122.566H324.49L325.888 117.796H326.728L328.18 122.554H328.276L329.638 117.796H330.676ZM332.507 121.156C332.507 121.548 332.571 121.904 332.699 122.224C332.831 122.54 333.029 122.792 333.293 122.98C333.561 123.168 333.895 123.262 334.295 123.262C334.691 123.262 335.031 123.17 335.315 122.986C335.603 122.802 335.787 122.536 335.867 122.188H336.917C336.841 122.608 336.673 122.962 336.413 123.25C336.153 123.538 335.839 123.756 335.471 123.904C335.103 124.048 334.719 124.12 334.319 124.12C333.739 124.12 333.229 123.994 332.789 123.742C332.349 123.49 332.005 123.128 331.757 122.656C331.509 122.184 331.385 121.618 331.385 120.958C331.385 120.306 331.497 119.734 331.721 119.242C331.945 118.75 332.269 118.366 332.693 118.09C333.121 117.814 333.635 117.676 334.235 117.676C334.819 117.676 335.313 117.802 335.717 118.054C336.121 118.306 336.427 118.662 336.635 119.122C336.847 119.578 336.953 120.12 336.953 120.748V121.156H332.507ZM332.513 120.406H335.885C335.885 120.05 335.825 119.73 335.705 119.446C335.585 119.158 335.401 118.932 335.153 118.768C334.909 118.6 334.601 118.516 334.229 118.516C333.841 118.516 333.519 118.61 333.263 118.798C333.011 118.982 332.821 119.22 332.693 119.512C332.569 119.8 332.509 120.098 332.513 120.406ZM341.543 124.12C341.179 124.12 340.871 124.072 340.619 123.976C340.371 123.88 340.167 123.758 340.007 123.61C339.847 123.458 339.723 123.304 339.635 123.148C339.547 122.988 339.483 122.848 339.443 122.728L339.323 124H338.477V115.084H339.593V118.78C339.645 118.676 339.723 118.562 339.827 118.438C339.935 118.314 340.073 118.194 340.241 118.078C340.409 117.962 340.607 117.866 340.835 117.79C341.067 117.714 341.331 117.676 341.627 117.676C342.403 117.676 343.019 117.946 343.475 118.486C343.935 119.026 344.165 119.822 344.165 120.874C344.165 121.526 344.067 122.096 343.871 122.584C343.675 123.068 343.383 123.446 342.995 123.718C342.607 123.986 342.123 124.12 341.543 124.12ZM341.345 123.268C341.849 123.268 342.259 123.074 342.575 122.686C342.891 122.294 343.049 121.672 343.049 120.82C343.049 120.096 342.901 119.536 342.605 119.14C342.313 118.74 341.885 118.54 341.321 118.54C340.909 118.54 340.577 118.63 340.325 118.81C340.077 118.986 339.893 119.244 339.773 119.584C339.657 119.924 339.597 120.336 339.593 120.82C339.593 121.688 339.727 122.314 339.995 122.698C340.267 123.078 340.717 123.268 341.345 123.268ZM345.613 125.932V117.796H346.717L346.729 118.876C346.801 118.748 346.893 118.614 347.005 118.474C347.121 118.334 347.261 118.204 347.425 118.084C347.593 117.964 347.787 117.866 348.007 117.79C348.231 117.714 348.485 117.676 348.769 117.676C349.265 117.676 349.701 117.79 350.077 118.018C350.457 118.242 350.753 118.586 350.965 119.05C351.177 119.514 351.283 120.102 351.283 120.814C351.283 121.526 351.179 122.128 350.971 122.62C350.767 123.108 350.471 123.48 350.083 123.736C349.695 123.992 349.227 124.12 348.679 124.12C348.403 124.12 348.157 124.08 347.941 124C347.729 123.924 347.543 123.824 347.383 123.7C347.227 123.572 347.095 123.436 346.987 123.292C346.883 123.148 346.797 123.01 346.729 122.878V125.932H345.613ZM348.469 123.256C348.981 123.256 349.399 123.062 349.723 122.674C350.047 122.282 350.209 121.674 350.209 120.85C350.209 120.142 350.061 119.58 349.765 119.164C349.469 118.748 349.037 118.54 348.469 118.54C347.893 118.54 347.457 118.754 347.161 119.182C346.865 119.606 346.717 120.162 346.717 120.85C346.717 121.294 346.783 121.698 346.915 122.062C347.047 122.426 347.243 122.716 347.503 122.932C347.763 123.148 348.085 123.256 348.469 123.256ZM357.15 124.12C356.75 124.12 356.396 124.05 356.088 123.91C355.78 123.766 355.538 123.56 355.362 123.292C355.19 123.024 355.104 122.7 355.104 122.32C355.104 121.632 355.344 121.12 355.824 120.784C356.304 120.448 357.074 120.268 358.134 120.244L359.244 120.214V119.728C359.244 119.348 359.13 119.048 358.902 118.828C358.674 118.604 358.32 118.492 357.84 118.492C357.484 118.496 357.17 118.58 356.898 118.744C356.63 118.908 356.456 119.176 356.376 119.548H355.398C355.422 119.144 355.536 118.804 355.74 118.528C355.944 118.248 356.228 118.036 356.592 117.892C356.96 117.748 357.394 117.676 357.894 117.676C358.434 117.676 358.882 117.752 359.238 117.904C359.598 118.056 359.866 118.28 360.042 118.576C360.222 118.872 360.312 119.236 360.312 119.668V124H359.364L359.286 122.836C359.046 123.32 358.74 123.656 358.368 123.844C358 124.028 357.594 124.12 357.15 124.12ZM357.486 123.322C357.694 123.322 357.9 123.284 358.104 123.208C358.312 123.132 358.502 123.03 358.674 122.902C358.846 122.77 358.982 122.624 359.082 122.464C359.186 122.3 359.24 122.132 359.244 121.96V120.898L358.32 120.916C357.848 120.924 357.452 120.972 357.132 121.06C356.816 121.148 356.578 121.286 356.418 121.474C356.262 121.662 356.184 121.908 356.184 122.212C356.184 122.56 356.304 122.832 356.544 123.028C356.788 123.224 357.102 123.322 357.486 123.322ZM362.207 124V117.796H363.281V118.696C363.381 118.524 363.519 118.362 363.695 118.21C363.875 118.058 364.091 117.936 364.343 117.844C364.599 117.752 364.893 117.706 365.225 117.706C365.617 117.706 365.977 117.784 366.305 117.94C366.637 118.096 366.901 118.34 367.097 118.672C367.297 119 367.397 119.424 367.397 119.944V124H366.287V120.052C366.287 119.568 366.159 119.21 365.903 118.978C365.651 118.742 365.323 118.624 364.919 118.624C364.639 118.624 364.377 118.67 364.133 118.762C363.889 118.85 363.691 118.986 363.539 119.17C363.387 119.35 363.311 119.578 363.311 119.854V124H362.207ZM371.371 124.12C370.567 124.12 369.929 123.844 369.457 123.292C368.985 122.74 368.749 121.934 368.749 120.874C368.749 120.23 368.843 119.668 369.031 119.188C369.223 118.708 369.507 118.336 369.883 118.072C370.259 117.808 370.727 117.676 371.287 117.676C371.583 117.676 371.845 117.714 372.073 117.79C372.305 117.866 372.505 117.962 372.673 118.078C372.841 118.194 372.977 118.314 373.081 118.438C373.189 118.562 373.269 118.676 373.321 118.78V115.084H374.437V124H373.591L373.471 122.728C373.431 122.848 373.367 122.988 373.279 123.148C373.191 123.304 373.067 123.458 372.907 123.61C372.747 123.758 372.541 123.88 372.289 123.976C372.041 124.072 371.735 124.12 371.371 124.12ZM371.569 123.268C372.197 123.268 372.645 123.078 372.913 122.698C373.185 122.314 373.321 121.688 373.321 120.82C373.317 120.336 373.255 119.924 373.135 119.584C373.019 119.244 372.835 118.986 372.583 118.81C372.335 118.63 372.005 118.54 371.593 118.54C371.081 118.54 370.665 118.722 370.345 119.086C370.025 119.45 369.865 120.028 369.865 120.82C369.865 121.596 370.009 122.198 370.297 122.626C370.589 123.054 371.013 123.268 371.569 123.268ZM381.441 119.374L380.505 117.856L379.539 119.41L378.879 118.96L380.013 117.55L378.435 117.106L378.687 116.404L380.193 117.01L380.085 115.324H380.901L380.793 117.016L382.317 116.356L382.545 117.058L381.003 117.544L382.107 118.9L381.441 119.374ZM383.5 124V122.584H384.82V124H383.5ZM386.465 125.932V117.796H387.569L387.581 118.876C387.653 118.748 387.745 118.614 387.857 118.474C387.973 118.334 388.113 118.204 388.277 118.084C388.445 117.964 388.639 117.866 388.859 117.79C389.083 117.714 389.337 117.676 389.621 117.676C390.117 117.676 390.553 117.79 390.929 118.018C391.309 118.242 391.605 118.586 391.817 119.05C392.029 119.514 392.135 120.102 392.135 120.814C392.135 121.526 392.031 122.128 391.823 122.62C391.619 123.108 391.323 123.48 390.935 123.736C390.547 123.992 390.079 124.12 389.531 124.12C389.255 124.12 389.009 124.08 388.793 124C388.581 123.924 388.395 123.824 388.235 123.7C388.079 123.572 387.947 123.436 387.839 123.292C387.735 123.148 387.649 123.01 387.581 122.878V125.932H386.465ZM389.321 123.256C389.833 123.256 390.251 123.062 390.575 122.674C390.899 122.282 391.061 121.674 391.061 120.85C391.061 120.142 390.913 119.58 390.617 119.164C390.321 118.748 389.889 118.54 389.321 118.54C388.745 118.54 388.309 118.754 388.013 119.182C387.717 119.606 387.569 120.162 387.569 120.85C387.569 121.294 387.635 121.698 387.767 122.062C387.899 122.426 388.095 122.716 388.355 122.932C388.615 123.148 388.937 123.256 389.321 123.256ZM393.59 124V117.796H394.664V118.696C394.764 118.524 394.902 118.362 395.078 118.21C395.258 118.058 395.474 117.936 395.726 117.844C395.982 117.752 396.276 117.706 396.608 117.706C397 117.706 397.36 117.784 397.688 117.94C398.02 118.096 398.284 118.34 398.48 118.672C398.68 119 398.78 119.424 398.78 119.944V124H397.67V120.052C397.67 119.568 397.542 119.21 397.286 118.978C397.034 118.742 396.706 118.624 396.302 118.624C396.022 118.624 395.76 118.67 395.516 118.762C395.272 118.85 395.074 118.986 394.922 119.17C394.77 119.35 394.694 119.578 394.694 119.854V124H393.59ZM403.132 126.052C402.156 126.052 401.396 125.91 400.852 125.626C400.312 125.346 400.042 124.944 400.042 124.42C400.042 124.196 400.094 124.006 400.198 123.85C400.302 123.69 400.426 123.558 400.57 123.454C400.714 123.35 400.848 123.268 400.972 123.208C401.096 123.144 401.176 123.098 401.212 123.07C401.144 123.03 401.058 122.98 400.954 122.92C400.854 122.86 400.766 122.78 400.69 122.68C400.614 122.58 400.576 122.45 400.576 122.29C400.576 122.094 400.668 121.914 400.852 121.75C401.036 121.586 401.308 121.464 401.668 121.384C401.304 121.2 401.02 120.956 400.816 120.652C400.612 120.348 400.51 120.018 400.51 119.662C400.51 119.262 400.618 118.914 400.834 118.618C401.054 118.322 401.366 118.096 401.77 117.94C402.174 117.78 402.654 117.7 403.21 117.7C403.614 117.7 403.954 117.748 404.23 117.844C404.506 117.936 404.762 118.068 404.998 118.24C405.062 118.212 405.162 118.17 405.298 118.114C405.438 118.054 405.592 117.99 405.76 117.922C405.928 117.854 406.084 117.79 406.228 117.73C406.376 117.666 406.494 117.618 406.582 117.586L406.576 118.612L405.49 118.816C405.55 118.944 405.598 119.084 405.634 119.236C405.674 119.388 405.694 119.53 405.694 119.662C405.694 120.026 405.598 120.356 405.406 120.652C405.218 120.948 404.932 121.184 404.548 121.36C404.164 121.536 403.684 121.624 403.108 121.624C403.06 121.624 402.998 121.624 402.922 121.624C402.85 121.62 402.788 121.616 402.736 121.612C402.312 121.624 402.02 121.672 401.86 121.756C401.7 121.836 401.62 121.926 401.62 122.026C401.62 122.142 401.71 122.222 401.89 122.266C402.07 122.31 402.376 122.348 402.808 122.38C402.964 122.388 403.156 122.398 403.384 122.41C403.616 122.422 403.872 122.438 404.152 122.458C404.804 122.498 405.306 122.664 405.658 122.956C406.01 123.248 406.186 123.642 406.186 124.138C406.186 124.702 405.934 125.162 405.43 125.518C404.926 125.874 404.16 126.052 403.132 126.052ZM403.33 125.338C403.902 125.338 404.34 125.252 404.644 125.08C404.948 124.908 405.1 124.648 405.1 124.3C405.1 124.052 405.006 123.85 404.818 123.694C404.634 123.534 404.352 123.442 403.972 123.418L402.232 123.304C402.076 123.296 401.914 123.336 401.746 123.424C401.578 123.508 401.434 123.626 401.314 123.778C401.198 123.93 401.14 124.102 401.14 124.294C401.14 124.622 401.318 124.878 401.674 125.062C402.034 125.246 402.586 125.338 403.33 125.338ZM403.138 120.91C403.586 120.91 403.946 120.806 404.218 120.598C404.494 120.39 404.632 120.082 404.632 119.674C404.632 119.254 404.494 118.934 404.218 118.714C403.946 118.494 403.586 118.384 403.138 118.384C402.686 118.384 402.32 118.496 402.04 118.72C401.764 118.94 401.626 119.258 401.626 119.674C401.626 120.066 401.758 120.37 402.022 120.586C402.286 120.802 402.658 120.91 403.138 120.91ZM411.934 117.796V124H410.86V117.796H411.934ZM411.958 115.33V116.482H410.824V115.33H411.958ZM413.957 124V117.796H415.025V118.696C415.197 118.424 415.433 118.186 415.733 117.982C416.033 117.778 416.423 117.676 416.903 117.676C417.127 117.676 417.355 117.714 417.587 117.79C417.823 117.866 418.039 117.98 418.235 118.132C418.431 118.284 418.583 118.47 418.691 118.69C418.883 118.386 419.143 118.142 419.471 117.958C419.799 117.77 420.169 117.676 420.581 117.676C420.797 117.676 421.023 117.71 421.259 117.778C421.495 117.842 421.713 117.958 421.913 118.126C422.117 118.29 422.283 118.52 422.411 118.816C422.539 119.108 422.603 119.484 422.603 119.944V124H421.487V120.052C421.487 119.676 421.427 119.386 421.307 119.182C421.187 118.974 421.029 118.828 420.833 118.744C420.641 118.66 420.435 118.618 420.215 118.618C420.023 118.618 419.819 118.656 419.603 118.732C419.387 118.808 419.203 118.936 419.051 119.116C418.899 119.296 418.823 119.542 418.823 119.854V124H417.719V119.728C417.719 119.484 417.653 119.28 417.521 119.116C417.393 118.952 417.231 118.828 417.035 118.744C416.843 118.66 416.651 118.618 416.459 118.618C416.247 118.618 416.033 118.66 415.817 118.744C415.605 118.828 415.425 118.962 415.277 119.146C415.133 119.326 415.061 119.562 415.061 119.854V124H413.957ZM426.032 124.12C425.632 124.12 425.278 124.05 424.97 123.91C424.662 123.766 424.42 123.56 424.244 123.292C424.072 123.024 423.986 122.7 423.986 122.32C423.986 121.632 424.226 121.12 424.706 120.784C425.186 120.448 425.956 120.268 427.016 120.244L428.126 120.214V119.728C428.126 119.348 428.012 119.048 427.784 118.828C427.556 118.604 427.202 118.492 426.722 118.492C426.366 118.496 426.052 118.58 425.78 118.744C425.512 118.908 425.338 119.176 425.258 119.548H424.28C424.304 119.144 424.418 118.804 424.622 118.528C424.826 118.248 425.11 118.036 425.474 117.892C425.842 117.748 426.276 117.676 426.776 117.676C427.316 117.676 427.764 117.752 428.12 117.904C428.48 118.056 428.748 118.28 428.924 118.576C429.104 118.872 429.194 119.236 429.194 119.668V124H428.246L428.168 122.836C427.928 123.32 427.622 123.656 427.25 123.844C426.882 124.028 426.476 124.12 426.032 124.12ZM426.368 123.322C426.576 123.322 426.782 123.284 426.986 123.208C427.194 123.132 427.384 123.03 427.556 122.902C427.728 122.77 427.864 122.624 427.964 122.464C428.068 122.3 428.122 122.132 428.126 121.96V120.898L427.202 120.916C426.73 120.924 426.334 120.972 426.014 121.06C425.698 121.148 425.46 121.286 425.3 121.474C425.144 121.662 425.066 121.908 425.066 122.212C425.066 122.56 425.186 122.832 425.426 123.028C425.67 123.224 425.984 123.322 426.368 123.322ZM433.706 126.052C432.73 126.052 431.97 125.91 431.426 125.626C430.886 125.346 430.616 124.944 430.616 124.42C430.616 124.196 430.668 124.006 430.772 123.85C430.876 123.69 431 123.558 431.144 123.454C431.288 123.35 431.422 123.268 431.546 123.208C431.67 123.144 431.75 123.098 431.786 123.07C431.718 123.03 431.632 122.98 431.528 122.92C431.428 122.86 431.34 122.78 431.264 122.68C431.188 122.58 431.15 122.45 431.15 122.29C431.15 122.094 431.242 121.914 431.426 121.75C431.61 121.586 431.882 121.464 432.242 121.384C431.878 121.2 431.594 120.956 431.39 120.652C431.186 120.348 431.084 120.018 431.084 119.662C431.084 119.262 431.192 118.914 431.408 118.618C431.628 118.322 431.94 118.096 432.344 117.94C432.748 117.78 433.228 117.7 433.784 117.7C434.188 117.7 434.528 117.748 434.804 117.844C435.08 117.936 435.336 118.068 435.572 118.24C435.636 118.212 435.736 118.17 435.872 118.114C436.012 118.054 436.166 117.99 436.334 117.922C436.502 117.854 436.658 117.79 436.802 117.73C436.95 117.666 437.068 117.618 437.156 117.586L437.15 118.612L436.064 118.816C436.124 118.944 436.172 119.084 436.208 119.236C436.248 119.388 436.268 119.53 436.268 119.662C436.268 120.026 436.172 120.356 435.98 120.652C435.792 120.948 435.506 121.184 435.122 121.36C434.738 121.536 434.258 121.624 433.682 121.624C433.634 121.624 433.572 121.624 433.496 121.624C433.424 121.62 433.362 121.616 433.31 121.612C432.886 121.624 432.594 121.672 432.434 121.756C432.274 121.836 432.194 121.926 432.194 122.026C432.194 122.142 432.284 122.222 432.464 122.266C432.644 122.31 432.95 122.348 433.382 122.38C433.538 122.388 433.73 122.398 433.958 122.41C434.19 122.422 434.446 122.438 434.726 122.458C435.378 122.498 435.88 122.664 436.232 122.956C436.584 123.248 436.76 123.642 436.76 124.138C436.76 124.702 436.508 125.162 436.004 125.518C435.5 125.874 434.734 126.052 433.706 126.052ZM433.904 125.338C434.476 125.338 434.914 125.252 435.218 125.08C435.522 124.908 435.674 124.648 435.674 124.3C435.674 124.052 435.58 123.85 435.392 123.694C435.208 123.534 434.926 123.442 434.546 123.418L432.806 123.304C432.65 123.296 432.488 123.336 432.32 123.424C432.152 123.508 432.008 123.626 431.888 123.778C431.772 123.93 431.714 124.102 431.714 124.294C431.714 124.622 431.892 124.878 432.248 125.062C432.608 125.246 433.16 125.338 433.904 125.338ZM433.712 120.91C434.16 120.91 434.52 120.806 434.792 120.598C435.068 120.39 435.206 120.082 435.206 119.674C435.206 119.254 435.068 118.934 434.792 118.714C434.52 118.494 434.16 118.384 433.712 118.384C433.26 118.384 432.894 118.496 432.614 118.72C432.338 118.94 432.2 119.258 432.2 119.674C432.2 120.066 432.332 120.37 432.596 120.586C432.86 120.802 433.232 120.91 433.712 120.91ZM439.148 121.156C439.148 121.548 439.212 121.904 439.34 122.224C439.472 122.54 439.67 122.792 439.934 122.98C440.202 123.168 440.536 123.262 440.936 123.262C441.332 123.262 441.672 123.17 441.956 122.986C442.244 122.802 442.428 122.536 442.508 122.188H443.558C443.482 122.608 443.314 122.962 443.054 123.25C442.794 123.538 442.48 123.756 442.112 123.904C441.744 124.048 441.36 124.12 440.96 124.12C440.38 124.12 439.87 123.994 439.43 123.742C438.99 123.49 438.646 123.128 438.398 122.656C438.15 122.184 438.026 121.618 438.026 120.958C438.026 120.306 438.138 119.734 438.362 119.242C438.586 118.75 438.91 118.366 439.334 118.09C439.762 117.814 440.276 117.676 440.876 117.676C441.46 117.676 441.954 117.802 442.358 118.054C442.762 118.306 443.068 118.662 443.276 119.122C443.488 119.578 443.594 120.12 443.594 120.748V121.156H439.148ZM439.154 120.406H442.526C442.526 120.05 442.466 119.73 442.346 119.446C442.226 119.158 442.042 118.932 441.794 118.768C441.55 118.6 441.242 118.516 440.87 118.516C440.482 118.516 440.16 118.61 439.904 118.798C439.652 118.982 439.462 119.22 439.334 119.512C439.21 119.8 439.15 120.098 439.154 120.406ZM455.902 117.796L454.024 124H452.932L451.516 119.422L450.172 124H449.086L447.172 117.796H448.198L449.62 122.566H449.716L451.114 117.796H451.954L453.406 122.554H453.502L454.864 117.796H455.902ZM458.364 117.796V124H457.29V117.796H458.364ZM458.388 115.33V116.482H457.254V115.33H458.388ZM461.953 124.078C461.617 124.078 461.345 124.032 461.137 123.94C460.933 123.848 460.775 123.724 460.663 123.568C460.555 123.412 460.481 123.234 460.441 123.034C460.405 122.83 460.387 122.62 460.387 122.404V115.084H461.479V122.296C461.479 122.608 461.539 122.842 461.659 122.998C461.783 123.154 461.955 123.24 462.175 123.256L462.511 123.262V123.982C462.419 124.01 462.323 124.032 462.223 124.048C462.123 124.068 462.033 124.078 461.953 124.078ZM465.351 124.078C465.015 124.078 464.743 124.032 464.535 123.94C464.331 123.848 464.173 123.724 464.061 123.568C463.953 123.412 463.879 123.234 463.839 123.034C463.803 122.83 463.785 122.62 463.785 122.404V115.084H464.877V122.296C464.877 122.608 464.937 122.842 465.057 122.998C465.181 123.154 465.353 123.24 465.573 123.256L465.909 123.262V123.982C465.817 124.01 465.721 124.032 465.621 124.048C465.521 124.068 465.431 124.078 465.351 124.078ZM473.191 124.12C472.827 124.12 472.519 124.072 472.267 123.976C472.019 123.88 471.815 123.758 471.655 123.61C471.495 123.458 471.371 123.304 471.283 123.148C471.195 122.988 471.131 122.848 471.091 122.728L470.971 124H470.125V115.084H471.241V118.78C471.293 118.676 471.371 118.562 471.475 118.438C471.583 118.314 471.721 118.194 471.889 118.078C472.057 117.962 472.255 117.866 472.483 117.79C472.715 117.714 472.979 117.676 473.275 117.676C474.051 117.676 474.667 117.946 475.123 118.486C475.583 119.026 475.813 119.822 475.813 120.874C475.813 121.526 475.715 122.096 475.519 122.584C475.323 123.068 475.031 123.446 474.643 123.718C474.255 123.986 473.771 124.12 473.191 124.12ZM472.993 123.268C473.497 123.268 473.907 123.074 474.223 122.686C474.539 122.294 474.697 121.672 474.697 120.82C474.697 120.096 474.549 119.536 474.253 119.14C473.961 118.74 473.533 118.54 472.969 118.54C472.557 118.54 472.225 118.63 471.973 118.81C471.725 118.986 471.541 119.244 471.421 119.584C471.305 119.924 471.245 120.336 471.241 120.82C471.241 121.688 471.375 122.314 471.643 122.698C471.915 123.078 472.365 123.268 472.993 123.268ZM478.054 121.156C478.054 121.548 478.118 121.904 478.246 122.224C478.378 122.54 478.576 122.792 478.84 122.98C479.108 123.168 479.442 123.262 479.842 123.262C480.238 123.262 480.578 123.17 480.862 122.986C481.15 122.802 481.334 122.536 481.414 122.188H482.464C482.388 122.608 482.22 122.962 481.96 123.25C481.7 123.538 481.386 123.756 481.018 123.904C480.65 124.048 480.266 124.12 479.866 124.12C479.286 124.12 478.776 123.994 478.336 123.742C477.896 123.49 477.552 123.128 477.304 122.656C477.056 122.184 476.932 121.618 476.932 120.958C476.932 120.306 477.044 119.734 477.268 119.242C477.492 118.75 477.816 118.366 478.24 118.09C478.668 117.814 479.182 117.676 479.782 117.676C480.366 117.676 480.86 117.802 481.264 118.054C481.668 118.306 481.974 118.662 482.182 119.122C482.394 119.578 482.5 120.12 482.5 120.748V121.156H478.054ZM478.06 120.406H481.432C481.432 120.05 481.372 119.73 481.252 119.446C481.132 119.158 480.948 118.932 480.7 118.768C480.456 118.6 480.148 118.516 479.776 118.516C479.388 118.516 479.066 118.61 478.81 118.798C478.558 118.982 478.368 119.22 478.24 119.512C478.116 119.8 478.056 120.098 478.06 120.406ZM488.435 124.12C488.035 124.12 487.681 124.05 487.373 123.91C487.065 123.766 486.823 123.56 486.647 123.292C486.475 123.024 486.389 122.7 486.389 122.32C486.389 121.632 486.629 121.12 487.109 120.784C487.589 120.448 488.359 120.268 489.419 120.244L490.529 120.214V119.728C490.529 119.348 490.415 119.048 490.187 118.828C489.959 118.604 489.605 118.492 489.125 118.492C488.769 118.496 488.455 118.58 488.183 118.744C487.915 118.908 487.741 119.176 487.661 119.548H486.683C486.707 119.144 486.821 118.804 487.025 118.528C487.229 118.248 487.513 118.036 487.877 117.892C488.245 117.748 488.679 117.676 489.179 117.676C489.719 117.676 490.167 117.752 490.523 117.904C490.883 118.056 491.151 118.28 491.327 118.576C491.507 118.872 491.597 119.236 491.597 119.668V124H490.649L490.571 122.836C490.331 123.32 490.025 123.656 489.653 123.844C489.285 124.028 488.879 124.12 488.435 124.12ZM488.771 123.322C488.979 123.322 489.185 123.284 489.389 123.208C489.597 123.132 489.787 123.03 489.959 122.902C490.131 122.77 490.267 122.624 490.367 122.464C490.471 122.3 490.525 122.132 490.529 121.96V120.898L489.605 120.916C489.133 120.924 488.737 120.972 488.417 121.06C488.101 121.148 487.863 121.286 487.703 121.474C487.547 121.662 487.469 121.908 487.469 122.212C487.469 122.56 487.589 122.832 487.829 123.028C488.073 123.224 488.387 123.322 488.771 123.322ZM495.964 117.676C496.408 117.676 496.808 117.762 497.164 117.934C497.52 118.102 497.81 118.342 498.034 118.654C498.262 118.966 498.404 119.334 498.46 119.758H497.476C497.44 119.542 497.356 119.344 497.224 119.164C497.096 118.984 496.926 118.84 496.714 118.732C496.502 118.624 496.254 118.57 495.97 118.57C495.438 118.57 495.006 118.762 494.674 119.146C494.342 119.53 494.176 120.118 494.176 120.91C494.176 121.626 494.328 122.2 494.632 122.632C494.94 123.06 495.392 123.274 495.988 123.274C496.272 123.274 496.518 123.22 496.726 123.112C496.938 123 497.108 122.854 497.236 122.674C497.364 122.49 497.446 122.294 497.482 122.086H498.448C498.396 122.502 498.256 122.862 498.028 123.166C497.8 123.47 497.508 123.706 497.152 123.874C496.8 124.038 496.404 124.12 495.964 124.12C495.408 124.12 494.914 123.998 494.482 123.754C494.054 123.51 493.718 123.15 493.474 122.674C493.23 122.198 493.108 121.614 493.108 120.922C493.108 120.274 493.218 119.708 493.438 119.224C493.662 118.736 493.986 118.356 494.41 118.084C494.838 117.812 495.356 117.676 495.964 117.676ZM502.433 117.676C502.877 117.676 503.277 117.762 503.633 117.934C503.989 118.102 504.279 118.342 504.503 118.654C504.731 118.966 504.873 119.334 504.929 119.758H503.945C503.909 119.542 503.825 119.344 503.693 119.164C503.565 118.984 503.395 118.84 503.183 118.732C502.971 118.624 502.723 118.57 502.439 118.57C501.907 118.57 501.475 118.762 501.143 119.146C500.811 119.53 500.645 120.118 500.645 120.91C500.645 121.626 500.797 122.2 501.101 122.632C501.409 123.06 501.861 123.274 502.457 123.274C502.741 123.274 502.987 123.22 503.195 123.112C503.407 123 503.577 122.854 503.705 122.674C503.833 122.49 503.915 122.294 503.951 122.086H504.917C504.865 122.502 504.725 122.862 504.497 123.166C504.269 123.47 503.977 123.706 503.621 123.874C503.269 124.038 502.873 124.12 502.433 124.12C501.877 124.12 501.383 123.998 500.951 123.754C500.523 123.51 500.187 123.15 499.943 122.674C499.699 122.198 499.577 121.614 499.577 120.922C499.577 120.274 499.687 119.708 499.907 119.224C500.131 118.736 500.455 118.356 500.879 118.084C501.307 117.812 501.825 117.676 502.433 117.676ZM507.222 121.156C507.222 121.548 507.286 121.904 507.414 122.224C507.546 122.54 507.744 122.792 508.008 122.98C508.276 123.168 508.61 123.262 509.01 123.262C509.406 123.262 509.746 123.17 510.03 122.986C510.318 122.802 510.502 122.536 510.582 122.188H511.632C511.556 122.608 511.388 122.962 511.128 123.25C510.868 123.538 510.554 123.756 510.186 123.904C509.818 124.048 509.434 124.12 509.034 124.12C508.454 124.12 507.944 123.994 507.504 123.742C507.064 123.49 506.72 123.128 506.472 122.656C506.224 122.184 506.1 121.618 506.1 120.958C506.1 120.306 506.212 119.734 506.436 119.242C506.66 118.75 506.984 118.366 507.408 118.09C507.836 117.814 508.35 117.676 508.95 117.676C509.534 117.676 510.028 117.802 510.432 118.054C510.836 118.306 511.142 118.662 511.35 119.122C511.562 119.578 511.668 120.12 511.668 120.748V121.156H507.222ZM507.228 120.406H510.6C510.6 120.05 510.54 119.73 510.42 119.446C510.3 119.158 510.116 118.932 509.868 118.768C509.624 118.6 509.316 118.516 508.944 118.516C508.556 118.516 508.234 118.61 507.978 118.798C507.726 118.982 507.536 119.22 507.408 119.512C507.284 119.8 507.224 120.098 507.228 120.406ZM513.191 125.932V117.796H514.295L514.307 118.876C514.379 118.748 514.471 118.614 514.583 118.474C514.699 118.334 514.839 118.204 515.003 118.084C515.171 117.964 515.365 117.866 515.585 117.79C515.809 117.714 516.063 117.676 516.347 117.676C516.843 117.676 517.279 117.79 517.655 118.018C518.035 118.242 518.331 118.586 518.543 119.05C518.755 119.514 518.861 120.102 518.861 120.814C518.861 121.526 518.757 122.128 518.549 122.62C518.345 123.108 518.049 123.48 517.661 123.736C517.273 123.992 516.805 124.12 516.257 124.12C515.981 124.12 515.735 124.08 515.519 124C515.307 123.924 515.121 123.824 514.961 123.7C514.805 123.572 514.673 123.436 514.565 123.292C514.461 123.148 514.375 123.01 514.307 122.878V125.932H513.191ZM516.047 123.256C516.559 123.256 516.977 123.062 517.301 122.674C517.625 122.282 517.787 121.674 517.787 120.85C517.787 120.142 517.639 119.58 517.343 119.164C517.047 118.748 516.615 118.54 516.047 118.54C515.471 118.54 515.035 118.754 514.739 119.182C514.443 119.606 514.295 120.162 514.295 120.85C514.295 121.294 514.361 121.698 514.493 122.062C514.625 122.426 514.821 122.716 515.081 122.932C515.341 123.148 515.663 123.256 516.047 123.256ZM523.269 118.606H521.871V122.464C521.871 122.684 521.893 122.846 521.937 122.95C521.985 123.05 522.063 123.114 522.171 123.142C522.283 123.17 522.435 123.184 522.627 123.184H523.305V123.928C523.229 123.956 523.113 123.98 522.957 124C522.805 124.02 522.615 124.03 522.387 124.03C521.959 124.03 521.627 123.972 521.391 123.856C521.155 123.74 520.989 123.568 520.893 123.34C520.801 123.112 520.755 122.832 520.755 122.5V118.606H519.747V117.796H520.785L521.055 115.99H521.871V117.79H523.269V118.606ZM525.491 121.156C525.491 121.548 525.555 121.904 525.683 122.224C525.815 122.54 526.013 122.792 526.277 122.98C526.545 123.168 526.879 123.262 527.279 123.262C527.675 123.262 528.015 123.17 528.299 122.986C528.587 122.802 528.771 122.536 528.851 122.188H529.901C529.825 122.608 529.657 122.962 529.397 123.25C529.137 123.538 528.823 123.756 528.455 123.904C528.087 124.048 527.703 124.12 527.303 124.12C526.723 124.12 526.213 123.994 525.773 123.742C525.333 123.49 524.989 123.128 524.741 122.656C524.493 122.184 524.369 121.618 524.369 120.958C524.369 120.306 524.481 119.734 524.705 119.242C524.929 118.75 525.253 118.366 525.677 118.09C526.105 117.814 526.619 117.676 527.219 117.676C527.803 117.676 528.297 117.802 528.701 118.054C529.105 118.306 529.411 118.662 529.619 119.122C529.831 119.578 529.937 120.12 529.937 120.748V121.156H525.491ZM525.497 120.406H528.869C528.869 120.05 528.809 119.73 528.689 119.446C528.569 119.158 528.385 118.932 528.137 118.768C527.893 118.6 527.585 118.516 527.213 118.516C526.825 118.516 526.503 118.61 526.247 118.798C525.995 118.982 525.805 119.22 525.677 119.512C525.553 119.8 525.493 120.098 525.497 120.406ZM533.699 124.12C532.895 124.12 532.257 123.844 531.785 123.292C531.313 122.74 531.077 121.934 531.077 120.874C531.077 120.23 531.171 119.668 531.359 119.188C531.551 118.708 531.835 118.336 532.211 118.072C532.587 117.808 533.055 117.676 533.615 117.676C533.911 117.676 534.173 117.714 534.401 117.79C534.633 117.866 534.833 117.962 535.001 118.078C535.169 118.194 535.305 118.314 535.409 118.438C535.517 118.562 535.597 118.676 535.649 118.78V115.084H536.765V124H535.919L535.799 122.728C535.759 122.848 535.695 122.988 535.607 123.148C535.519 123.304 535.395 123.458 535.235 123.61C535.075 123.758 534.869 123.88 534.617 123.976C534.369 124.072 534.063 124.12 533.699 124.12ZM533.897 123.268C534.525 123.268 534.973 123.078 535.241 122.698C535.513 122.314 535.649 121.688 535.649 120.82C535.645 120.336 535.583 119.924 535.463 119.584C535.347 119.244 535.163 118.986 534.911 118.81C534.663 118.63 534.333 118.54 533.921 118.54C533.409 118.54 532.993 118.722 532.673 119.086C532.353 119.45 532.193 120.028 532.193 120.82C532.193 121.596 532.337 122.198 532.625 122.626C532.917 123.054 533.341 123.268 533.897 123.268ZM538.34 124V122.584H539.66V124H538.34ZM546.766 124V117.796H547.834V118.696C548.006 118.424 548.242 118.186 548.542 117.982C548.842 117.778 549.232 117.676 549.712 117.676C549.936 117.676 550.164 117.714 550.396 117.79C550.632 117.866 550.848 117.98 551.044 118.132C551.24 118.284 551.392 118.47 551.5 118.69C551.692 118.386 551.952 118.142 552.28 117.958C552.608 117.77 552.978 117.676 553.39 117.676C553.606 117.676 553.832 117.71 554.068 117.778C554.304 117.842 554.522 117.958 554.722 118.126C554.926 118.29 555.092 118.52 555.22 118.816C555.348 119.108 555.412 119.484 555.412 119.944V124H554.296V120.052C554.296 119.676 554.236 119.386 554.116 119.182C553.996 118.974 553.838 118.828 553.642 118.744C553.45 118.66 553.244 118.618 553.024 118.618C552.832 118.618 552.628 118.656 552.412 118.732C552.196 118.808 552.012 118.936 551.86 119.116C551.708 119.296 551.632 119.542 551.632 119.854V124H550.528V119.728C550.528 119.484 550.462 119.28 550.33 119.116C550.202 118.952 550.04 118.828 549.844 118.744C549.652 118.66 549.46 118.618 549.268 118.618C549.056 118.618 548.842 118.66 548.626 118.744C548.414 118.828 548.234 118.962 548.086 119.146C547.942 119.326 547.87 119.562 547.87 119.854V124H546.766ZM558.841 124.12C558.441 124.12 558.087 124.05 557.779 123.91C557.471 123.766 557.229 123.56 557.053 123.292C556.881 123.024 556.795 122.7 556.795 122.32C556.795 121.632 557.035 121.12 557.515 120.784C557.995 120.448 558.765 120.268 559.825 120.244L560.935 120.214V119.728C560.935 119.348 560.821 119.048 560.593 118.828C560.365 118.604 560.011 118.492 559.531 118.492C559.175 118.496 558.861 118.58 558.589 118.744C558.321 118.908 558.147 119.176 558.067 119.548H557.089C557.113 119.144 557.227 118.804 557.431 118.528C557.635 118.248 557.919 118.036 558.283 117.892C558.651 117.748 559.085 117.676 559.585 117.676C560.125 117.676 560.573 117.752 560.929 117.904C561.289 118.056 561.557 118.28 561.733 118.576C561.913 118.872 562.003 119.236 562.003 119.668V124H561.055L560.977 122.836C560.737 123.32 560.431 123.656 560.059 123.844C559.691 124.028 559.285 124.12 558.841 124.12ZM559.177 123.322C559.385 123.322 559.591 123.284 559.795 123.208C560.003 123.132 560.193 123.03 560.365 122.902C560.537 122.77 560.673 122.624 560.773 122.464C560.877 122.3 560.931 122.132 560.935 121.96V120.898L560.011 120.916C559.539 120.924 559.143 120.972 558.823 121.06C558.507 121.148 558.269 121.286 558.109 121.474C557.953 121.662 557.875 121.908 557.875 122.212C557.875 122.56 557.995 122.832 558.235 123.028C558.479 123.224 558.793 123.322 559.177 123.322ZM569.242 124H568.036L566.23 121.57L564.436 124H563.218L565.612 120.778L563.41 117.796H564.622L566.23 119.974L567.844 117.796H569.056L566.848 120.778L569.242 124ZM573.783 115.324H578.961L578.931 116.284H574.731L574.509 119.086C574.797 118.818 575.111 118.628 575.451 118.516C575.795 118.4 576.167 118.342 576.567 118.342C577.091 118.342 577.573 118.45 578.013 118.666C578.457 118.878 578.813 119.194 579.081 119.614C579.349 120.03 579.483 120.546 579.483 121.162C579.483 121.762 579.353 122.284 579.093 122.728C578.833 123.172 578.467 123.518 577.995 123.766C577.523 124.01 576.969 124.132 576.333 124.132C575.797 124.132 575.301 124.038 574.845 123.85C574.389 123.662 573.997 123.4 573.669 123.064C573.345 122.728 573.107 122.342 572.955 121.906L573.915 121.504C574.059 121.832 574.239 122.124 574.455 122.38C574.675 122.636 574.935 122.836 575.235 122.98C575.535 123.124 575.875 123.196 576.255 123.196C576.871 123.196 577.365 123.018 577.737 122.662C578.113 122.302 578.301 121.814 578.301 121.198C578.301 120.814 578.213 120.48 578.037 120.196C577.861 119.908 577.623 119.684 577.323 119.524C577.027 119.364 576.699 119.284 576.339 119.284C576.103 119.284 575.883 119.306 575.679 119.35C575.475 119.39 575.273 119.47 575.073 119.59C574.873 119.71 574.663 119.892 574.443 120.136C574.419 120.148 574.401 120.154 574.389 120.154C574.377 120.15 574.357 120.142 574.329 120.13L573.393 119.836L573.783 115.324ZM583.978 124V115.324H585.514L588.13 122.488L590.782 115.324H592.312V124H591.166V116.986L588.652 124H587.614L585.118 117.052V124H583.978ZM594.607 124V115.324H597.397C598.453 115.324 599.251 115.518 599.791 115.906C600.335 116.294 600.607 116.854 600.607 117.586C600.607 118.046 600.487 118.44 600.247 118.768C600.011 119.096 599.595 119.366 598.999 119.578C599.339 119.65 599.625 119.754 599.857 119.89C600.093 120.026 600.281 120.186 600.421 120.37C600.565 120.55 600.667 120.75 600.727 120.97C600.791 121.19 600.823 121.422 600.823 121.666C600.823 122.45 600.543 123.036 599.983 123.424C599.427 123.808 598.595 124 597.487 124H594.607ZM595.717 123.076H597.475C598.199 123.076 598.749 122.958 599.125 122.722C599.505 122.482 599.695 122.114 599.695 121.618C599.695 121.254 599.601 120.96 599.413 120.736C599.229 120.508 598.979 120.342 598.663 120.238C598.347 120.134 597.995 120.082 597.607 120.082H595.717V123.076ZM595.717 119.14H597.607C597.835 119.14 598.061 119.118 598.285 119.074C598.509 119.03 598.715 118.954 598.903 118.846C599.091 118.738 599.243 118.594 599.359 118.414C599.475 118.23 599.533 118 599.533 117.724C599.533 117.22 599.339 116.848 598.951 116.608C598.567 116.364 598.067 116.242 597.451 116.242H595.717V119.14ZM601.675 114.874H602.437C602.941 115.614 603.353 116.442 603.673 117.358C603.993 118.27 604.153 119.222 604.153 120.214C604.153 120.894 604.085 121.528 603.949 122.116C603.817 122.704 603.629 123.272 603.385 123.82C603.145 124.368 602.859 124.922 602.527 125.482H601.771C602.195 124.586 602.519 123.712 602.743 122.86C602.967 122.004 603.079 121.126 603.079 120.226C603.079 119.278 602.947 118.344 602.683 117.424C602.419 116.5 602.083 115.65 601.675 114.874Z" fill="#919EAB"/>
<rect x="0.5" y="0.5" width="848" height="143" rx="7.5" stroke="#919EAB" stroke-opacity="0.32" stroke-dasharray="6 2"/>
<defs>
<linearGradient id="paint0_linear_194_6827" x1="440.188" y1="82.4942" x2="468.802" y2="16.9124" gradientUnits="userSpaceOnUse">
<stop stop-color="#FCD800"/>
<stop offset="1" stop-color="#C9B820"/>
</linearGradient>
<linearGradient id="paint1_linear_194_6827" x1="415.158" y1="35.4923" x2="407.326" y2="59.0125" gradientUnits="userSpaceOnUse">
<stop stop-color="#F0CF0B"/>
<stop offset="1" stop-color="#401B60"/>
</linearGradient>
</defs>
</svg>
