<svg width="70" height="50" viewBox="0 0 70 50" fill="none" xmlns="http://www.w3.org/2000/svg">
<path d="M44.392 8.1059V12.6642C44.392 12.6642 41.3583 12.6794 41.343 12.6642V8.1059H36.7695C36.7695 8.1059 36.7848 5.07215 36.7695 5.0569H41.343V0.483398H44.392V5.0569H48.9655V8.1059H44.392ZM39.8185 14.2039V9.6304H35.245V5.0569H20V29.4489H44.392V14.2039H39.8185ZM23.049 26.3999L27.6225 20.3019L30.6715 24.8754L35.245 18.7774L41.343 26.3999H23.049Z" fill="#401B60" fill-opacity="0.17"/>
<path d="M6.55 42.2204C6.55 42.8204 6.45667 43.3438 6.27 43.7904C6.08333 44.2304 5.82 44.5971 5.48 44.8904C5.14 45.1771 4.73333 45.3938 4.26 45.5404C3.78667 45.6804 3.26667 45.7504 2.7 45.7504C2.42 45.7504 2.11 45.7371 1.77 45.7104C1.43667 45.6904 1.13333 45.6471 0.86 45.5804V38.8604C1.13333 38.7938 1.43667 38.7504 1.77 38.7304C2.11 38.7038 2.42 38.6904 2.7 38.6904C3.26667 38.6904 3.78667 38.7638 4.26 38.9104C4.73333 39.0504 5.14 39.2671 5.48 39.5604C5.82 39.8471 6.08333 40.2138 6.27 40.6604C6.45667 41.1004 6.55 41.6204 6.55 42.2204ZM2.78 44.9004C3.7 44.9004 4.38667 44.6671 4.84 44.2004C5.29333 43.7271 5.52 43.0671 5.52 42.2204C5.52 41.3738 5.29333 40.7171 4.84 40.2504C4.38667 39.7771 3.7 39.5404 2.78 39.5404C2.50667 39.5404 2.29333 39.5438 2.14 39.5504C1.99333 39.5571 1.89 39.5638 1.83 39.5704V44.8704C1.89 44.8771 1.99333 44.8838 2.14 44.8904C2.29333 44.8971 2.50667 44.9004 2.78 44.9004ZM9.84891 40.3804C9.92891 40.3804 10.0189 40.3871 10.1189 40.4004C10.2256 40.4071 10.3289 40.4204 10.4289 40.4404C10.5289 40.4538 10.6189 40.4704 10.6989 40.4904C10.7856 40.5038 10.8489 40.5171 10.8889 40.5304L10.7289 41.3404C10.6556 41.3138 10.5322 41.2838 10.3589 41.2504C10.1922 41.2104 9.97557 41.1904 9.70891 41.1904C9.53557 41.1904 9.36224 41.2104 9.18891 41.2504C9.02224 41.2838 8.91224 41.3071 8.85891 41.3204V45.6904H7.92891V40.7104C8.14891 40.6304 8.42224 40.5571 8.74891 40.4904C9.07557 40.4171 9.44224 40.3804 9.84891 40.3804ZM13.5463 45.0204C13.7663 45.0204 13.9597 45.0171 14.1263 45.0104C14.2997 44.9971 14.443 44.9771 14.5563 44.9504V43.4004C14.4897 43.3671 14.3797 43.3404 14.2263 43.3204C14.0797 43.2938 13.8997 43.2804 13.6863 43.2804C13.5463 43.2804 13.3963 43.2904 13.2363 43.3104C13.083 43.3304 12.9397 43.3738 12.8063 43.4404C12.6797 43.5004 12.573 43.5871 12.4863 43.7004C12.3997 43.8071 12.3563 43.9504 12.3563 44.1304C12.3563 44.4638 12.463 44.6971 12.6763 44.8304C12.8897 44.9571 13.1797 45.0204 13.5463 45.0204ZM13.4663 40.3604C13.8397 40.3604 14.153 40.4104 14.4063 40.5104C14.6663 40.6038 14.873 40.7404 15.0263 40.9204C15.1863 41.0938 15.2997 41.3038 15.3663 41.5504C15.433 41.7904 15.4663 42.0571 15.4663 42.3504V45.6004C15.3863 45.6138 15.273 45.6338 15.1263 45.6604C14.9863 45.6804 14.8263 45.7004 14.6463 45.7204C14.4663 45.7404 14.2697 45.7571 14.0563 45.7704C13.8497 45.7904 13.643 45.8004 13.4363 45.8004C13.143 45.8004 12.873 45.7704 12.6263 45.7104C12.3797 45.6504 12.1663 45.5571 11.9863 45.4304C11.8063 45.2971 11.6663 45.1238 11.5663 44.9104C11.4663 44.6971 11.4163 44.4404 11.4163 44.1404C11.4163 43.8538 11.473 43.6071 11.5863 43.4004C11.7063 43.1938 11.8663 43.0271 12.0663 42.9004C12.2663 42.7738 12.4997 42.6804 12.7663 42.6204C13.033 42.5604 13.313 42.5304 13.6063 42.5304C13.6997 42.5304 13.7963 42.5371 13.8963 42.5504C13.9963 42.5571 14.0897 42.5704 14.1763 42.5904C14.2697 42.6038 14.3497 42.6171 14.4163 42.6304C14.483 42.6438 14.5297 42.6538 14.5563 42.6604V42.4004C14.5563 42.2471 14.5397 42.0971 14.5063 41.9504C14.473 41.7971 14.413 41.6638 14.3263 41.5504C14.2397 41.4304 14.1197 41.3371 13.9663 41.2704C13.8197 41.1971 13.6263 41.1604 13.3863 41.1604C13.0797 41.1604 12.8097 41.1838 12.5763 41.2304C12.3497 41.2704 12.1797 41.3138 12.0663 41.3604L11.9563 40.5904C12.0763 40.5371 12.2763 40.4871 12.5563 40.4404C12.8363 40.3871 13.1397 40.3604 13.4663 40.3604ZM20.2709 45.1704C20.1909 45.2238 20.0343 45.2938 19.8009 45.3804C19.5743 45.4604 19.3076 45.5004 19.0009 45.5004C18.6876 45.5004 18.3909 45.4504 18.1109 45.3504C17.8376 45.2504 17.5976 45.0971 17.3909 44.8904C17.1843 44.6771 17.0209 44.4138 16.9009 44.1004C16.7809 43.7871 16.7209 43.4138 16.7209 42.9804C16.7209 42.6004 16.7776 42.2538 16.8909 41.9404C17.0043 41.6204 17.1676 41.3471 17.3809 41.1204C17.6009 40.8871 17.8676 40.7071 18.1809 40.5804C18.4943 40.4471 18.8476 40.3804 19.2409 40.3804C19.6743 40.3804 20.0509 40.4138 20.3709 40.4804C20.6976 40.5404 20.9709 40.5971 21.1909 40.6504V45.2904C21.1909 46.0904 20.9843 46.6704 20.5709 47.0304C20.1576 47.3904 19.5309 47.5704 18.6909 47.5704C18.3643 47.5704 18.0543 47.5438 17.7609 47.4904C17.4743 47.4371 17.2243 47.3738 17.0109 47.3004L17.1809 46.4904C17.3676 46.5638 17.5943 46.6271 17.8609 46.6804C18.1343 46.7404 18.4176 46.7704 18.7109 46.7704C19.2643 46.7704 19.6609 46.6604 19.9009 46.4404C20.1476 46.2204 20.2709 45.8704 20.2709 45.3904V45.1704ZM20.2609 41.3104C20.1676 41.2838 20.0409 41.2604 19.8809 41.2404C19.7276 41.2138 19.5176 41.2004 19.2509 41.2004C18.7509 41.2004 18.3643 41.3638 18.0909 41.6904C17.8243 42.0171 17.6909 42.4504 17.6909 42.9904C17.6909 43.2904 17.7276 43.5471 17.8009 43.7604C17.8809 43.9738 17.9843 44.1504 18.1109 44.2904C18.2443 44.4304 18.3943 44.5338 18.5609 44.6004C18.7343 44.6671 18.9109 44.7004 19.0909 44.7004C19.3376 44.7004 19.5643 44.6671 19.7709 44.6004C19.9776 44.5271 20.1409 44.4438 20.2609 44.3504V41.3104ZM27.1366 37.9304C27.37 37.9304 27.57 37.9471 27.7366 37.9804C27.9033 38.0071 28.0233 38.0338 28.0966 38.0604L27.9666 38.8604C27.8933 38.8338 27.7933 38.8071 27.6666 38.7804C27.54 38.7471 27.3866 38.7304 27.2066 38.7304C26.7733 38.7304 26.47 38.8504 26.2966 39.0904C26.1233 39.3238 26.0366 39.6404 26.0366 40.0404V40.4904H28.0366V41.2704H26.0366V45.6904H25.1066V40.0204C25.1066 39.3538 25.27 38.8404 25.5966 38.4804C25.9233 38.1138 26.4366 37.9304 27.1366 37.9304ZM29.9366 45.6904H29.0066V40.4904H29.9366V45.6904ZM29.4666 39.5504C29.3 39.5504 29.1566 39.4971 29.0366 39.3904C28.9233 39.2771 28.8666 39.1271 28.8666 38.9404C28.8666 38.7538 28.9233 38.6071 29.0366 38.5004C29.1566 38.3871 29.3 38.3304 29.4666 38.3304C29.6333 38.3304 29.7733 38.3871 29.8866 38.5004C30.0066 38.6071 30.0666 38.7538 30.0666 38.9404C30.0666 39.1271 30.0066 39.2771 29.8866 39.3904C29.7733 39.4971 29.6333 39.5504 29.4666 39.5504ZM33.0924 45.7904C32.5191 45.7771 32.1124 45.6538 31.8724 45.4204C31.6324 45.1871 31.5124 44.8238 31.5124 44.3304V38.0904L32.4424 37.9304V44.1804C32.4424 44.3338 32.4558 44.4604 32.4824 44.5604C32.5091 44.6604 32.5524 44.7404 32.6124 44.8004C32.6724 44.8604 32.7524 44.9071 32.8524 44.9404C32.9524 44.9671 33.0758 44.9904 33.2224 45.0104L33.0924 45.7904ZM33.9768 43.1004C33.9768 42.6404 34.0435 42.2404 34.1768 41.9004C34.3101 41.5538 34.4868 41.2671 34.7068 41.0404C34.9268 40.8138 35.1801 40.6438 35.4668 40.5304C35.7535 40.4171 36.0468 40.3604 36.3468 40.3604C37.0468 40.3604 37.5835 40.5804 37.9568 41.0204C38.3301 41.4538 38.5168 42.1171 38.5168 43.0104C38.5168 43.0504 38.5168 43.1038 38.5168 43.1704C38.5168 43.2304 38.5135 43.2871 38.5068 43.3404H34.9468C34.9868 43.8804 35.1435 44.2904 35.4168 44.5704C35.6901 44.8504 36.1168 44.9904 36.6968 44.9904C37.0235 44.9904 37.2968 44.9638 37.5168 44.9104C37.7435 44.8504 37.9135 44.7938 38.0268 44.7404L38.1568 45.5204C38.0435 45.5804 37.8435 45.6438 37.5568 45.7104C37.2768 45.7771 36.9568 45.8104 36.5968 45.8104C36.1435 45.8104 35.7501 45.7438 35.4168 45.6104C35.0901 45.4704 34.8201 45.2804 34.6068 45.0404C34.3935 44.8004 34.2335 44.5171 34.1268 44.1904C34.0268 43.8571 33.9768 43.4938 33.9768 43.1004ZM37.5468 42.5904C37.5535 42.1704 37.4468 41.8271 37.2268 41.5604C37.0135 41.2871 36.7168 41.1504 36.3368 41.1504C36.1235 41.1504 35.9335 41.1938 35.7668 41.2804C35.6068 41.3604 35.4701 41.4671 35.3568 41.6004C35.2435 41.7338 35.1535 41.8871 35.0868 42.0604C35.0268 42.2338 34.9868 42.4104 34.9668 42.5904H37.5468ZM42.1672 45.6904V38.0904L43.0972 37.9304V40.5904C43.2705 40.5238 43.4539 40.4738 43.6472 40.4404C43.8472 40.4004 44.0439 40.3804 44.2372 40.3804C44.6505 40.3804 44.9939 40.4404 45.2672 40.5604C45.5405 40.6738 45.7572 40.8371 45.9172 41.0504C46.0839 41.2571 46.2005 41.5071 46.2672 41.8004C46.3339 42.0938 46.3672 42.4171 46.3672 42.7704V45.6904H45.4372V42.9704C45.4372 42.6504 45.4139 42.3771 45.3672 42.1504C45.3272 41.9238 45.2572 41.7404 45.1572 41.6004C45.0572 41.4604 44.9239 41.3604 44.7572 41.3004C44.5905 41.2338 44.3839 41.2004 44.1372 41.2004C44.0372 41.2004 43.9339 41.2071 43.8272 41.2204C43.7205 41.2338 43.6172 41.2504 43.5172 41.2704C43.4239 41.2838 43.3372 41.3004 43.2572 41.3204C43.1839 41.3404 43.1305 41.3571 43.0972 41.3704V45.6904H42.1672ZM47.5901 43.1004C47.5901 42.6404 47.6567 42.2404 47.7901 41.9004C47.9234 41.5538 48.1001 41.2671 48.3201 41.0404C48.5401 40.8138 48.7934 40.6438 49.0801 40.5304C49.3667 40.4171 49.6601 40.3604 49.9601 40.3604C50.6601 40.3604 51.1967 40.5804 51.5701 41.0204C51.9434 41.4538 52.1301 42.1171 52.1301 43.0104C52.1301 43.0504 52.1301 43.1038 52.1301 43.1704C52.1301 43.2304 52.1267 43.2871 52.1201 43.3404H48.5601C48.6001 43.8804 48.7567 44.2904 49.0301 44.5704C49.3034 44.8504 49.7301 44.9904 50.3101 44.9904C50.6367 44.9904 50.9101 44.9638 51.1301 44.9104C51.3567 44.8504 51.5267 44.7938 51.6401 44.7404L51.7701 45.5204C51.6567 45.5804 51.4567 45.6438 51.1701 45.7104C50.8901 45.7771 50.5701 45.8104 50.2101 45.8104C49.7567 45.8104 49.3634 45.7438 49.0301 45.6104C48.7034 45.4704 48.4334 45.2804 48.2201 45.0404C48.0067 44.8004 47.8467 44.5171 47.7401 44.1904C47.6401 43.8571 47.5901 43.4938 47.5901 43.1004ZM51.1601 42.5904C51.1667 42.1704 51.0601 41.8271 50.8401 41.5604C50.6267 41.2871 50.3301 41.1504 49.9501 41.1504C49.7367 41.1504 49.5467 41.1938 49.3801 41.2804C49.2201 41.3604 49.0834 41.4671 48.9701 41.6004C48.8567 41.7338 48.7667 41.8871 48.7001 42.0604C48.6401 42.2338 48.6001 42.4104 48.5801 42.5904H51.1601ZM55.386 40.3804C55.466 40.3804 55.556 40.3871 55.656 40.4004C55.7627 40.4071 55.866 40.4204 55.966 40.4404C56.066 40.4538 56.156 40.4704 56.236 40.4904C56.3227 40.5038 56.386 40.5171 56.426 40.5304L56.266 41.3404C56.1927 41.3138 56.0693 41.2838 55.896 41.2504C55.7293 41.2104 55.5127 41.1904 55.246 41.1904C55.0727 41.1904 54.8993 41.2104 54.726 41.2504C54.5593 41.2838 54.4493 41.3071 54.396 41.3204V45.6904H53.466V40.7104C53.686 40.6304 53.9593 40.5571 54.286 40.4904C54.6127 40.4171 54.9793 40.3804 55.386 40.3804ZM57.0334 43.1004C57.0334 42.6404 57.1001 42.2404 57.2334 41.9004C57.3668 41.5538 57.5434 41.2671 57.7634 41.0404C57.9834 40.8138 58.2368 40.6438 58.5234 40.5304C58.8101 40.4171 59.1034 40.3604 59.4034 40.3604C60.1034 40.3604 60.6401 40.5804 61.0134 41.0204C61.3868 41.4538 61.5734 42.1171 61.5734 43.0104C61.5734 43.0504 61.5734 43.1038 61.5734 43.1704C61.5734 43.2304 61.5701 43.2871 61.5634 43.3404H58.0034C58.0434 43.8804 58.2001 44.2904 58.4734 44.5704C58.7468 44.8504 59.1734 44.9904 59.7534 44.9904C60.0801 44.9904 60.3534 44.9638 60.5734 44.9104C60.8001 44.8504 60.9701 44.7938 61.0834 44.7404L61.2134 45.5204C61.1001 45.5804 60.9001 45.6438 60.6134 45.7104C60.3334 45.7771 60.0134 45.8104 59.6534 45.8104C59.2001 45.8104 58.8068 45.7438 58.4734 45.6104C58.1468 45.4704 57.8768 45.2804 57.6634 45.0404C57.4501 44.8004 57.2901 44.5171 57.1834 44.1904C57.0834 43.8571 57.0334 43.4938 57.0334 43.1004ZM60.6034 42.5904C60.6101 42.1704 60.5034 41.8271 60.2834 41.5604C60.0701 41.2871 59.7734 41.1504 59.3934 41.1504C59.1801 41.1504 58.9901 41.1938 58.8234 41.2804C58.6634 41.3604 58.5268 41.4671 58.4134 41.6004C58.3001 41.7338 58.2101 41.8871 58.1434 42.0604C58.0834 42.2338 58.0434 42.4104 58.0234 42.5904H60.6034Z" fill="#8F8F8F"/>
</svg>
