<svg width="120" height="120" viewBox="0 0 120 120" fill="none" xmlns="http://www.w3.org/2000/svg">
<circle cx="60" cy="60" r="60" fill="#F4F6F8"/>
<g clip-path="url(#clip0_124_1466)">
<path d="M72.764 42.5304C72.9133 42.5372 73.0611 42.498 73.1873 42.4181C73.3136 42.3381 73.4123 42.2213 73.4699 42.0834C73.5276 41.9455 73.5415 41.7932 73.5097 41.6472C73.4779 41.5012 73.402 41.3684 73.2922 41.267C73.2739 41.1939 73.2607 41.1415 73.2423 41.0684C73.2489 41.0525 73.2555 41.0366 73.2621 41.0207C73.9332 39.4206 76.2075 39.4316 76.8729 41.0342C77.4634 42.4565 78.2153 43.8813 78.4005 45.3851C78.482 46.0499 78.4476 46.7238 78.2988 47.3767C79.6859 44.351 80.4061 41.0625 80.4108 37.734C80.4111 36.8988 80.3647 36.0642 80.2718 35.2341C80.195 34.5536 80.0885 33.878 79.9523 33.2072C79.2088 29.5676 77.6126 26.1562 75.2948 23.2533C74.173 22.6412 73.2657 21.6999 72.6953 20.5563C72.4887 20.1452 72.3426 19.7064 72.2617 19.2534C72.3883 19.27 72.7389 17.3427 72.6434 17.2245C72.8198 16.9568 73.1355 16.8238 73.3281 16.5627C74.286 15.2639 75.6058 15.4907 76.2948 17.2556C77.7666 17.9984 77.7808 19.2304 76.8777 20.4152C76.3032 21.169 76.2242 22.189 75.7201 22.996C75.772 23.0624 75.8259 23.1267 75.8778 23.1931C76.8259 24.4122 77.6522 25.7214 78.3449 27.1017C78.1489 25.5708 78.4383 23.7264 78.9316 22.5375C79.4931 21.1829 80.5456 20.0421 81.4724 18.871C82.5857 17.4644 84.8686 18.0783 85.0648 19.8614C85.0667 19.8786 85.0685 19.8959 85.0703 19.9131C84.9327 19.9908 84.7979 20.0732 84.666 20.1605C84.5004 20.2711 84.3721 20.4292 84.2978 20.6141C84.2236 20.799 84.2069 21.0019 84.25 21.1964C84.2931 21.3909 84.3939 21.5679 84.5393 21.7041C84.6847 21.8403 84.8678 21.9294 85.0647 21.9597L85.0848 21.9629C85.0358 22.459 84.9491 22.9507 84.8255 23.4338C86.0145 28.032 83.4475 29.7068 79.7822 29.782C79.7013 29.8235 79.6224 29.865 79.5415 29.9044C80.2375 31.8768 80.674 33.9313 80.8402 36.0162C80.9343 37.2463 80.9287 38.4819 80.8236 39.7111L80.8298 39.6675C81.0954 38.3007 81.8245 37.0674 82.8941 36.176C84.4826 34.871 86.7269 34.3905 88.4407 33.3416C89.2656 32.8367 90.3227 33.4892 90.1788 34.4456C90.1765 34.4609 90.1741 34.4761 90.1718 34.4914C89.9163 34.5954 89.6676 34.7153 89.427 34.8503C89.2893 34.928 89.1546 35.0104 89.0227 35.0976C88.8571 35.2083 88.7287 35.3664 88.6545 35.5512C88.5802 35.7361 88.5636 35.9391 88.6067 36.1336C88.6498 36.3281 88.7506 36.505 88.896 36.6412C89.0413 36.7774 89.2245 36.8665 89.4213 36.8969L89.4415 36.9C89.456 36.9021 89.4685 36.9042 89.483 36.9062C89.0465 37.9485 88.4338 38.9078 87.6719 39.7422C86.9284 43.7563 83.7352 44.1372 80.3195 42.9682H80.3174C79.9426 44.5968 79.3996 46.182 78.6971 47.6983H72.909C72.8882 47.634 72.8696 47.5676 72.8509 47.5033C73.3867 47.537 73.9245 47.5049 74.4525 47.4079C74.0231 46.8809 73.5936 46.3498 73.1642 45.8229C73.1546 45.813 73.1456 45.8026 73.1372 45.7917C72.9194 45.5221 72.6995 45.2544 72.4816 44.9847L72.4815 44.9844C72.4699 44.1577 72.5648 43.3329 72.7638 42.5305L72.764 42.5304Z" fill="#F2F2F2"/>
<path d="M91.348 27.7174C90.2718 23.7936 98.9522 20.4288 101.232 23.5887C101.549 23.1394 102.72 22.8665 103.257 23.0044C103.795 23.1422 104.247 23.4867 104.688 23.8202C105.294 24.286 105.923 24.7683 106.295 25.4381C106.67 26.105 106.727 27.0146 106.223 27.5934C105.823 28.0537 104.644 28.3513 104.043 28.4726C103.624 28.558 103.271 28.627 102.968 28.6766C102.693 28.2798 102.566 27.7987 102.61 27.3178C102.406 27.4554 102.235 27.6365 102.109 27.8481C101.983 28.0597 101.906 28.2965 101.882 28.5415C101.874 28.6435 105.269 41.1372 105.269 41.1372C104.861 41.3694 104.432 41.5623 103.988 41.7133C103.109 40.3693 102.435 38.9015 101.99 37.3585C101.887 38.3903 101.9 39.4303 102.028 40.4592C102.096 41.0362 102.194 41.6093 102.32 42.1763C98.2853 43.0472 92.2162 42.7606 89.5758 39.0563C89.5754 39.041 89.5749 39.0257 89.5745 39.0103C89.5724 38.8641 89.5196 38.7231 89.4251 38.6116C89.3305 38.5 89.2001 38.4248 89.0562 38.3989C88.9123 38.3729 88.7638 38.3978 88.6363 38.4692C88.5087 38.5406 88.4099 38.6542 88.3568 38.7905C88.2928 38.9539 88.2338 39.0954 88.1812 39.2079C87.4122 36.4572 88.4072 33.2739 91.348 27.7174Z" fill="#2F2E41"/>
<path d="M84.4813 93.5029V93.6314C84.4763 93.5888 84.4763 93.5456 84.4813 93.5029Z" fill="#2F2E41"/>
<path d="M88.4326 71.2961C88.5352 71.2683 88.6397 71.248 88.7452 71.2354C88.6241 71.2551 88.5199 71.2753 88.4326 71.2961Z" fill="#2F2E41"/>
<path d="M88.3418 71.3192C88.3695 71.3114 88.4004 71.3037 88.4332 71.2959C88.4026 71.3039 88.3732 71.3097 88.3418 71.3192Z" fill="#2F2E41"/>
<path d="M117.536 106.361H102.745C102.534 106.192 102.388 105.957 102.33 105.693C102.272 105.429 102.307 105.154 102.429 104.912C102.833 103.986 102.041 103.139 102.041 103.139C101.772 102.824 101.585 102.448 101.497 102.043C101.408 101.639 101.421 101.219 101.534 100.82C101.926 99.4518 100.39 95.5887 100.39 95.5887C100.39 95.5887 99.5623 100.577 98.5478 106.361H84.4815C84.2459 105.96 84.1216 105.503 84.1216 105.037C84.1216 104.572 84.2459 104.115 84.4815 103.713C85.3012 102.323 84.4815 102.057 84.4815 102.057C84.4815 102.057 83.6618 100.501 84.4815 99.3721C85.3012 98.2428 84.4815 93.6315 84.4815 93.6315C84.5124 93.8354 84.7459 93.4647 85.1055 92.6875C85.6529 91.505 86.4894 89.3785 87.3346 86.9097C87.9388 85.1477 88.5479 83.2091 89.057 81.3136H89.0583C89.1917 80.8157 89.3181 80.3222 89.4376 79.8333C89.6711 78.8745 89.8713 77.9429 90.0233 77.068C90.3532 75.1837 90.4619 73.565 90.2086 72.5123C89.9985 71.6362 89.5389 71.1531 88.7456 71.2359C89.1707 71.1655 89.7934 71.0987 90.5608 71.0357C90.6992 71.0246 90.8425 71.0135 90.9908 71.0011C96.7141 70.5687 108.994 70.3203 108.994 70.3203L112.755 77.0556L117.518 85.5876C117.518 85.5876 117.389 97.0332 117.536 106.361Z" fill="#2F2E41"/>
<path d="M101.749 41.2083L93.0839 39.3701L91.3633 42.8334L85.5692 46.1879C85.5692 46.1879 89.304 61.4587 89.2827 63.6065C89.2286 69.0593 80.5038 81.2829 87.094 80.3425C93.6841 79.4022 95.0227 75.4633 97.1383 76.0861C99.0463 76.6478 101.376 79.1466 102.936 77.3595C104.495 75.5723 105.045 77.636 106.031 77.7073C106.5 77.7412 106.218 75.4507 107.397 77.7785C108.576 80.1063 114.829 76.9728 112.71 74.8534C109.18 71.3236 108.463 45.3028 108.463 45.3028L104.533 44.0938L101.749 41.2083Z" fill="#E6E6E6"/>
<path d="M85.4046 96.6651C85.7528 96.2499 85.9252 95.7153 85.8852 95.1749C85.8452 94.6345 85.5959 94.1311 85.1904 93.7717C85.1068 93.7 85.0174 93.6352 84.9232 93.5782L86.372 86.4676L83.0226 84.4629L82.0909 94.4183C81.8848 94.8274 81.82 95.2932 81.9064 95.7431C81.9929 96.193 82.2259 96.6016 82.569 96.9052C82.7659 97.076 82.9946 97.2064 83.2419 97.2889C83.4892 97.3714 83.7503 97.4044 84.0103 97.3859C84.2704 97.3675 84.5242 97.298 84.7574 97.1815C84.9906 97.065 85.1986 96.9037 85.3694 96.7068C85.3813 96.693 85.393 96.6791 85.4046 96.6651Z" fill="#A0616A"/>
<path d="M95.8044 59.1849C95.7834 58.9563 95.4918 58.8525 95.0878 58.7092C94.682 58.5842 94.2962 58.4015 93.9424 58.1667C93.0478 57.5205 93.3999 56.8446 93.8868 55.9105C93.9819 55.7288 94.0808 55.5398 94.1734 55.3433C94.449 54.7614 94.0103 52.3605 92.8674 48.2064C92.5152 46.9275 92.5165 46.0243 92.273 45.425C92.0309 44.8257 91.5453 44.5304 90.2219 44.4686C88.6224 44.3879 87.0561 44.9446 85.8663 46.0169C85.8342 46.0453 85.8009 46.0762 85.7687 46.1058C85.7082 46.1627 85.6489 46.2208 85.5908 46.2801C84.4906 47.3869 83.861 48.8763 83.8338 50.4367L83.8276 50.7023L83.5545 63.3946L82.7872 74.5325L81.7295 89.8752L82.5129 89.9135L85.639 90.0692L86.0183 90.0877L86.9179 86.3142L88.0003 81.7733L88.3981 80.1052L89.6325 74.9304L90.2083 72.5123L90.5605 71.0357L90.7038 70.4327L91.4032 67.5018C91.4192 67.4401 93.028 61.0927 94.8827 60.0313C95.5746 59.6359 95.8242 59.406 95.8044 59.1849Z" fill="#E6E6E6"/>
<path d="M116.614 96.5896C116.223 96.2142 115.994 95.7012 115.976 95.1596C115.958 94.6181 116.151 94.0908 116.516 93.6899C116.591 93.6096 116.673 93.5357 116.761 93.4689L114.557 86.5549L117.671 84.2021L119.667 93.9999C119.916 94.3845 120.03 94.8407 119.993 95.2973C119.955 95.7538 119.767 96.1851 119.459 96.5237C119.281 96.7147 119.068 96.8689 118.831 96.9775C118.594 97.0861 118.338 97.1469 118.077 97.1565C117.817 97.1661 117.557 97.1243 117.313 97.0335C117.068 96.9427 116.844 96.8047 116.653 96.6272C116.64 96.6149 116.627 96.6023 116.614 96.5896Z" fill="#A0616A"/>
<path d="M118.138 81.5877C118.138 81.5877 115.708 73.0405 116.449 72.1152C117.19 71.1899 115.002 71.0092 115.945 69.286C116.888 67.5628 115.586 67.2745 115.586 67.2745L114.88 63.3124L113.618 53.5805L113.579 53.2911L113.212 50.4597C113.11 49.6511 112.845 48.8713 112.434 48.1672C112.023 47.4631 111.475 46.8491 110.821 46.3619C110.788 46.3363 110.754 46.3118 110.72 46.2872C110.564 46.1753 110.405 46.0717 110.243 45.9762C109.031 45.2612 107.608 44.9909 106.218 45.2117C103.6 45.6195 104.415 46.596 103.99 49.2119C103.3 53.4654 103.121 55.8988 103.458 56.4487C103.571 56.6338 103.69 56.8109 103.804 56.981C104.388 57.8586 104.811 58.4918 103.99 59.2318C103.664 59.5022 103.3 59.7248 102.91 59.8928C102.524 60.0795 102.245 60.2135 102.249 60.4431C102.253 60.6654 102.526 60.8662 103.256 61.1847C104.14 61.5718 105.091 63.0353 105.869 64.5303C106.486 65.7353 107.037 66.9735 107.518 68.239L114.206 87.0489L115.297 90.1164L115.673 90.0569L118.763 89.567L119.538 89.4444L118.138 81.5877Z" fill="#E6E6E6"/>
<path d="M98.0932 39.24C101.998 39.24 105.163 36.0748 105.163 32.1703C105.163 28.2658 101.998 25.1006 98.0932 25.1006C94.1887 25.1006 91.0234 28.2658 91.0234 32.1703C91.0234 36.0748 94.1887 39.24 98.0932 39.24Z" fill="#A0616A"/>
<path d="M87.4896 28.2692C86.4134 24.3453 95.0938 20.9805 97.3733 24.1404C97.6902 23.6912 98.8616 23.4183 99.3991 23.5561C99.9365 23.6939 100.389 24.0384 100.83 24.3719C101.436 24.8377 102.064 25.3201 102.436 25.9898C102.811 26.6568 102.869 27.5664 102.365 28.1451C101.965 28.6054 100.785 28.9031 100.185 29.0244C99.7656 29.1098 99.4128 29.1787 99.1097 29.2283C98.8343 28.8316 98.7074 28.3505 98.7514 27.8695C98.5473 28.0072 98.3762 28.1883 98.2504 28.3999C98.1246 28.6114 98.0472 28.8482 98.0237 29.0933C98.0155 29.1952 101.411 41.689 101.411 41.689C101.003 41.9212 100.574 42.114 100.129 42.265C99.2501 40.9211 98.5766 39.4533 98.1312 37.9103C98.0289 38.942 98.0418 39.982 98.1698 41.011C98.2379 41.5879 98.3354 42.161 98.462 42.728C94.4269 43.599 88.3578 43.3124 85.7174 39.6081C85.717 39.5927 85.7165 39.5774 85.7161 39.5621C85.714 39.4158 85.6612 39.2749 85.5667 39.1634C85.4721 39.0518 85.3417 38.9766 85.1978 38.9506C85.0539 38.9247 84.9054 38.9495 84.7779 39.021C84.6503 39.0924 84.5515 39.206 84.4984 39.3423C84.4344 39.5057 84.3754 39.6471 84.3228 39.7597C83.5538 37.009 84.5488 33.8256 87.4896 28.2692Z" fill="#2F2E41"/>
<path d="M52.4281 52.6983C52.2788 52.7052 52.131 52.666 52.0047 52.586C51.8784 52.5061 51.7798 52.3893 51.7221 52.2514C51.6645 52.1135 51.6506 51.9612 51.6824 51.8152C51.7141 51.6691 51.7901 51.5364 51.8998 51.4349C51.9182 51.3619 51.9314 51.3094 51.9497 51.2364C51.9432 51.2205 51.9366 51.2046 51.9299 51.1887C51.2588 49.5885 48.9845 49.5996 48.3191 51.2021C47.7286 52.6245 46.9767 54.0492 46.7916 55.5531C46.71 56.2179 46.7444 56.8917 46.8932 57.5447C45.5062 54.519 44.7859 51.2304 44.7813 47.902C44.781 47.0667 44.8274 46.2321 44.9203 45.4021C44.997 44.7216 45.1035 44.046 45.2398 43.3752C45.9832 39.7356 47.5794 36.3242 49.8972 33.4212C51.0191 32.8091 51.9263 31.8679 52.4967 30.7243C52.7034 30.3132 52.8494 29.8743 52.9303 29.4214C52.8038 29.438 52.4531 27.5107 52.5486 27.3924C52.3722 27.1248 52.0566 26.9918 51.864 26.7306C50.906 25.4319 49.5863 25.6587 48.8973 27.4236C47.4255 28.1664 47.4112 29.3983 48.3143 30.5832C48.8889 31.337 48.9678 32.357 49.472 33.164C49.4201 33.2304 49.3661 33.2947 49.3143 33.3611C48.3662 34.5802 47.5398 35.8893 46.8471 37.2697C47.0431 35.7387 46.7537 33.8944 46.2605 32.7055C45.6989 31.3509 44.6465 30.21 43.7196 29.039C42.6063 27.6323 40.3234 28.2462 40.1273 30.0293C40.1254 30.0466 40.1235 30.0639 40.1217 30.0811C40.2594 30.1588 40.3941 30.2412 40.526 30.3284C40.6916 30.4391 40.82 30.5972 40.8942 30.7821C40.9685 30.9669 40.9851 31.1699 40.942 31.3644C40.8989 31.5589 40.7981 31.7358 40.6527 31.872C40.5074 32.0082 40.3242 32.0974 40.1274 32.1277L40.1072 32.1308C40.1562 32.627 40.2429 33.1187 40.3665 33.6017C39.1775 38.2 41.7445 39.8748 45.4099 39.95C45.4908 39.9915 45.5696 40.033 45.6505 40.0724C44.9546 42.0448 44.518 44.0993 44.3518 46.1842C44.2578 47.4142 44.2633 48.6499 44.3684 49.8791L44.3622 49.8355C44.0966 48.4687 43.3675 47.2354 42.298 46.3439C40.7094 45.039 38.4651 44.5585 36.7514 43.5096C35.9264 43.0046 34.8693 43.6571 35.0133 44.6136C35.0156 44.6288 35.0179 44.6441 35.0203 44.6594C35.2757 44.7634 35.5245 44.8833 35.7651 45.0183C35.9027 45.0959 36.0375 45.1784 36.1693 45.2656C36.335 45.3762 36.4633 45.5344 36.5376 45.7192C36.6118 45.9041 36.6285 46.107 36.5854 46.3015C36.5423 46.496 36.4414 46.673 36.2961 46.8092C36.1507 46.9454 35.9676 47.0345 35.7707 47.0649L35.7505 47.068C35.736 47.07 35.7235 47.0721 35.709 47.0742C36.1456 48.1164 36.7582 49.0758 37.5202 49.9102C38.2636 53.9243 41.4568 54.3051 44.8726 53.1362H44.8746C45.2494 54.7648 45.7924 56.35 46.4949 57.8663H52.283C52.3038 57.802 52.3225 57.7356 52.3411 57.6712C51.8054 57.7049 51.2675 57.6729 50.7395 57.5758C51.169 57.0489 51.5984 56.5178 52.0279 55.9908C52.0374 55.981 52.0464 55.9706 52.0548 55.9597C52.2727 55.69 52.4926 55.4224 52.7104 55.1527L52.7105 55.1524C52.7221 54.3257 52.6273 53.5009 52.4283 52.6984L52.4281 52.6983Z" fill="#F2F2F2"/>
<path d="M25.4197 23.5889C25.2883 23.895 21.2377 23.8622 21.0522 24.1348C19.6219 26.2394 24.778 35.1939 23.3477 37.3013L23.1484 37.5387C23.615 37.3237 24.0633 37.0708 24.4887 36.7826C24.5269 35.92 24.5651 35.0547 24.606 34.1921C25.0345 34.7402 25.3803 35.3481 25.6324 35.9965C25.9654 35.7617 26.2386 35.3265 27.666 34.4706C28.2439 33.8358 28.9101 33.2874 29.6441 32.8423L25.4197 23.5889Z" fill="#2F2E41"/>
<path d="M28.3616 40.8378C27.9146 40.5466 27.4047 40.3662 26.874 40.3116C26.3433 40.257 25.8073 40.3297 25.3103 40.5237C24.8134 40.7177 24.3699 41.0275 24.0166 41.4272C23.6634 41.827 23.4105 42.3052 23.2791 42.8222L17.1236 58.8609L6.54302 52.854C6.49656 52.1636 6.23263 51.5056 5.78909 50.9744C5.34555 50.4432 4.74518 50.0662 4.0741 49.8973C3.40301 49.7284 2.69567 49.7764 2.05355 50.0344C1.41142 50.2924 0.867494 50.7471 0.499773 51.3333C0.132051 51.9195 -0.0405708 52.6071 0.0066661 53.2975C0.053903 53.9879 0.318572 54.6456 0.762713 55.1763C1.20685 55.707 1.80765 56.0834 2.47892 56.2515C3.1502 56.4196 3.85748 56.3708 4.49931 56.1121C6.72749 58.4902 16.3875 68.2405 20.3866 64.4308C23.7481 61.2286 28.5992 48.8181 29.7669 44.5324C29.9539 43.8471 29.9187 43.1202 29.6661 42.4562C29.4136 41.7922 28.9568 41.2255 28.3616 40.8378Z" fill="#FFB6B6"/>
<path d="M16.8027 65.1025L18.7452 73.8823L32.9493 75.1671L34.2547 67.5223L16.8027 65.1025Z" fill="#FFB6B6"/>
<path d="M38.5004 87.6175C38.4939 87.7434 38.4862 87.8679 38.4771 87.9938C38.3408 89.813 38.1851 91.9111 38.0164 94.2104C37.7504 97.8591 37.4533 102.014 37.1536 106.361H7.36035L13.1384 88.9934C13.1384 88.9934 15.4715 87.7089 14.2837 85.5511C13.0959 83.3933 15.433 85.1128 15.4548 82.0311C15.4765 78.9494 17.5708 75.6709 17.5708 75.6709L17.9147 71.0049L18.1106 71.0088L33.6151 71.267L33.898 71.2722L34.3742 75.2777C37.2656 78.7184 38.7407 83.1297 38.5004 87.6175Z" fill="#2F2E41"/>
<path d="M25.6679 36.583L32.738 36.2188L36.0218 41.4076C36.0218 41.4076 42.2005 42.4406 41.7722 49.7214C41.3439 57.0022 34.2546 63.3911 34.2546 63.3911L34.5577 62.3521L34.0313 63.856L34.0988 64.7004L34.8168 65.5947L34.8908 66.5196L34.2546 67.9828C34.3373 68.1154 34.3812 68.2685 34.3813 68.4248C34.3814 68.5811 34.3377 68.7343 34.2552 68.867C34.1726 68.9997 34.0546 69.1066 33.9143 69.1756C33.7741 69.2446 33.6173 69.2729 33.4618 69.2573L23.2461 68.2335C23.0136 67.5937 22.8269 66.8282 21.8947 68.1026L20.9323 68.0094L16.9319 67.6218L16.6964 66.764C16.5626 66.2767 16.5418 65.7652 16.6355 65.2685C16.7291 64.7719 16.9349 64.3031 17.237 63.898C16.8895 62.8099 16.9805 61.6292 17.4907 60.6072L17.5098 60.5688L17.9346 60.2147C17.9346 60.2147 13.2869 53.2322 18.6224 47.973L20.7638 44.3326L23.1598 41.4093L25.6679 36.583Z" fill="#DBC22A"/>
<path d="M27.428 33.5191C31.1307 33.5191 34.1324 30.5174 34.1324 26.8147C34.1324 23.112 31.1307 20.1104 27.428 20.1104C23.7253 20.1104 20.7236 23.112 20.7236 26.8147C20.7236 30.5174 23.7253 33.5191 27.428 33.5191Z" fill="#FFB6B6"/>
<path d="M32.5203 36.4732C31.9744 36.017 31.5944 35.3933 31.4394 34.6989C31.3154 35.542 31.3478 36.4007 31.5349 37.232C31.1719 37.505 30.8197 37.7643 30.4867 37.9991C30.2346 37.3507 29.8888 36.7428 29.4603 36.1948C29.4194 37.0573 29.3812 37.9227 29.343 38.7852C28.9176 39.0734 28.4693 39.3263 28.0027 39.5414L28.202 39.3039C29.6323 37.1966 25.9309 33.3177 27.3612 31.2131C27.7625 30.6235 25.95 25.9639 24.5687 25.7537C23.3404 25.5681 23.3922 25.9229 22.2021 26.1823C22.0785 25.6668 21.8866 25.1702 21.6316 24.7055C21.6995 25.2233 21.6838 25.7486 21.5852 26.2614C21.1621 26.2778 20.8292 26.0082 20.3787 25.9393C17.5043 25.4998 17.7964 22.3907 18.5962 21.4053C19.3987 20.4226 22.0629 20.1278 23.2912 19.8084C23.4032 19.6992 23.657 19.7675 23.7689 19.6638C26.123 17.5093 29.2715 17.1526 32.1048 18.1074C35.1263 19.1258 37.0101 21.0966 37.977 24.135L38.2543 26.5665C38.5031 27.3482 38.1901 30.9859 37.977 31.7781C37.1485 34.8578 35.3841 33.3204 32.5203 36.4732Z" fill="#2F2E41"/>
<path d="M42.2952 68.2364L42.0313 47.6799C42.0175 46.809 41.6619 45.9785 41.0412 45.3675C40.4205 44.7565 39.5844 44.4141 38.7134 44.4141C38.2628 44.4141 37.817 44.5058 37.403 44.6838C36.989 44.8617 36.6157 45.1221 36.3056 45.449C35.9956 45.776 35.7554 46.1626 35.5996 46.5855C35.4439 47.0083 35.3759 47.4584 35.3998 47.9083L36.3286 69.2531L36.3462 82.2467C35.7988 82.4789 35.3361 82.8739 35.021 83.3782C34.706 83.8824 34.5537 84.4714 34.5851 85.0652C34.6164 85.659 34.8298 86.2287 35.1962 86.697C35.5626 87.1653 36.0643 87.5094 36.6331 87.6827C37.2019 87.8559 37.8103 87.8498 38.3755 87.6653C38.9407 87.4807 39.4354 87.1266 39.7924 86.6511C40.1494 86.1756 40.3514 85.6018 40.3709 85.0075C40.3903 84.4132 40.2264 83.8273 39.9013 83.3295L42.2952 68.2364Z" fill="#FFB6B6"/>
<path d="M76.8975 94.8321C76.8975 94.8321 76.4894 102.174 76.3018 106.361H62.2484C61.9591 102.55 61.8617 99.751 61.8617 99.751L61.0928 106.361H46.8875L46.0068 94.119L50.2627 83.5696C50.2627 83.5696 73.3262 81.9701 75.4655 83.9992C77.6035 86.0269 76.8975 94.8321 76.8975 94.8321Z" fill="#2F2E41"/>
<path d="M64.4704 33.0725C68.7099 33.0725 72.1468 29.6357 72.1468 25.3961C72.1468 21.1566 68.7099 17.7197 64.4704 17.7197C60.2308 17.7197 56.7939 21.1566 56.7939 25.3961C56.7939 29.6357 60.2308 33.0725 64.4704 33.0725Z" fill="#FFB6B6"/>
<path d="M73.4175 22.9017C72.629 23.2613 72.1181 25.8651 71.4984 25.2598C70.8787 24.6545 70.92 23.8667 70.0845 23.6433C69.4098 23.4621 68.6837 23.6692 68.0682 23.9957C67.9583 24.0534 67.8518 24.116 67.7479 24.1783C67.6794 24.1325 67.6112 24.0894 67.538 24.0497C66.9875 23.7551 66.3449 23.6828 65.7427 23.8478C66.2186 24.0071 66.6323 24.3121 66.9254 24.7194C66.7194 24.8575 66.5107 24.9959 66.2973 25.1185C64.5145 26.1473 61.9776 23.9101 60.101 23.0697C61.2764 25.2755 60.6976 26.189 59.677 28.4703L59.6418 28.6002C59.6997 28.0285 57.9305 27.6024 58.0331 28.4072C58.1059 28.9787 58.6005 30.2489 58.8775 30.7534C56.9044 28.472 55.5561 25.6802 55.8406 22.8003C55.9025 22.1953 55.8839 21.5569 56.1959 21.0318C56.5083 20.5095 57.1595 20.1429 57.7357 20.3421C57.6869 19.4236 57.8879 18.5091 58.3173 17.6958C58.7467 16.8824 59.3885 16.2006 60.1744 15.7229C60.9604 15.2451 61.8611 14.9893 62.7808 14.9826C63.7005 14.9758 64.6049 15.2185 65.3978 15.6846C66.1345 16.1169 66.7495 16.7283 67.4247 17.2557C68.1 17.7831 68.8784 18.2428 69.7346 18.2863C70.2778 18.3125 70.8689 18.1799 71.3355 18.4612C71.8761 18.7877 71.9686 19.4711 72.0497 20.1288C71.5676 20.1763 71.1106 20.3665 70.7371 20.6751C71.2359 20.6242 71.7381 20.7319 72.1723 20.9829C72.1805 20.9866 72.1883 20.9911 72.1958 20.9963C72.4815 22.0831 72.4523 22.3241 73.4175 22.9017Z" fill="#2F2E41"/>
<path d="M46.9219 87.2835C53.459 79.6317 51.2509 69.8992 48.6564 60.0747L49.1501 45.5611C49.1743 44.8491 49.3695 44.1535 49.7191 43.5328C50.0688 42.9122 50.5627 42.3848 51.159 41.9952L57.8326 37.6354L60.43 33.8799L67.59 34.5959L71.5603 38.7947L75.9552 42.1498C77.0586 42.9923 77.8983 44.1326 78.375 45.4364C78.8518 46.7403 78.9459 48.1533 78.6462 49.5088L74.4405 68.5284C74.4405 68.5284 76.1995 78.3884 75.1262 79.4773C74.0529 80.5663 71.2873 79.4779 73.4804 80.7003C76.1124 82.1673 78.5055 81.8966 77.1736 83.2285C75.8417 84.5604 77.5273 86.4121 77.5273 86.4121L46.9219 87.2835Z" fill="#DBC22A"/>
<path d="M49.7168 98.4041L50.8066 90.6398L46.4581 89.3984L45.5979 97.6483C45.238 97.9783 44.9773 98.4021 44.8451 98.8721C44.7129 99.3422 44.7144 99.8397 44.8495 100.309C44.9846 100.778 45.2479 101.2 45.6097 101.528C45.9716 101.856 46.4178 102.076 46.898 102.164C47.3783 102.253 47.8736 102.205 48.3282 102.027C48.7829 101.849 49.179 101.548 49.4718 101.157C49.7647 100.766 49.9428 100.302 49.986 99.8155C50.0293 99.3291 49.9361 98.8404 49.7168 98.4041Z" fill="#FFB6B6"/>
<path d="M57.995 39.0352C57.995 39.0352 45.6172 43.0637 45.322 46.0114C45.0269 48.959 45.1247 50.7635 43.8184 62.5588L43.8872 94.332C43.8872 94.332 52.1858 96.1087 51.3347 94.2091C50.4836 92.3094 50.7806 91.4156 50.7806 91.4156C50.7806 91.4156 52.5598 90.7135 52.1144 88.483C51.6691 86.2525 53.9026 75.1989 53.9026 75.1989L55.3123 55.3747L57.995 39.0352Z" fill="#DBC22A"/>
<path d="M73.2577 97.9932L72.6777 90.1742L77.0981 89.2197L77.4172 97.5082C77.7547 97.861 77.9871 98.301 78.0883 98.7786C78.1896 99.2563 78.1555 99.7527 77.9901 100.212C77.8246 100.671 77.5343 101.076 77.1518 101.379C76.7692 101.682 76.3096 101.873 75.8247 101.93C75.3397 101.986 74.8486 101.906 74.4065 101.699C73.9644 101.492 73.5889 101.165 73.3222 100.756C73.0555 100.347 72.9082 99.872 72.8968 99.3839C72.8854 98.8958 73.0104 98.4141 73.2577 97.9932Z" fill="#FFB6B6"/>
<path d="M68.877 38.21C68.877 38.21 80.965 43.039 81.0668 45.9996C81.1687 48.9603 80.953 50.7545 81.4856 62.6099L79.3401 94.3107C79.3401 94.3107 70.9431 95.5412 71.9165 93.7012C72.8899 91.8612 72.652 90.95 72.652 90.95C72.652 90.95 70.9225 90.1331 71.5127 87.9365C72.103 85.7398 70.5968 74.5638 70.5968 74.5638L70.4859 54.6899L68.877 38.21Z" fill="#DBC22A"/>
</g>
<defs>
<clipPath id="clip0_124_1466">
<rect width="120" height="91.3609" fill="white" transform="translate(0 15)"/>
</clipPath>
</defs>
</svg>
